<?xml version="1.0" standalone="no"?>
<!DOCTYPE svg PUBLIC "-//W3C//DTD SVG 20010904//EN"
 "http://www.w3.org/TR/2001/REC-SVG-20010904/DTD/svg10.dtd">
<svg version="1.0" xmlns="http://www.w3.org/2000/svg"
 width="1600.000000pt" height="923.000000pt" viewBox="0 0 1600.000000 923.000000"
 preserveAspectRatio="xMidYMid meet">

<g transform="translate(0.000000,923.000000) scale(0.100000,-0.100000)"
fill="#000000" stroke="none">
<path d="M2730 3505 l0 -1085 214 0 215 0 3 43 c4 42 11 37 22 -15 l6 -28 120
0 c102 0 119 2 114 15 -4 8 -1 15 5 15 7 0 14 -7 17 -15 4 -9 19 -15 35 -15
22 0 29 5 29 20 0 15 7 20 25 20 18 0 25 -5 25 -20 0 -20 7 -20 326 -20 l326
0 -4 25 c-3 13 -1 22 3 19 5 -3 9 -14 9 -25 0 -15 7 -19 35 -19 l35 0 0 54 c0
92 23 119 34 41 4 -24 11 -47 17 -50 5 -4 9 -15 9 -26 0 -11 7 -19 18 -19 15
0 17 9 14 75 -3 60 -1 75 11 75 15 0 27 -47 27 -112 0 -34 3 -38 26 -38 l26 0
-4 78 -3 77 55 -1 c30 -1 71 -6 90 -10 32 -8 35 -12 37 -50 3 -36 0 -41 -25
-51 l-27 -11 28 -1 c17 -1 27 -7 27 -16 0 -12 16 -15 93 -14 50 1 82 4 70 6
-40 8 -25 23 22 23 47 0 62 -15 23 -23 -13 -2 -4 -5 20 -6 24 0 41 3 38 8 -9
14 13 264 23 274 6 6 8 22 5 36 -3 14 -1 44 4 66 9 35 10 28 10 -50 -1 -49 -4
-94 -8 -100 -4 -5 -11 -61 -15 -123 l-7 -112 40 0 c33 0 41 4 46 23 9 35 7 66
-6 87 -10 16 -10 24 0 40 14 24 16 106 2 115 -5 3 -10 42 -10 86 l0 79 59 0
58 0 7 -46 c3 -26 6 -123 6 -215 0 -162 1 -169 20 -169 19 0 20 7 20 255 l0
255 -85 0 c-47 0 -93 5 -103 11 -13 8 -31 7 -71 -5 -30 -9 -102 -21 -161 -28
-94 -10 -118 -9 -200 6 -52 10 -108 25 -127 32 -42 18 -53 18 -53 -1 0 -13
-20 -15 -127 -14 -71 1 -141 4 -158 8 l-30 6 36 23 c20 12 41 22 47 22 5 0 12
7 15 15 5 12 1 12 -21 4 -15 -6 -29 -13 -32 -17 -22 -30 -79 -59 -109 -57 -24
2 -30 0 -20 -6 9 -7 3 -8 -21 -5 -81 12 -250 18 -472 17 -173 0 -238 3 -238
11 0 6 3 8 7 5 3 -4 11 -3 17 2 6 5 29 11 51 14 42 4 95 26 64 27 -8 0 -20 -5
-26 -11 -6 -6 -13 -7 -17 -1 -4 7 -65 3 -101 -8 -5 -2 -21 1 -35 7 -18 8 -53
7 -125 -3 -55 -8 -122 -12 -150 -10 -27 3 -63 5 -80 6 -46 3 120 40 183 41 29
1 55 6 58 10 3 5 12 9 20 9 8 0 12 -4 9 -10 -8 -13 1 -12 48 1 34 9 37 13 38
47 1 23 3 29 6 15 8 -41 23 -24 22 25 0 42 -1 44 -11 22 -6 -15 -12 -20 -15
-12 -9 24 5 39 42 46 32 6 35 9 23 23 -12 15 -13 15 -16 0 -5 -26 -52 -22 -52
3 0 11 6 22 13 24 6 2 28 9 47 15 34 10 33 10 -12 5 -47 -5 -48 -5 -48 22 0
24 3 26 33 22 17 -3 41 -1 52 3 18 9 18 9 -3 5 -20 -4 -22 -1 -16 17 6 21 6
21 -13 5 -29 -26 -53 -23 -53 7 0 20 5 25 28 26 15 0 36 5 47 10 14 6 6 7 -27
3 -46 -5 -48 -4 -48 20 0 23 4 26 38 28 20 0 44 2 52 3 8 0 25 -3 37 -8 16 -7
26 -5 38 7 9 9 33 17 53 17 l37 2 -35 6 c-19 4 -37 4 -40 0 -3 -3 -32 -6 -65
-6 -33 -1 -68 -4 -77 -8 -25 -10 -38 2 -38 36 0 29 1 30 38 24 20 -3 30 -2 22
2 -16 8 -19 17 -22 58 -2 17 -8 25 -20 25 -23 0 -23 16 0 29 16 9 16 11 -3 25
-19 15 -18 15 18 16 21 0 46 -4 56 -9 10 -6 23 -6 32 0 10 6 7 9 -13 9 -23 0
-28 4 -28 25 0 20 5 25 24 25 35 0 56 -10 56 -26 0 -8 7 -14 15 -14 17 0 19 9
7 28 -6 9 -110 29 -165 32 -4 0 -1 16 7 35 9 20 13 42 10 50 -5 12 3 14 35 12
46 -2 48 -7 25 -42 -16 -25 -16 -25 20 -25 20 0 36 4 36 9 0 4 -12 7 -27 5
-16 -2 -20 -1 -11 2 10 3 15 11 11 20 -3 8 1 14 8 14 10 1 9 5 -3 14 -10 7
-18 22 -19 32 0 15 -2 14 -11 -6 -11 -27 -24 -11 -14 16 5 13 14 15 41 10 25
-5 35 -3 35 6 0 10 2 10 8 1 10 -16 92 -29 92 -14 0 6 -10 10 -21 8 -16 -1
-23 4 -25 21 -3 19 -1 22 21 16 22 -5 25 -3 25 19 0 14 6 28 13 30 10 4 10 6
0 6 -22 2 -14 31 7 31 11 0 20 -5 20 -11 0 -5 5 -7 10 -4 17 10 24 -25 10 -51
-8 -13 -10 -27 -7 -31 4 -3 7 -1 7 7 0 10 3 10 14 1 12 -10 14 -6 10 28 -3 23
-2 41 2 41 14 0 123 -33 172 -52 36 -14 52 -26 52 -38 0 -10 8 -21 18 -23 14
-4 14 -6 -5 -12 -27 -9 -28 -12 -8 -31 10 -10 15 -11 15 -4 0 8 8 10 21 7 15
-4 19 -2 15 10 -3 8 -6 21 -6 29 0 8 -9 14 -20 14 -11 0 -20 7 -20 15 0 13 7
15 38 9 34 -7 36 -6 23 9 -11 15 -11 17 2 17 8 0 17 -6 19 -12 3 -9 12 -8 32
5 26 17 72 15 61 -3 -2 -4 10 -15 28 -24 17 -8 26 -16 18 -16 -26 0 27 -41 56
-43 15 -1 28 -8 31 -15 3 -9 -3 -10 -22 -2 -28 10 -34 2 -14 -18 9 -9 7 -12
-10 -12 -15 0 -22 6 -22 20 0 11 -4 20 -8 20 -10 0 -9 -37 2 -47 13 -13 64
-10 59 4 -3 7 2 13 11 13 9 0 16 -8 16 -20 0 -11 5 -20 10 -20 6 0 10 7 10 15
0 23 28 18 54 -10 12 -13 35 -29 50 -35 15 -5 24 -14 21 -20 -3 -5 -2 -10 4
-10 6 0 8 -7 5 -15 -4 -9 0 -15 8 -15 10 0 15 14 17 43 1 23 7 47 12 52 7 7 8
4 3 -8 -3 -10 -3 -17 2 -16 17 4 84 -13 84 -22 0 -12 -5 -11 -45 5 -19 8 -37
11 -40 6 -3 -4 7 -11 22 -15 15 -3 23 -9 17 -13 -5 -4 -14 -17 -21 -29 -11
-19 -10 -22 7 -20 11 1 20 8 20 15 0 10 7 13 23 9 21 -6 21 -6 3 8 -19 15 -19
15 1 15 12 0 23 4 25 10 4 12 48 1 48 -11 0 -5 -11 -14 -25 -19 -31 -12 -32
-21 -2 -17 21 2 22 -1 22 -75 1 -85 6 -98 31 -77 16 13 16 12 5 -8 -11 -22
-51 -33 -51 -14 0 5 -12 12 -27 16 -21 5 -24 8 -12 16 11 7 9 9 -8 9 -13 0
-23 -4 -23 -9 0 -6 -15 -12 -32 -14 -26 -3 -24 -4 9 -4 23 1 46 -2 49 -6 4 -4
0 -7 -10 -7 -9 0 -19 -7 -22 -15 -4 -8 -17 -15 -31 -15 -13 0 -21 4 -18 10 3
6 -1 10 -9 10 -11 0 -15 7 -12 23 2 17 10 23 39 25 21 2 37 8 37 14 0 6 -10 8
-26 4 -18 -5 -32 -2 -45 10 -22 20 -30 15 -33 -20 -1 -21 -6 -26 -27 -26 -21
0 -28 -6 -32 -30 -5 -22 -12 -30 -29 -31 -44 -2 -94 -7 -192 -19 -68 -8 -106
-8 -122 -2 -15 8 -27 7 -40 -2 -25 -17 -154 -31 -154 -17 0 6 -6 8 -12 6 -57
-20 -229 -36 -245 -23 -7 6 -24 8 -38 6 -16 -4 -29 0 -34 10 -17 30 -20 -6 -5
-63 12 -44 13 -60 4 -65 -9 -6 -9 -9 -1 -15 7 -3 9 -15 6 -26 -7 -21 10 -27
18 -6 4 9 8 8 16 -3 8 -12 10 -11 10 5 -1 27 4 44 21 83 17 36 30 42 30 12 0
-11 7 -20 15 -20 8 0 15 6 15 14 0 17 72 28 82 12 5 -7 8 -4 8 8 0 15 3 16 14
7 11 -9 15 -9 19 1 4 9 6 8 6 -2 1 -12 10 -15 37 -12 26 3 35 1 30 -7 -4 -6
-33 -11 -64 -12 -73 -1 -163 -29 -172 -55 -12 -32 0 -55 24 -48 21 6 21 6 -2
-19 -28 -30 -72 -34 -72 -6 0 25 -30 25 -37 0 -3 -12 -11 -17 -19 -14 -9 3
-14 0 -12 -8 2 -7 -6 -15 -17 -17 -34 -7 -37 -19 -4 -14 27 4 31 2 26 -12 -4
-11 -3 -15 4 -11 13 9 38 -25 32 -43 -4 -10 1 -11 23 -6 16 4 86 8 155 8 100
0 126 3 122 14 -4 9 5 12 33 10 22 -2 83 1 137 5 96 9 97 9 98 35 1 26 1 25
10 -5 9 -30 13 -33 52 -34 l42 -1 -32 -11 c-18 -7 -38 -18 -45 -24 -9 -10 -8
-13 10 -13 12 0 22 4 22 9 0 15 39 20 70 8 23 -9 35 -9 50 1 11 7 20 8 20 3 0
-5 9 -7 20 -4 41 11 18 23 -43 23 l-64 0 -1 31 c0 23 6 34 29 48 29 18 29 18
9 36 -11 10 -20 25 -20 34 1 13 3 12 16 -4 14 -20 15 -19 20 2 6 22 6 22 27 2
11 -10 26 -19 31 -19 6 0 4 5 -4 10 -12 8 -11 10 8 10 12 0 21 -5 20 -12 -2
-10 16 -13 67 -11 39 1 62 -1 52 -4 -12 -3 -16 -11 -12 -23 4 -12 -2 -26 -15
-38 -25 -23 -17 -52 14 -53 94 -4 332 7 347 16 4 3 10 -1 12 -7 3 -7 6 2 6 20
1 17 5 32 9 32 5 0 7 -13 4 -30 -2 -16 -2 -30 1 -30 12 0 68 27 68 33 -4 36 0
39 39 35 45 -4 49 1 20 27 -24 21 -26 37 -5 29 8 -4 15 -2 15 4 0 7 12 7 35
-1 l35 -10 -36 -44 c-19 -23 -31 -43 -25 -43 6 0 11 6 11 13 0 8 3 9 8 1 4 -6
26 -15 50 -21 33 -9 42 -8 42 2 0 7 -6 16 -12 18 -7 3 6 6 29 6 23 1 45 -4 49
-11 4 -6 3 -8 -3 -5 -11 7 -28 -22 -18 -31 3 -3 55 -4 116 -3 77 2 109 -1 104
-8 -3 -6 -12 -11 -20 -11 -17 0 -25 -22 -25 -70 0 -31 4 -39 23 -44 34 -9 37
-8 37 19 0 23 3 25 50 25 37 0 50 -4 50 -15 0 -8 11 -25 25 -37 20 -19 26 -35
30 -93 7 -92 8 -100 30 -168 21 -67 43 -85 78 -62 22 14 26 14 50 -5 22 -18
32 -19 69 -11 65 15 138 15 183 1 35 -10 47 -9 79 4 47 20 66 20 66 2 0 -11
26 -14 133 -15 170 0 281 1 387 4 106 3 144 -3 130 -20 -6 -7 -8 -33 -5 -59 5
-41 4 -46 -15 -46 -11 0 -20 -4 -20 -10 0 -5 -11 -10 -24 -10 -13 0 -26 -7
-30 -15 -4 -13 7 -15 70 -15 71 0 76 1 71 20 -3 10 0 21 7 24 7 3 6 8 -4 15
-13 9 -12 11 4 11 12 0 16 5 12 15 -3 8 0 15 6 15 8 0 9 3 2 10 -5 5 -8 26 -6
45 4 30 8 35 38 41 18 3 39 4 46 1 7 -3 2 -6 -12 -7 l-25 -1 26 -14 c19 -10
26 -22 27 -47 0 -18 -5 -36 -11 -40 -9 -6 -9 -8 1 -8 7 0 12 -13 12 -31 0 -25
-3 -29 -19 -24 -12 3 -21 0 -25 -10 -10 -26 88 -21 116 7 14 14 23 18 26 10 2
-7 8 -10 13 -6 5 3 9 -2 9 -10 0 -9 9 -16 20 -16 17 0 20 8 23 68 l3 67 2 -67
2 -68 290 0 290 0 -2 282 -3 282 -32 8 c-26 7 -33 14 -33 33 0 27 8 34 44 37
22 2 26 7 26 35 0 20 -5 33 -12 33 -10 0 -10 2 -1 8 6 4 11 24 11 44 0 30 -4
38 -21 41 -21 4 -21 4 -1 6 19 1 20 7 20 81 -1 60 -5 83 -16 91 -12 9 -12 10
4 5 15 -5 17 -3 10 11 -9 22 -9 50 1 82 8 23 7 24 -39 19 -36 -4 -48 -2 -56
11 -6 11 -9 12 -10 3 0 -7 -4 -11 -9 -8 -14 9 -1 55 15 49 9 -3 14 1 14 11 0
10 -7 16 -16 14 -12 -2 -18 6 -21 25 -3 21 1 29 19 36 13 5 27 6 31 4 5 -3 4
4 -3 16 -6 12 -15 19 -21 16 -5 -4 -9 -1 -9 4 0 6 4 11 10 11 5 0 7 7 4 15 -4
9 3 16 22 21 18 5 29 3 32 -4 2 -7 8 -12 13 -12 4 0 6 7 3 15 -4 9 0 15 10 15
20 0 20 7 1 26 -16 16 -35 11 -35 -10 0 -9 -9 -12 -26 -8 -30 5 -44 -10 -44
-50 0 -15 -5 -30 -11 -34 -8 -4 -9 1 -4 17 5 13 9 50 10 82 2 32 8 64 14 70
14 14 14 50 0 64 -9 9 -6 10 10 6 12 -3 20 -12 19 -21 -2 -8 3 -17 10 -19 8
-3 11 3 10 18 -2 18 4 24 30 31 30 8 45 28 21 28 -11 0 -8 35 7 74 6 16 3 17
-24 12 -35 -8 -47 4 -38 38 4 16 15 25 36 29 31 7 42 27 15 27 -10 0 -15 10
-15 30 0 18 6 33 15 36 8 4 15 18 15 33 0 16 -3 21 -8 14 -9 -14 -74 -43 -97
-43 -23 0 -20 57 4 69 22 12 32 5 24 -17 -4 -9 -2 -13 4 -9 6 4 14 1 16 -5 3
-7 6 -1 6 15 1 19 8 31 26 39 31 14 32 25 3 34 -15 4 -26 1 -35 -12 -8 -11
-19 -18 -25 -16 -6 2 -19 -5 -29 -14 -18 -16 -18 -15 -9 17 6 19 10 35 10 36
0 2 15 3 33 3 23 0 28 3 17 10 -17 11 -14 14 24 27 39 12 50 39 12 29 -18 -4
-26 -2 -27 6 0 7 -4 3 -9 -9 -11 -26 -38 -30 -46 -8 -9 21 12 43 63 67 46 22
57 41 21 36 -14 -2 -23 2 -22 10 1 6 2 20 3 31 0 10 11 22 24 26 l22 8 -23 4
c-13 3 -31 -2 -40 -10 -16 -14 -61 -32 -72 -28 -3 0 -5 9 -5 19 0 13 -10 18
-47 20 -40 3 -49 0 -59 -19 -10 -20 -9 -21 7 -14 48 19 54 18 54 -9 0 -21 -7
-29 -30 -37 -16 -6 -30 -15 -30 -21 0 -5 -4 -7 -9 -4 -5 3 -7 15 -4 26 3 11 0
34 -7 50 l-12 30 -198 0 c-163 0 -201 -3 -214 -15 -8 -8 -17 -15 -21 -15 -3 0
-22 -12 -42 -27 l-36 -27 5 43 4 43 -61 -4 c-51 -3 -64 -7 -86 -31 -23 -25
-39 -71 -39 -114 0 -7 7 -13 15 -13 8 0 15 6 15 13 0 8 4 7 10 -3 9 -13 11
-13 20 0 9 13 10 13 11 0 1 -8 4 -2 8 14 3 17 10 29 15 27 5 -1 12 3 16 9 5 8
9 5 13 -9 3 -12 1 -24 -4 -27 -5 -3 -9 0 -9 7 0 7 -2 10 -5 7 -15 -15 10 -38
41 -38 l34 0 0 -110 0 -110 -75 0 c-58 0 -75 -3 -75 -14 0 -8 -9 -18 -20 -21
-11 -3 -20 -11 -20 -17 0 -5 7 -7 16 -4 10 4 15 0 13 -12 -1 -9 2 -25 6 -36 5
-12 3 -21 -6 -27 -11 -7 -11 -9 -1 -9 8 0 13 -10 12 -22 -4 -40 0 -49 13 -42
10 6 10 4 0 -7 -7 -7 -13 -32 -13 -56 0 -29 -5 -45 -17 -52 -16 -9 -16 -10 5
-11 13 0 22 -6 22 -15 0 -8 -7 -15 -16 -15 -12 0 -14 -4 -7 -12 14 -17 14 -78
1 -78 -7 0 -7 -4 0 -13 12 -14 4 -31 -18 -40 -10 -4 -8 -6 7 -6 20 -1 22 -5
19 -33 -3 -18 -5 -36 -5 -40 -1 -3 -9 -9 -18 -11 -14 -4 -12 -5 5 -6 34 -2 30
-39 -5 -44 l-28 -4 26 -2 c24 -1 26 -5 26 -41 0 -27 -4 -40 -16 -43 -14 -4
-14 -5 1 -6 13 -1 17 -10 16 -38 0 -21 -5 -44 -11 -50 -7 -10 8 -13 72 -13 44
0 81 -4 81 -9 0 -15 -30 -22 -50 -11 -29 15 -87 12 -94 -5 -3 -8 -12 -12 -21
-9 -8 3 -15 1 -15 -5 0 -6 3 -10 8 -10 25 4 31 -4 27 -38 -1 -21 -3 -44 -4
-50 -1 -9 -22 -12 -73 -11 -49 1 -65 4 -48 9 16 4 -2 7 -50 7 -41 0 -67 -2
-58 -6 10 -4 -11 -8 -45 -9 -52 -1 -65 2 -75 17 -9 15 -8 22 3 34 8 8 15 17
15 19 0 3 -37 4 -82 3 -94 -2 -109 0 -102 19 6 14 -19 16 -95 8 -31 -3 -40 -7
-30 -14 16 -10 17 -10 -42 -13 -25 -2 -52 -6 -58 -10 -7 -4 -18 -3 -25 3 -7 6
-28 11 -47 13 -34 2 -52 15 -43 30 8 12 44 9 42 -3 -2 -6 10 -13 26 -16 22 -3
27 -1 23 11 -3 8 2 16 13 19 13 3 17 0 13 -9 -3 -10 0 -12 10 -8 23 8 28 30
12 51 -18 23 -18 38 0 56 13 13 8 15 -40 16 -30 0 -55 -4 -55 -9 0 -5 -9 -8
-20 -7 -22 1 -22 21 1 23 56 4 62 7 25 13 -54 8 -57 28 -6 33 30 3 39 0 36 -9
-7 -16 -4 -16 26 0 17 8 47 11 92 7 38 -3 71 -1 76 4 7 7 10 6 10 -1 0 -13 94
-8 142 7 18 6 32 4 47 -6 12 -9 21 -11 21 -5 0 5 6 11 13 14 6 2 4 3 -6 1 -11
-1 -25 0 -33 3 -27 10 6 33 48 33 31 0 41 4 45 19 3 11 12 22 22 24 9 3 3 5
-12 6 -18 1 -27 6 -24 14 5 15 39 17 50 2 4 -5 5 10 3 34 -4 40 -17 60 -39 61
-5 0 -5 -4 -2 -10 3 -5 1 -10 -4 -10 -6 0 -11 4 -11 9 0 5 -12 8 -27 6 -16 -2
-28 -4 -28 -5 0 -1 -15 -3 -34 -5 -23 -2 -29 0 -20 6 20 13 -61 8 -83 -5 -25
-15 -22 -24 6 -19 21 4 24 2 19 -15 -6 -23 -41 -33 -90 -25 -28 5 -32 3 -27
-10 4 -12 11 -14 22 -8 10 4 23 6 29 4 24 -9 81 17 88 40 4 13 8 17 12 10 2
-7 9 -13 14 -13 6 0 7 5 4 10 -3 6 -2 10 4 10 5 0 12 -6 14 -12 4 -9 8 -9 14
-3 4 6 23 11 42 12 49 3 25 -16 -30 -23 -62 -8 -73 -24 -17 -24 55 0 78 -7 78
-25 0 -7 6 -16 13 -18 7 -3 5 -6 -5 -6 -10 -1 -18 5 -18 12 0 9 -25 12 -90 12
-50 0 -90 -3 -90 -7 0 -5 11 -8 25 -8 14 0 25 -5 25 -12 0 -9 3 -9 12 0 7 7
35 12 63 11 27 0 44 -3 37 -6 -6 -2 -9 -9 -6 -15 4 -6 -2 -5 -15 1 -14 8 -21
8 -21 1 0 -5 -9 -10 -21 -10 -11 0 -18 -4 -15 -9 6 -10 -16 -21 -42 -21 -13 0
-12 3 4 15 18 14 16 15 -21 13 -42 -2 -85 -28 -46 -28 11 0 23 -4 26 -10 8
-13 -21 -13 -46 0 -24 13 -25 30 -1 31 10 0 12 3 4 6 -6 2 -10 8 -8 12 7 11
-27 10 -41 -2 -9 -7 -13 -5 -13 6 0 10 11 17 33 20 31 4 31 4 -5 5 -29 2 -38
-2 -38 -14 0 -9 -10 -19 -22 -22 -20 -6 -19 -7 12 -13 l35 -6 -39 -2 c-29 -1
-37 -4 -32 -16 4 -12 -2 -14 -30 -10 -50 6 -74 15 -74 26 0 5 14 8 30 7 21 -2
35 4 46 20 8 12 21 22 28 22 21 0 40 27 24 33 -7 3 -3 6 10 6 32 1 29 31 -4
31 -14 0 -23 -4 -19 -9 3 -5 1 -12 -5 -16 -6 -4 -8 -11 -5 -16 8 -12 -21 -23
-42 -15 -14 6 -14 8 3 21 18 13 17 14 -14 15 -22 0 -31 4 -26 11 4 7 1 10 -7
7 -8 -3 -16 -13 -17 -23 -3 -12 0 -15 10 -10 9 5 8 3 -2 -8 -16 -16 -30 -20
-67 -18 -24 1 -32 26 -10 34 10 4 10 6 0 6 -21 2 -17 79 5 84 16 4 16 5 0 6
-21 1 -23 22 -5 40 10 10 9 11 -6 5 -12 -4 -16 -2 -12 8 3 8 23 20 43 26 l37
11 -46 -3 c-45 -3 -46 -3 -46 28 0 17 5 37 11 45 8 11 8 13 0 8 -8 -5 -12 14
-12 61 0 37 -3 91 -5 120 -3 28 -1 52 4 52 5 0 9 7 9 16 0 8 -4 12 -10 9 -16
-10 2 28 19 42 13 10 10 12 -21 13 -36 0 -37 -1 -41 -42 l-4 -43 -1 43 -2 42
-64 0 c-58 0 -64 -2 -70 -22 -5 -19 -8 -21 -16 -8 -8 13 -10 13 -10 -2 0 -9
-3 -19 -7 -21 -5 -3 -7 56 -5 131 2 76 1 174 -3 220 l-7 82 -38 0 c-32 0 -39
-4 -44 -26 -5 -20 -11 -24 -24 -18 -9 4 -33 8 -52 10 -19 1 -25 0 -12 -2 12
-3 22 -9 22 -14 0 -5 10 -11 23 -13 19 -4 19 -4 -5 -6 -14 0 -29 5 -32 12 -5
10 -7 10 -12 0 -8 -18 -35 -16 -28 1 4 11 -3 12 -38 4 -24 -6 -62 -11 -85 -12
-24 0 -43 -4 -43 -8 0 -5 -7 -8 -15 -8 -8 0 -12 6 -9 14 4 11 0 13 -18 9 -13
-4 -26 -11 -30 -17 -6 -8 -11 -7 -17 3 -5 8 -10 9 -12 3 -2 -6 -28 -14 -56
-18 l-53 -7 0 47 0 46 -105 0 -105 0 0 -45 c0 -25 -4 -45 -9 -45 -14 0 -32 26
-23 35 4 5 1 5 -6 1 -10 -6 -10 -11 -1 -22 9 -11 8 -14 -3 -14 -9 0 -15 9 -15
23 -1 12 -1 32 -2 44 l-1 22 -277 1 c-246 0 -275 -2 -258 -15 11 -8 27 -15 35
-15 8 0 24 -7 34 -15 11 -8 31 -15 45 -15 17 0 21 -3 14 -8 -20 -12 34 -86 55
-77 10 4 49 18 87 32 39 13 105 38 147 54 43 16 85 29 94 29 16 0 16 -2 -1
-20 -10 -11 -25 -20 -34 -20 -15 0 -205 -67 -263 -92 -52 -24 -24 -80 42 -82
8 -1 16 -10 19 -21 5 -29 31 -65 47 -65 19 0 18 -16 -2 -24 -18 -7 -57 21 -48
35 3 5 0 17 -6 26 -10 15 -11 15 -6 1 7 -23 -29 -30 -48 -9 -10 11 -12 21 -5
33 7 13 5 16 -8 13 -10 -2 -20 -4 -23 -5 -3 -1 -8 -2 -11 -2 -3 1 -6 -5 -6
-13 0 -8 3 -13 6 -11 3 2 12 -3 20 -11 12 -13 10 -14 -20 -9 -25 6 -30 5 -19
-3 11 -8 6 -9 -20 -5 -19 4 -42 14 -50 22 -13 14 -13 15 3 3 15 -12 17 -11 17
14 0 24 3 26 26 21 23 -6 24 -5 14 13 -7 15 -25 22 -62 27 -34 5 -46 9 -34 14
17 5 16 8 -8 38 -16 18 -33 29 -41 25 -24 -9 -17 -21 15 -28 28 -6 43 -25 20
-25 -18 0 -25 -2 -44 -12 -16 -8 -18 -7 -13 6 8 21 -2 46 -18 46 -7 0 -15 9
-18 21 -5 18 -2 20 17 17 19 -4 22 -1 19 16 -3 13 -1 17 4 10 26 -34 93 -25
93 13 0 20 -4 24 -22 21 -13 -2 -29 4 -36 12 -10 13 -11 13 -6 -3 5 -13 1 -17
-17 -15 -31 4 -40 17 -28 40 7 14 6 18 -6 18 -9 0 -14 -4 -10 -9 3 -5 1 -12
-5 -16 -6 -3 -13 1 -16 9 -5 12 -10 13 -25 5 -15 -7 -18 -16 -13 -37 4 -15 3
-24 -1 -20 -10 10 -38 -19 -30 -32 3 -5 2 -10 -3 -10 -6 0 -13 7 -16 16 -3 8
-10 13 -15 9 -5 -3 -13 0 -16 6 -4 5 -13 8 -21 5 -10 -4 -14 2 -14 19 0 30 15
32 32 5 7 -11 21 -20 31 -20 11 0 15 5 11 11 -3 6 -1 15 6 19 11 7 10 11 -2
24 -13 13 -55 15 -274 15 -254 1 -259 0 -237 -18 12 -10 19 -21 16 -25 -4 -3
-1 -6 5 -6 6 0 13 -9 17 -19 3 -11 15 -23 26 -26 16 -5 18 -10 9 -20 -7 -8 -9
-19 -5 -25 3 -5 1 -10 -4 -10 -6 0 -11 7 -11 15 0 8 -7 15 -15 15 -8 0 -15 4
-15 9 0 5 10 7 23 3 18 -4 15 0 -13 24 -19 16 -36 32 -38 37 -2 4 -13 7 -24 7
-11 0 -22 8 -25 20 -5 17 -15 19 -124 19 -97 0 -119 -2 -119 -14 0 -9 6 -12
15 -9 8 4 15 1 15 -6 0 -6 4 -9 8 -6 5 3 9 -1 9 -9 0 -8 -4 -12 -9 -9 -5 4
-15 -2 -22 -12 -13 -16 -14 -16 -32 4 -18 22 -41 31 -29 12 3 -5 1 -10 -6 -10
-7 0 -9 10 -7 24 3 16 0 27 -9 30 -8 4 -71 6 -139 6 l-124 0 0 -1085z m490
1061 c0 -7 7 -19 15 -26 17 -14 21 0 4 17 -9 9 -7 10 10 6 11 -3 21 -9 21 -14
0 -5 7 -9 15 -9 8 0 15 -5 15 -10 0 -7 -6 -7 -19 0 -11 5 -22 6 -25 2 -3 -5
19 -19 49 -32 30 -13 52 -27 49 -31 -3 -5 -17 -3 -32 4 -39 17 -138 87 -123
87 7 0 9 5 6 10 -3 6 -1 10 4 10 6 0 11 -6 11 -14z m484 -12 c3 -8 2 -12 -4
-9 -6 3 -10 10 -10 16 0 14 7 11 14 -7z m2956 -19 c0 -19 -4 -35 -10 -35 -11
0 -13 30 -4 54 10 25 14 19 14 -19z m-1964 10 c16 -13 17 -16 4 -25 -22 -14
-37 -12 -44 6 -12 32 9 43 40 19z m1931 -47 c-2 -13 -4 -5 -4 17 -1 22 1 32 4
23 2 -10 2 -28 0 -40z m-2658 -2 c-6 -6 -13 -6 -21 2 -8 8 -8 15 2 28 13 15
15 14 21 -3 4 -10 3 -22 -2 -27z m3419 18 c3 -20 -20 -42 -60 -57 -15 -5 -16
-1 -11 26 10 54 64 78 71 31z m-4210 -9 c-3 -3 -9 2 -12 12 -6 14 -5 15 5 6 7
-7 10 -15 7 -18z m3370 -14 c-15 -13 -24 -15 -27 -8 -2 6 1 13 8 15 7 2 17 10
24 17 7 7 14 9 15 4 2 -5 -7 -18 -20 -28z m-3558 25 c0 -2 -7 -7 -16 -10 -8
-3 -12 -2 -9 4 6 10 25 14 25 6z m130 -6 c0 -5 6 -10 14 -10 8 0 17 -4 20 -9
7 -10 -20 -9 -30 2 -4 4 -16 7 -26 7 -11 0 -16 5 -13 10 3 6 13 10 21 10 8 0
14 -4 14 -10z m605 0 c3 -5 1 -10 -4 -10 -6 0 -11 5 -11 10 0 6 2 10 4 10 3 0
8 -4 11 -10z m-80 -31 c0 -17 9 -28 35 -40 25 -12 37 -14 42 -5 6 8 8 8 8 -1
0 -19 -19 -26 -35 -13 -8 7 -21 10 -29 7 -9 -3 -16 2 -19 15 -3 11 -10 17 -16
13 -15 -9 -14 8 1 23 10 10 10 15 -2 23 -13 9 -13 10 0 6 8 -2 15 -15 15 -28z
m-95 -9 c0 -5 -9 -6 -19 -3 -13 3 -21 -1 -24 -14 -4 -16 -5 -16 -6 3 -1 28 19
47 36 33 7 -7 13 -15 13 -19z m3750 5 c0 -14 -4 -25 -10 -25 -5 0 -10 11 -10
25 0 14 5 25 10 25 6 0 10 -11 10 -25z m-2693 9 c19 -5 21 -10 12 -25 -13 -25
-22 -24 -36 6 -12 27 -10 28 24 19z m251 -31 c-4 -52 -28 -56 -28 -4 0 30 4
41 16 41 11 0 14 -9 12 -37z m33 15 c1 -13 1 -31 0 -40 -1 -10 2 -26 8 -35 11
-19 12 -18 14 42 2 31 6 40 20 39 9 -1 17 2 17 7 0 5 10 9 21 9 18 0 19 -2 9
-15 -7 -8 -19 -15 -26 -15 -8 0 -14 -7 -14 -17 0 -9 3 -13 6 -10 10 9 46 -12
39 -24 -4 -5 -2 -9 4 -9 5 0 13 5 16 10 10 16 27 11 23 -7 -5 -24 -78 -26 -78
-1 0 10 -4 18 -8 18 -4 0 -6 -16 -4 -35 3 -27 1 -35 -12 -35 -9 0 -16 6 -17
13 0 10 -2 10 -6 0 -2 -7 -11 -13 -19 -13 -11 0 -14 16 -14 70 0 40 4 70 10
70 6 0 11 -10 11 -22z m139 18 c0 -3 -4 -8 -10 -11 -5 -3 -10 -1 -10 4 0 6 5
11 10 11 6 0 10 -2 10 -4z m77 -2 c-3 -3 -12 -4 -19 -1 -8 3 -5 6 6 6 11 1 17
-2 13 -5z m2154 -7 c-6 -8 -8 -17 -4 -20 3 -4 0 -7 -9 -7 -26 0 -29 14 -6 27
30 16 33 16 19 0z m-3054 -3 c-3 -3 -12 -4 -19 -1 -8 3 -5 6 6 6 11 1 17 -2
13 -5z m860 -10 c-3 -3 -12 -4 -19 -1 -8 3 -5 6 6 6 11 1 17 -2 13 -5z m-677
-14 c0 -5 -2 -10 -4 -10 -3 0 -8 5 -11 10 -3 6 -1 10 4 10 6 0 11 -4 11 -10z
m140 -2 c0 -4 -2 -8 -4 -8 -2 0 -11 -2 -19 -5 -7 -3 -14 0 -14 7 0 8 9 14 19
14 10 0 18 -4 18 -8z m-1420 -7 c0 -5 3 -17 7 -27 4 -11 3 -15 -4 -11 -6 4
-14 1 -17 -5 -3 -7 -3 -1 0 14 4 20 1 27 -13 31 -15 4 -14 5 5 6 12 0 22 -3
22 -8z m301 -22 c10 -6 8 -9 -8 -9 -17 0 -23 6 -23 23 0 16 3 18 9 8 5 -7 15
-17 22 -22z m49 11 c0 -5 -4 -10 -10 -10 -5 0 -10 5 -10 10 0 6 5 10 10 10 6
0 10 -4 10 -10z m295 0 c3 -5 1 -10 -4 -10 -6 0 -11 5 -11 10 0 6 2 10 4 10 3
0 8 -4 11 -10z m3570 -12 c-8 -28 -13 -56 -14 -84 -1 -12 -8 -24 -16 -28 -12
-4 -15 3 -13 39 0 25 -2 48 -5 52 -4 3 -6 -31 -6 -75 1 -51 5 -85 12 -89 7 -3
9 -3 5 2 -9 9 9 35 24 35 5 0 7 -12 5 -27 -3 -16 -10 -27 -16 -25 -7 1 -22 -4
-34 -13 -24 -17 -57 -20 -57 -5 0 6 -83 10 -230 10 l-230 0 0 110 0 111 276
-1 c152 -1 279 1 282 4 13 14 24 4 17 -16z m-3395 -13 c0 -22 -3 -24 -19 -15
-11 5 -23 15 -27 22 -4 7 -3 8 4 4 7 -4 12 -2 12 3 0 6 7 11 15 11 9 0 15 -9
15 -25z m-536 -17 c-3 -4 2 -8 11 -8 9 0 14 -4 11 -9 -3 -5 0 -11 8 -14 7 -3
12 -17 12 -31 -2 -38 -13 -41 -21 -7 -4 17 -11 31 -16 31 -5 0 -11 11 -15 25
-3 14 -10 25 -15 25 -5 0 -9 5 -9 10 0 6 8 5 19 -2 11 -7 17 -16 15 -20z m574
-3 c-2 -37 -12 -45 -22 -19 -11 28 -6 54 9 54 12 0 15 -9 13 -35z m300 14 c19
-30 8 -34 -12 -4 -9 14 -13 25 -9 25 5 0 14 -9 21 -21z m800 3 c2 -7 -3 -12
-12 -12 -9 0 -16 7 -16 16 0 17 22 14 28 -4z m-1572 -27 c3 -12 5 -29 4 -36
-5 -31 1 -47 25 -73 15 -16 19 -26 11 -26 -8 0 -17 7 -20 16 -3 8 -11 12 -17
8 -8 -4 -9 -3 -5 4 4 7 4 12 -1 12 -4 0 -13 11 -19 25 -10 20 -9 25 4 27 14 3
13 5 -2 20 -9 10 -14 22 -11 28 3 5 1 10 -4 10 -6 0 -11 4 -11 9 0 19 40 -2
46 -24z m302 6 c3 -10 0 -12 -12 -8 -9 4 -23 10 -32 14 -14 5 -14 2 2 -23 16
-26 17 -27 1 -15 -9 7 -30 11 -46 9 -20 -3 -32 1 -40 13 -9 16 -6 18 32 22 66
6 90 3 95 -12z m608 -14 c1 -13 -3 -24 -10 -24 -8 0 -11 11 -8 29 5 33 14 30
18 -5z m448 18 c5 -15 -12 -115 -20 -115 -2 0 -4 29 -4 65 0 61 11 84 24 50z
m253 -1 c-3 -3 -12 -4 -19 -1 -8 3 -5 6 6 6 11 1 17 -2 13 -5z m-1077 -23 c0
-6 -4 -13 -10 -16 -5 -3 -10 1 -10 9 0 9 5 16 10 16 6 0 10 -4 10 -9z m580 -1
c0 -6 11 -8 25 -4 14 3 25 2 25 -4 0 -5 -46 -24 -102 -42 -102 -33 -103 -33
-73 -46 28 -12 25 -13 -42 -11 -40 1 -73 5 -73 8 0 7 56 28 130 50 25 7 47 14
50 15 3 1 15 5 28 9 14 5 21 13 18 21 -3 8 -1 14 4 14 6 0 10 -5 10 -10z m417
3 c-10 -9 -77 -11 -77 -1 0 4 19 8 42 8 23 0 38 -3 35 -7z m40 1 c-3 -3 -12
-4 -19 -1 -8 3 -5 6 6 6 11 1 17 -2 13 -5z m80 0 c-3 -3 -12 -4 -19 -1 -8 3
-5 6 6 6 11 1 17 -2 13 -5z m-1493 -10 c17 -7 22 -34 6 -34 -5 0 -14 9 -20 20
-12 22 -10 23 14 14z m-348 -64 c1 -16 -3 -27 -7 -24 -14 8 -9 54 5 54 1 0 1
-13 2 -30z m1304 -22 c0 -21 -5 -38 -11 -38 -6 0 -8 7 -5 16 6 15 4 15 -11 3
-11 -9 -14 -10 -9 -1 4 7 2 12 -6 13 -10 0 -10 2 0 6 6 2 12 13 12 22 0 10 7
18 15 18 11 0 15 -11 15 -39z m-720 22 c0 -5 -2 -10 -4 -10 -3 0 -8 5 -11 10
-3 6 -1 10 4 10 6 0 11 -4 11 -10z m1090 -5 c0 -8 -4 -15 -10 -15 -5 0 -7 7
-4 15 4 8 8 15 10 15 2 0 4 -7 4 -15z m-709 -38 c-10 -9 -11 -8 -5 6 3 10 9
15 12 12 3 -3 0 -11 -7 -18z m-675 -7 c0 -13 -5 -19 -14 -15 -7 3 -16 5 -20 5
-3 0 3 7 14 15 10 8 19 15 19 15 1 0 1 -9 1 -20z m647 13 c-7 -2 -19 -2 -25 0
-7 3 -2 5 12 5 14 0 19 -2 13 -5z m-163 -23 c0 -5 7 -10 15 -10 9 0 12 -6 9
-15 -4 -9 0 -15 9 -15 9 0 19 -5 22 -11 13 -20 -4 -22 -40 -4 -20 9 -39 14
-42 11 -4 -3 8 -11 25 -17 18 -6 32 -15 32 -21 0 -6 7 -8 14 -5 10 4 13 1 9
-8 -3 -8 2 -17 10 -21 9 -3 13 -12 10 -20 -3 -7 3 -21 12 -31 13 -12 14 -18 5
-21 -7 -3 -23 8 -36 23 -18 22 -34 29 -65 30 -24 1 -47 9 -57 20 -9 10 -12 15
-6 12 6 -3 21 -8 35 -11 13 -2 31 -7 39 -10 11 -5 16 0 18 18 1 20 -6 27 -41
41 -35 13 -43 21 -45 43 -1 24 0 25 12 10 22 -29 43 -20 37 15 0 4 4 7 9 7 6
0 10 -4 10 -10z m-109 -76 c-32 -14 -38 -10 -18 10 9 9 13 25 10 38 -4 19 -2
18 14 -7 l20 -30 -26 -11z m339 56 c0 -5 -4 -10 -10 -10 -5 0 -10 5 -10 10 0
6 5 10 10 10 6 0 10 -4 10 -10z m401 -6 c-49 -21 -142 -47 -148 -41 -2 3 22
13 54 23 32 10 62 21 68 26 5 4 20 8 35 8 23 -1 23 -2 -9 -16z m-996 -4 c3 -6
-1 -7 -9 -4 -18 7 -21 14 -7 14 6 0 13 -4 16 -10z m225 0 c8 -5 13 -10 10 -11
-33 -6 -47 -4 -43 8 6 15 13 16 33 3z m260 -6 l25 -15 -25 6 c-14 4 -30 7 -37
7 -7 1 -10 5 -7 10 7 11 15 10 44 -8z m160 -5 c0 -6 -4 -7 -10 -4 -5 3 -10 11
-10 16 0 6 5 7 10 4 6 -3 10 -11 10 -16z m659 11 c-15 -8 -103 -13 -204 -11
-42 1 -56 4 -45 11 8 5 71 9 139 9 69 -1 118 -5 110 -9z m161 0 c-14 -4 -32
-8 -40 -9 -13 -1 -13 0 0 9 8 5 26 9 40 9 l25 -1 -25 -8z m185 0 c3 -6 -4 -10
-17 -10 -18 0 -20 2 -8 10 19 12 18 12 25 0z m-1761 -15 c3 -8 1 -15 -3 -15
-5 0 -11 7 -15 15 -3 8 -1 15 3 15 5 0 11 -7 15 -15z m166 -10 c13 -14 19 -25
13 -25 -5 0 -20 11 -33 25 -13 14 -19 25 -13 25 5 0 20 -11 33 -25z m3542 18
c-10 -4 -10 -9 3 -23 14 -15 14 -18 0 -30 -13 -10 -15 -9 -15 8 0 11 -3 27 -6
36 -4 11 -1 16 12 15 12 0 14 -3 6 -6z m98 -1 c0 -4 -6 -14 -12 -20 -10 -10
-10 -15 1 -21 11 -7 9 -11 -7 -20 -36 -19 -51 -14 -46 16 5 27 29 52 52 53 6
0 12 -4 12 -8z m-3096 -17 c3 -8 1 -15 -4 -15 -6 0 -10 7 -10 15 0 8 2 15 4
15 2 0 6 -7 10 -15z m463 -1 c-3 -3 -12 -4 -19 -1 -8 3 -5 6 6 6 11 1 17 -2
13 -5z m2503 -21 c0 -18 -7 -25 -32 -30 -26 -5 -29 -8 -13 -13 11 -4 31 -2 46
3 20 8 31 6 50 -6 26 -19 14 -22 -25 -7 -17 6 -26 6 -26 0 0 -6 9 -10 20 -10
11 0 20 -4 20 -10 0 -5 -4 -10 -10 -10 -5 0 -10 -4 -10 -10 0 -6 9 -6 25 0 26
10 31 4 16 -18 -13 -21 -44 -10 -51 18 -5 20 -7 22 -12 8 -4 -9 -19 -19 -35
-22 -21 -5 -28 -12 -28 -31 0 -22 1 -23 18 -7 15 14 20 14 27 2 5 -8 5 -22 -1
-32 -8 -15 -6 -18 11 -18 11 0 20 -2 20 -4 0 -2 3 -11 6 -19 6 -16 -11 -18
-33 -4 -6 4 -18 4 -27 1 -14 -6 -21 9 -18 37 1 4 -12 12 -28 19 -27 11 -30 17
-30 61 0 43 3 49 24 55 15 3 23 11 20 19 -10 25 13 52 45 52 26 0 31 -4 31
-24z m-2730 3 c0 -11 -59 -33 -71 -25 -9 5 -2 11 22 17 41 12 49 13 49 8z
m2047 -12 c-3 -3 -12 -4 -19 -1 -8 3 -5 6 6 6 11 1 17 -2 13 -5z m-2614 -44
c3 -11 12 -22 21 -25 9 -3 23 -7 31 -10 8 -2 12 -11 9 -19 -3 -9 -13 -12 -22
-9 -22 8 -72 65 -66 75 9 14 22 9 27 -12z m812 11 c-12 -11 -134 -61 -148 -61
-20 0 5 14 71 41 73 29 91 34 77 20z m802 -178 c-2 -37 -3 -9 -3 62 0 72 1
102 3 68 2 -34 2 -93 0 -130z m-1150 155 c-3 -8 -6 -5 -6 6 -1 11 2 17 5 13 3
-3 4 -12 1 -19z m-201 -13 c21 -23 22 -30 0 -26 -5 1 -6 -4 -3 -11 3 -9 -3
-13 -19 -13 -28 2 -46 15 -19 15 14 0 15 3 6 14 -10 12 -6 46 6 46 3 0 16 -11
29 -25z m159 4 c-3 -4 -12 -6 -20 -3 -8 4 -13 10 -10 15 3 4 12 6 20 3 8 -4
13 -10 10 -15z m218 0 c7 0 3 -4 -8 -8 -22 -9 -35 -5 -35 11 0 5 7 7 16 4 9
-3 21 -6 27 -7z m-545 -24 c-3 -3 -9 2 -12 12 -6 14 -5 15 5 6 7 -7 10 -15 7
-18z m-878 -26 c4 -17 13 -24 29 -24 12 0 29 -9 37 -19 8 -11 14 -15 14 -9 0
6 9 9 20 6 11 -3 17 -9 14 -14 -3 -5 -9 -7 -13 -5 -4 3 -7 -5 -7 -17 1 -15 9
-24 26 -29 14 -4 4 -5 -22 -2 -43 5 -48 3 -48 -15 0 -11 7 -24 15 -28 8 -5 11
-13 6 -21 -12 -20 -36 15 -36 54 0 26 5 34 23 39 20 5 22 8 12 20 -7 8 -21 15
-31 15 -9 0 -24 6 -31 13 -24 24 -48 17 -48 -15 0 -28 -22 -39 -35 -18 -3 6
-1 10 4 10 6 0 11 5 11 11 0 5 -4 7 -10 4 -5 -3 -10 -2 -10 3 0 6 8 13 17 16
12 5 13 10 5 18 -8 8 -8 15 1 28 14 24 50 11 57 -21z m3446 28 c14 -14 -11
-27 -51 -27 -41 0 -64 17 -47 35 8 8 90 1 98 -8z m-3282 -20 c-5 -15 35 -37
66 -37 16 0 20 -7 20 -31 0 -26 -3 -31 -20 -26 -15 4 -20 0 -20 -16 0 -11 -3
-17 -6 -14 -4 4 -15 -2 -24 -13 -14 -16 -19 -17 -23 -6 -3 7 -1 18 5 24 7 7 3
12 -11 17 -16 5 -21 14 -20 38 1 18 3 24 6 15 4 -15 63 -45 63 -32 0 10 -29
35 -36 32 -9 -4 -24 49 -16 56 10 11 21 6 16 -7z m941 3 c3 -6 -1 -7 -9 -4
-18 7 -21 14 -7 14 6 0 13 -4 16 -10z m-1241 -15 c-4 -8 -8 -15 -10 -15 -2 0
-4 7 -4 15 0 8 4 15 10 15 5 0 7 -7 4 -15z m1151 -25 c13 -21 -7 -31 -26 -14
-26 24 -26 48 0 34 11 -5 23 -15 26 -20z m3200 -10 c3 -32 -7 -38 -70 -43 -27
-2 -30 1 -30 28 0 27 4 31 45 41 25 6 47 9 49 8 2 -2 5 -17 6 -34z m-762 14
c-3 -8 -12 -13 -20 -10 -8 3 -20 7 -26 7 -7 1 2 5 18 9 17 4 31 8 32 9 1 0 0
-6 -4 -15z m34 -6 c-3 -8 -6 -5 -6 6 -1 11 2 17 5 13 3 -3 4 -12 1 -19z
m-2387 -3 c-11 -13 -9 -21 10 -48 14 -19 17 -26 7 -18 -22 18 -33 8 -13 -11
11 -11 12 -18 3 -27 -8 -8 -6 -15 9 -27 10 -8 13 -13 7 -9 -16 8 -17 -7 -1
-23 7 -7 8 -12 2 -12 -20 0 -39 36 -37 69 2 20 -2 38 -9 43 -10 6 -10 10 2 17
16 11 15 13 -15 29 -19 11 -19 11 3 12 12 0 22 5 22 10 0 6 5 10 11 10 8 0 7
-5 -1 -15z m-1215 -35 c3 -5 2 -10 -4 -10 -5 0 -13 5 -16 10 -3 6 -2 10 4 10
5 0 13 -4 16 -10z m3605 -5 c0 -17 -21 -20 -107 -15 l-38 2 30 13 c42 20 115
19 115 0z m-2020 -4 c0 -11 -39 -21 -45 -11 -2 4 -2 10 2 14 10 9 43 7 43 -3z
m98 2 c17 8 25 8 30 0 4 -6 16 -13 27 -16 12 -3 4 -6 -20 -7 -22 -1 -32 -4
-22 -7 9 -2 17 -10 17 -16 0 -8 4 -7 12 1 19 19 28 14 28 -13 0 -23 -3 -25
-47 -25 -38 1 -44 3 -30 11 9 5 17 15 17 20 0 6 -4 8 -9 5 -5 -3 -11 1 -15 9
-3 8 -16 14 -28 14 -17 -1 -18 -2 -5 -6 21 -6 23 -23 1 -23 -8 0 -12 -5 -9
-10 4 -6 11 -8 16 -5 5 4 10 -19 10 -52 1 -32 4 -45 6 -29 3 17 12 30 24 33
10 3 19 9 19 14 0 5 11 9 25 9 22 0 25 -4 25 -34 0 -44 -9 -66 -26 -66 -8 0
-14 -4 -14 -9 0 -5 9 -7 19 -4 18 5 19 -2 20 -116 1 -92 -2 -121 -11 -121 -9
0 -10 -3 -2 -8 19 -12 23 -75 6 -94 -9 -11 -11 -18 -4 -18 7 0 12 -4 12 -10 0
-13 -107 -13 -115 1 -10 15 -3 19 44 21 38 1 72 18 37 18 -10 0 -13 6 -9 17 4
10 2 14 -4 10 -6 -4 -20 2 -32 12 -14 12 -18 22 -11 26 5 3 10 12 9 18 0 9 -2
9 -6 0 -2 -7 -11 -13 -19 -13 -7 0 -11 -6 -8 -14 4 -11 -1 -13 -28 -7 -19 5
-49 6 -68 3 -23 -3 -31 -1 -26 7 4 6 0 11 -11 12 -11 0 -13 3 -5 6 7 3 18 0
25 -5 8 -7 16 -6 25 4 11 12 8 14 -15 15 l-28 1 30 8 c17 4 24 8 17 9 -7 0
-11 5 -8 9 2 4 -10 14 -27 22 l-32 14 30 7 c17 4 22 7 13 8 -11 1 -16 8 -13
21 2 11 0 22 -5 25 -5 3 -5 18 -1 33 5 15 7 35 5 45 -1 9 4 17 12 17 9 0 14
12 13 38 -1 48 8 84 22 93 8 5 7 8 -2 12 -10 4 -8 6 4 6 16 1 18 -6 16 -41 -1
-24 -7 -49 -12 -55 -6 -9 -5 -13 3 -13 8 0 9 -10 5 -31 -5 -23 -4 -30 6 -27 9
3 12 28 12 86 -1 45 3 85 8 88 5 3 6 11 2 17 -22 35 -5 61 31 47 12 -4 31 -3
44 3z m177 -4 c4 -6 12 -8 19 -6 6 2 20 1 31 -4 15 -6 9 -8 -23 -8 -26 -1 -41
3 -37 9 3 6 1 10 -4 10 -6 0 -11 -4 -11 -10 0 -5 -15 -9 -32 -9 -24 1 -27 3
-10 6 12 2 22 9 22 14 0 13 37 11 45 -2z m-490 -28 c-6 -5 -25 10 -25 20 0 5
6 4 14 -3 8 -7 12 -15 11 -17z m-728 13 c-3 -3 -12 -4 -19 -1 -8 3 -5 6 6 6
11 1 17 -2 13 -5z m63 -16 c0 -4 -7 -8 -15 -8 -8 0 -15 4 -15 8 0 5 7 9 15 9
8 0 15 -4 15 -9z m880 2 c0 -5 -10 -10 -22 -9 -22 0 -22 1 -3 9 11 5 21 9 23
9 1 1 2 -3 2 -9z m230 -10 c0 -5 7 -10 15 -10 8 0 15 -7 15 -15 0 -8 -6 -15
-12 -15 -10 0 -9 -3 1 -9 11 -7 10 -11 -5 -20 -20 -11 -22 -11 33 -15 23 -1
28 21 6 27 -11 3 -8 5 10 6 16 0 37 -4 47 -9 27 -15 14 -40 -21 -40 -39 0 -37
-13 4 -29 19 -8 34 -19 34 -27 0 -9 -5 -10 -18 -3 -15 7 -17 6 -13 -6 4 -8 13
-15 20 -15 11 0 12 -4 5 -19 -6 -10 -7 -21 -4 -25 3 -3 -2 -6 -11 -6 -15 0
-15 -3 5 -20 20 -16 21 -19 7 -20 -10 0 -18 -4 -18 -10 0 -5 7 -7 16 -3 13 5
15 1 10 -23 -3 -16 -8 -50 -10 -76 -3 -26 -7 -52 -11 -58 -3 -5 -1 -10 4 -10
6 0 11 -5 11 -11 0 -5 -6 -7 -12 -3 -10 6 -10 4 0 -7 18 -20 15 -29 -13 -29
-17 0 -25 6 -25 17 0 15 -1 15 -13 -1 -11 -15 -18 -17 -33 -8 -17 10 -17 11
-1 12 23 0 22 15 -2 17 -13 1 -20 -6 -24 -23 -4 -22 -1 -24 40 -24 25 0 42 -4
38 -9 -3 -5 -20 -7 -39 -4 -19 3 -36 1 -40 -6 -4 -6 -12 -11 -19 -11 -8 0 -8
3 1 12 7 7 8 16 2 22 -5 6 -11 36 -14 66 -2 30 -6 55 -6 55 -1 0 -3 60 -5 133
-1 72 2 132 6 132 5 0 4 11 -1 25 -7 18 -5 28 6 40 13 13 13 15 1 15 -10 0
-13 8 -9 25 3 16 11 25 23 25 11 0 19 -4 19 -10z m106 -8 c1 -7 0 -8 -3 -2 -7
16 -23 12 -17 -4 3 -8 13 -17 22 -19 10 -3 5 -5 -10 -6 -15 0 -30 4 -33 9 -4
6 -11 8 -16 5 -5 -4 -9 -1 -9 4 0 6 7 11 15 11 8 0 15 5 15 11 0 15 33 7 36
-9z m1640 -9 c-10 -10 -19 5 -10 18 6 11 8 11 12 0 2 -7 1 -15 -2 -18z m41 5
c-3 -8 -6 -5 -6 6 -1 11 2 17 5 13 3 -3 4 -12 1 -19z m553 -4 c0 -2 -7 -4 -15
-4 -8 0 -15 4 -15 10 0 5 7 7 15 4 8 -4 15 -8 15 -10z m83 10 c8 -9 -11 -44
-24 -44 -6 0 -7 6 -3 13 5 9 4 9 -6 0 -7 -6 -13 -22 -14 -34 -1 -16 -9 -25
-29 -30 -34 -9 -45 10 -29 47 12 25 32 33 32 13 0 -7 12 0 26 15 28 27 36 31
47 20z m-2843 -14 c0 -5 -5 -10 -11 -10 -5 0 -7 5 -4 10 3 6 8 10 11 10 2 0 4
-4 4 -10z m2210 -24 c0 -21 -126 -21 -134 -1 -4 12 7 15 64 15 54 0 70 -3 70
-14z m-2312 -38 c20 -20 14 -54 -13 -66 -16 -8 -23 -17 -19 -27 4 -10 2 -13
-8 -10 -18 7 -17 77 1 99 16 19 23 20 39 4z m2281 -13 c3 -15 -2 -17 -29 -11
-18 3 -48 6 -66 6 -25 0 -32 4 -28 15 9 23 118 14 123 -10z m-3472 -37 c-2
-13 -4 -5 -4 17 -1 22 1 32 4 23 2 -10 2 -28 0 -40z m993 0 c0 -4 -7 -8 -15
-8 -8 0 -15 4 -15 8 0 5 7 9 15 9 8 0 15 -4 15 -9z m2508 -5 c3 -12 -1 -14
-30 -17 -6 -1 -12 6 -13 15 -3 19 36 21 43 2z m586 8 c11 -17 -5 -39 -31 -46
-29 -7 -44 2 -24 14 9 6 10 11 2 15 -6 4 -9 12 -6 17 8 12 52 12 59 0z m-3049
-11 c14 -5 23 -14 20 -20 -3 -5 -1 -10 4 -10 20 0 11 -16 -10 -17 -14 -1 -19
3 -15 13 3 8 1 14 -4 14 -6 0 -10 -4 -10 -10 0 -5 -4 -10 -9 -10 -5 0 -8 11
-8 25 0 29 -2 28 32 15z m355 -31 c0 -13 -7 -19 -24 -19 -30 0 -38 19 -18 42
18 21 42 7 42 -23z m2080 -9 c0 -6 -13 -10 -30 -10 -39 0 -39 14 0 17 17 1 30
-2 30 -7z m628 -37 c-3 -24 -8 -28 -33 -28 -37 0 -40 24 -5 42 36 18 42 16 38
-14z m-1751 -37 c-4 -9 -14 -15 -24 -15 -16 1 -16 2 -1 6 13 3 16 12 12 36 -4
29 -3 30 7 10 6 -12 9 -29 6 -37z m-1067 33 c0 -5 4 -8 9 -4 6 3 8 -16 6 -45
-2 -30 0 -48 6 -45 5 4 9 -1 9 -9 0 -10 -6 -13 -17 -10 -15 5 -15 4 -4 -4 17
-12 25 -52 11 -52 -6 0 -10 7 -10 15 0 8 -7 15 -15 15 -18 0 -19 23 -4 52 6
11 7 23 3 27 -11 7 -12 71 -2 71 5 0 8 -5 8 -11z m2124 -10 c29 -7 29 -7 -11
-8 -33 -1 -43 3 -43 15 0 9 5 12 12 8 6 -4 25 -11 42 -15z m96 7 c0 -21 -18
-30 -34 -17 -7 6 -17 7 -21 3 -5 -4 -5 -2 -2 5 4 6 1 14 -5 16 -7 3 4 6 25 6
26 1 37 -3 37 -13z m-1239 -39 c-10 -9 -11 -8 -5 6 3 10 9 15 12 12 3 -3 0
-11 -7 -18z m1209 -14 c0 -8 -13 -13 -35 -13 -19 0 -35 4 -35 9 0 5 -8 12 -17
14 -10 3 6 5 35 4 36 0 52 -5 52 -14z m17 -5 c-3 -8 -6 -5 -6 6 -1 11 2 17 5
13 3 -3 4 -12 1 -19z m613 12 c0 -5 -17 -9 -37 -9 l-38 2 35 7 c19 4 36 8 38
9 1 0 2 -3 2 -9z m-607 -55 c-7 -19 -33 -20 -33 -1 0 15 20 26 32 19 4 -2 5
-10 1 -18z m-93 5 c0 -5 -10 -10 -22 -10 -19 0 -20 2 -8 10 19 13 30 13 30 0z
m-863 -15 c0 -6 -5 -12 -11 -12 -6 0 -21 -3 -33 -7 -19 -6 -23 -4 -23 13 0 17
6 20 33 19 19 -1 34 -6 34 -13z m1561 -27 c-2 -16 -11 -24 -28 -26 -21 -2 -25
1 -25 23 0 21 5 25 28 25 24 0 28 -4 25 -22z m-1568 -17 c0 -4 -7 -8 -15 -8
-16 0 -20 9 -9 20 8 8 24 -1 24 -12z m940 9 c0 -5 -7 -10 -16 -10 -8 0 -12 5
-9 10 3 6 10 10 16 10 5 0 9 -4 9 -10z m-2053 -6 c-3 -3 -12 -4 -19 -1 -8 3
-5 6 6 6 11 1 17 -2 13 -5z m1073 -9 c0 -8 -4 -15 -10 -15 -5 0 -10 7 -10 15
0 8 5 15 10 15 6 0 10 -7 10 -15z m-2460 -15 c0 -5 -5 -10 -11 -10 -5 0 -7 5
-4 10 3 6 8 10 11 10 2 0 4 -4 4 -10z m4179 -16 l31 -6 -27 -21 c-40 -31 -63
-30 -63 5 0 30 6 32 59 22z m-141 -23 c3 -8 -1 -12 -9 -9 -7 2 -15 10 -17 17
-3 8 1 12 9 9 7 -2 15 -10 17 -17z m-3015 -17 c-4 -12 -8 -13 -14 -3 -9 15 -2
32 11 24 5 -3 6 -13 3 -21z m454 -2 c12 2 18 -4 19 -19 2 -27 -4 -29 -21 -6
-9 12 -25 17 -51 15 -38 -2 -39 -2 -14 12 17 10 29 11 37 5 6 -6 20 -9 30 -7z
m1863 -2 c0 -5 -5 -10 -11 -10 -5 0 -7 5 -4 10 3 6 8 10 11 10 2 0 4 -4 4 -10z
m95 0 c-3 -5 -12 -10 -20 -10 -8 0 -17 5 -20 10 -4 6 5 10 20 10 15 0 24 -4
20 -10z m-1918 -32 c-3 -8 -6 -5 -6 6 -1 11 2 17 5 13 3 -3 4 -12 1 -19z
m1003 8 c0 -8 7 -17 16 -20 8 -3 12 -11 9 -17 -4 -6 -13 -8 -20 -5 -7 2 -17 0
-22 -5 -11 -11 -63 5 -63 20 0 5 14 12 30 16 17 4 30 11 30 16 0 5 5 9 10 9 6
0 10 -6 10 -14z m-1087 -41 c2 -22 9 -39 14 -38 6 1 9 -6 6 -17 -5 -18 0 -20
38 -22 44 -1 44 -1 7 -5 -30 -3 -38 -8 -38 -25 0 -16 -3 -18 -14 -9 -11 10
-16 8 -21 -8 -5 -16 -10 -18 -30 -11 -12 5 -27 6 -31 2 -5 -4 -3 0 3 9 13 16
7 59 -9 59 -5 0 -4 -9 2 -20 9 -16 8 -20 -5 -20 -8 0 -15 5 -15 11 0 7 -16 10
-44 8 -42 -4 -43 -4 -29 18 13 20 50 22 37 2 -3 -5 2 -9 11 -9 11 0 15 5 12
14 -8 21 15 26 36 8 9 -8 20 -12 25 -8 4 4 0 13 -9 19 -20 15 -3 34 24 29 14
-3 18 2 17 20 -5 57 6 51 13 -7z m-46 13 c-3 -8 -6 -5 -6 6 -1 11 2 17 5 13 3
-3 4 -12 1 -19z m2081 10 c-4 -20 -22 -28 -30 -15 -13 20 -9 27 12 27 11 0 19
-6 18 -12z m587 -9 c0 -7 -8 -15 -17 -17 -18 -3 -25 18 -11 32 10 10 28 1 28
-15z m85 -21 c0 -21 -5 -28 -20 -28 -16 0 -20 6 -18 29 3 41 38 39 38 -1z
m-2645 -6 c-8 -8 -25 10 -19 20 4 6 9 5 15 -3 4 -7 6 -15 4 -17z m1898 21 c-7
-2 -19 -2 -25 0 -7 3 -2 5 12 5 14 0 19 -2 13 -5z m817 -25 c0 -4 -7 -4 -17
-1 -11 4 -14 3 -9 -5 4 -7 2 -12 -4 -12 -7 0 -9 -8 -5 -20 5 -15 2 -20 -14
-20 -10 0 -28 -3 -38 -6 -15 -5 -15 -4 -3 5 8 6 11 11 5 12 -5 0 -1 4 9 8 11
4 20 15 22 25 6 41 12 47 34 34 11 -7 20 -16 20 -20z m-3380 12 c0 -5 -7 -10
-15 -10 -8 0 -15 5 -15 10 0 6 7 10 15 10 8 0 15 -4 15 -10z m-95 -10 c3 -6
-1 -13 -10 -16 -19 -8 -30 0 -20 15 8 14 22 14 30 1z m-45 -9 c0 -10 -51 -21
-64 -14 -4 3 -3 8 2 12 17 10 62 12 62 2z m285 -10 c-49 -9 -84 -19 -77 -22
14 -5 35 -79 23 -79 -4 0 -12 12 -18 28 -11 27 -11 27 -12 -10 -1 -21 -6 -38
-12 -38 -7 0 -9 10 -5 24 3 14 2 28 -4 31 -5 3 -10 2 -10 -3 0 -6 -9 -8 -20
-5 -11 3 -20 14 -20 25 0 11 -5 16 -10 13 -6 -4 -17 -1 -25 5 -11 9 -15 9 -15
1 0 -6 -7 -11 -15 -11 -8 0 -15 -9 -15 -19 0 -26 -17 -36 -23 -14 -3 11 -5 8
-6 -9 -1 -34 -7 -35 -32 -5 -19 22 -19 22 -35 2 -16 -20 -16 -20 -9 3 5 19 3
22 -21 22 -40 0 -23 10 20 12 20 1 34 3 31 6 -3 3 0 11 6 19 14 16 51 17 67 1
10 -10 14 -10 21 0 4 7 14 10 22 8 8 -3 59 3 114 13 55 10 116 19 135 19 19 0
-5 -8 -55 -17z m-440 -11 c0 -22 -29 -18 -33 3 -3 14 1 18 15 15 10 -2 18 -10
18 -18z m37 5 c0 -5 -5 -11 -11 -13 -6 -2 -11 4 -11 13 0 9 5 15 11 13 6 -2
11 -8 11 -13z m2895 -7 c-3 -8 -6 -5 -6 6 -1 11 2 17 5 13 3 -3 4 -12 1 -19z
m609 6 c-3 -9 -6 -22 -6 -30 0 -18 -34 -18 -49 0 -9 11 -9 15 1 19 10 4 10 8
-2 16 -12 8 -6 11 24 11 31 0 37 -3 32 -16z m-3586 -9 c0 -8 -4 -15 -10 -15
-5 0 -10 7 -10 15 0 8 5 15 10 15 6 0 10 -7 10 -15z m1065 5 c-3 -5 3 -10 14
-10 17 0 21 -6 20 -32 -2 -31 -2 -31 -6 -5 -3 19 -10 27 -24 27 -10 0 -19 7
-19 15 0 8 5 15 11 15 5 0 7 -4 4 -10z m728 -26 c-4 -11 -8 -12 -20 -3 -11 10
-11 14 -1 20 17 10 28 2 21 -17z m1177 -4 c-8 -5 -25 -10 -37 -10 -12 0 -25
-4 -28 -10 -9 -15 -25 -12 -25 4 0 10 14 16 43 19 23 2 47 4 52 5 6 1 3 -3 -5
-8z m-2890 -20 c-16 -11 -40 -13 -40 -5 0 8 44 24 50 18 2 -2 -2 -8 -10 -13z
m997 14 c-3 -3 -12 -4 -19 -1 -8 3 -5 6 6 6 11 1 17 -2 13 -5z m1166 -1 c-7
-2 -21 -2 -30 0 -10 3 -4 5 12 5 17 0 24 -2 18 -5z m-2216 -29 c-2 -2 -33 -6
-68 -7 -35 -1 -66 -4 -69 -7 -13 -13 -60 -29 -60 -20 0 6 5 10 12 10 6 0 9 3
6 6 -4 3 -16 1 -27 -6 -14 -7 -27 -8 -39 -1 -16 9 -16 10 1 16 9 4 49 8 87 9
38 0 70 5 70 10 0 5 13 6 28 3 15 -3 34 -2 42 3 14 9 28 -5 17 -16z m628 16
c-7 -11 24 -19 90 -22 40 -2 51 -7 53 -22 3 -11 0 -16 -7 -11 -6 3 -9 11 -6
16 4 5 -3 9 -15 9 -12 0 -18 -5 -15 -10 3 -6 -1 -13 -11 -17 -10 -4 -20 0 -26
11 -7 12 -20 17 -42 15 -17 -2 -37 1 -44 5 -8 5 -20 1 -31 -8 -16 -14 -20 -14
-30 -2 -9 11 -8 15 5 20 9 3 19 4 24 1 4 -3 10 1 13 8 2 7 14 13 26 14 12 1
19 -2 16 -7z m405 -10 c0 -13 -11 -13 -30 0 -12 8 -11 10 8 10 12 0 22 -4 22
-10z m1178 -10 c2 -6 10 -10 18 -10 9 0 12 5 9 10 -8 13 23 8 53 -8 12 -7 22
-9 22 -4 0 5 16 9 35 10 23 1 35 -3 35 -12 0 -24 -263 -9 -300 17 -17 12 -10
13 53 10 39 -2 74 -8 75 -13z m1353 -12 c-4 -18 -12 -33 -19 -32 -46 4 -45 3
-31 21 12 15 12 16 -3 10 -12 -4 -18 -2 -18 8 0 8 13 15 33 18 17 2 35 5 38 5
4 1 3 -13 0 -30z m-1694 16 c13 -4 20 -11 17 -16 -6 -10 52 -9 71 1 17 9 88
11 99 3 6 -5 24 -9 40 -10 34 -2 40 -7 31 -21 -10 -17 -68 -13 -94 5 -22 16
-24 16 -33 -1 -8 -14 -12 -15 -19 -4 -6 10 -32 12 -101 11 -66 -2 -89 0 -78 7
13 9 12 11 -5 12 -17 1 2 9 45 18 3 0 15 -2 27 -5z m1726 -9 c-3 -9 -8 -14
-10 -11 -3 3 -2 9 2 15 9 16 15 13 8 -4z m-2745 -44 c11 -12 16 -13 20 -3 5
15 32 16 32 1 0 -6 7 -9 15 -5 22 8 18 -8 -9 -33 l-24 -22 -31 38 c-17 21 -30
47 -30 58 1 19 2 19 6 1 3 -11 12 -27 21 -35z m880 16 l3 -28 -57 3 c-37 2
-58 8 -60 16 -1 7 0 8 3 2 2 -5 11 -10 19 -10 9 0 12 5 9 10 -9 14 8 13 23 -2
9 -9 12 -6 12 16 0 23 4 27 23 24 16 -2 23 -11 25 -31z m1215 18 c-3 -9 -8
-14 -10 -11 -3 3 -2 9 2 15 9 16 15 13 8 -4z m-1169 -4 c3 -5 -1 -11 -9 -15
-15 -6 -29 7 -18 18 9 9 21 8 27 -3z m-1590 -27 c9 -8 20 -12 26 -9 5 3 10 1
10 -4 0 -6 -9 -16 -20 -23 -11 -7 -20 -20 -20 -28 0 -9 -14 0 -36 23 -20 21
-32 42 -28 45 3 4 9 1 11 -5 6 -18 23 -16 23 2 0 19 14 19 34 -1z m2993 -31
c-3 -10 -5 -4 -5 12 0 17 2 24 5 18 2 -7 2 -21 0 -30z m-2427 -3 c32 0 61 -4
64 -9 3 -4 -34 -7 -82 -5 -52 3 -82 0 -74 -5 8 -4 12 -17 10 -27 -4 -16 -7
-14 -16 9 -14 33 -8 49 13 40 10 -3 15 1 16 13 1 17 2 17 6 2 4 -15 16 -18 63
-18z m1570 20 c0 -12 -17 -12 -45 0 -17 7 -15 9 13 9 17 1 32 -3 32 -9z m620
-5 c-15 -18 -24 -20 -14 -4 5 9 -1 10 -21 5 -71 -18 -82 -18 -82 -2 0 13 13
16 65 16 56 0 63 -2 52 -15z m644 -14 c-3 -9 -7 -20 -7 -26 0 -5 -13 -10 -30
-11 -18 -1 -24 2 -16 7 16 9 5 24 -18 24 -9 0 -18 5 -20 11 -3 8 14 12 47 12
44 0 50 -3 44 -17z m70 -17 c6 -16 0 -17 -29 -4 -11 5 -14 9 -7 9 7 1 10 5 7
11 -3 5 0 7 9 4 8 -3 17 -12 20 -20z m-3024 12 c0 -11 -19 -15 -25 -6 -3 5 1
10 9 10 9 0 16 -2 16 -4z m-60 -14 c0 -13 -12 -22 -22 -16 -10 6 -1 24 13 24
5 0 9 -4 9 -8z m1940 -2 c12 -8 9 -10 -13 -10 -16 0 -26 4 -22 10 8 12 16 12
35 0z m410 0 c0 -5 -4 -10 -9 -10 -6 0 -13 5 -16 10 -3 6 1 10 9 10 9 0 16 -4
16 -10z m-2109 -10 c23 0 38 -4 34 -10 -3 -5 -12 -7 -20 -3 -9 3 -22 0 -30 -7
-10 -8 -15 -9 -15 -2 0 6 -14 9 -32 8 -18 -2 -22 -1 -9 1 20 4 22 7 10 15 -11
8 -10 9 4 4 10 -3 37 -6 58 -6z m1269 0 c0 -5 -5 -10 -11 -10 -5 0 -7 5 -4 10
3 6 8 10 11 10 2 0 4 -4 4 -10z m-1950 -11 c0 -5 -4 -8 -9 -5 -5 4 -11 1 -13
-5 -2 -7 -9 -5 -17 5 -12 14 -10 16 13 16 14 0 26 -5 26 -11z m1010 -10 c-14
-4 -38 -7 -55 -8 -26 0 -28 1 -13 12 10 8 32 11 55 8 35 -4 36 -5 13 -12z
m1437 -44 c-1 -36 -7 -65 -12 -65 -6 0 -9 22 -8 48 1 26 2 55 2 65 1 9 6 17
11 17 6 0 9 -26 7 -65z m-2704 40 c-3 -9 2 -22 12 -29 31 -23 -2 -30 -145 -33
-94 -2 -128 0 -112 7 24 10 31 33 7 24 -10 -4 -15 0 -15 15 0 14 6 21 20 21
15 0 20 -7 20 -25 0 -17 5 -25 18 -25 23 0 48 17 39 26 -4 4 -2 13 4 21 8 9
36 13 85 13 62 0 72 -2 67 -15z m2625 -26 c-7 -13 -13 -25 -13 -25 0 -1 -10
-5 -22 -8 -17 -6 -23 -3 -23 9 0 9 4 14 9 11 4 -3 17 1 27 9 17 13 15 14 -25
15 -52 0 -45 17 9 22 45 4 55 -4 38 -33z m1162 -17 c0 -9 -7 -9 -30 3 -16 9
-30 12 -30 9 0 -4 -3 -5 -6 -1 -3 3 3 14 13 25 18 19 18 19 35 -2 10 -12 18
-27 18 -34z m-1540 27 c0 -11 5 -30 11 -41 8 -15 8 -23 -1 -32 -8 -8 -10 -7
-5 7 11 26 -24 22 -35 -5 -10 -26 -11 -25 -16 15 -2 18 2 27 11 27 8 0 17 5
21 12 4 6 3 8 -4 5 -13 -9 -42 2 -42 15 0 5 4 7 8 4 4 -2 14 -1 22 5 23 14 30
11 30 -12z m1079 -22 c-18 -20 -19 -20 -39 -2 -21 19 -21 19 12 30 40 13 53 0
27 -28z m151 6 c0 -7 -39 17 -46 28 -3 6 5 3 20 -6 14 -10 26 -19 26 -22z m25
23 c12 -12 11 -16 -5 -31 -18 -16 -18 -16 -13 5 4 13 0 26 -8 31 -11 7 -11 9
-1 9 7 0 20 -6 27 -14z m185 -5 c0 -5 7 -17 16 -25 14 -15 14 -16 0 -16 -9 0
-16 5 -16 10 0 6 -5 10 -11 10 -5 0 -7 -4 -4 -10 3 -5 -1 -10 -9 -10 -19 0
-29 17 -22 35 6 16 46 21 46 6z m-1564 -56 c1 -8 -4 -15 -11 -15 -7 0 -12 8
-10 18 2 9 4 19 4 21 2 9 15 -10 17 -24z m-426 5 c-8 -5 -28 -9 -45 -9 l-30 1
30 8 c17 4 37 8 45 9 13 1 13 0 0 -9z m2040 -20 c0 -11 0 -23 1 -27 0 -4 -4
-9 -10 -11 -6 -2 -8 3 -5 12 4 11 1 16 -10 16 -19 0 -21 16 -3 23 22 10 27 7
27 -13z m-1563 -12 c-3 -8 -6 -5 -6 6 -1 11 2 17 5 13 3 -3 4 -12 1 -19z m410
7 c0 -8 -4 -15 -9 -15 -10 0 -11 14 -1 23 9 10 10 9 10 -8z m757 1 c37 -8 70
-17 74 -20 7 -8 -167 -6 -207 3 -19 3 -36 12 -39 19 -5 17 85 16 172 -2z m326
4 c11 0 7 -33 -5 -42 -15 -12 -22 -9 -22 7 0 8 5 11 11 8 6 -4 2 4 -9 17 -18
21 -18 23 -2 17 10 -4 22 -7 27 -7z m-2027 -17 c-7 -2 -21 -2 -30 0 -10 3 -4
5 12 5 17 0 24 -2 18 -5z m754 1 c-3 -3 -12 -4 -19 -1 -8 3 -5 6 6 6 11 1 17
-2 13 -5z m759 -58 c-7 -11 -19 -22 -27 -24 -11 -3 -11 -1 1 7 15 10 13 12
-12 15 -7 0 -14 8 -16 18 -4 20 26 28 50 14 15 -9 16 -13 4 -30z m-1036 24 c0
-5 -4 -10 -9 -10 -6 0 -13 5 -16 10 -3 6 1 10 9 10 9 0 16 -4 16 -10z m1225
-24 c13 -3 10 -4 -7 -2 -15 2 -29 -1 -30 -6 -4 -11 -38 0 -38 12 0 12 33 18
45 9 6 -4 19 -9 30 -13z m222 4 c55 -10 76 -10 86 -1 11 9 17 8 27 -4 7 -9 10
-18 7 -22 -9 -9 -217 30 -217 40 0 5 6 7 13 4 6 -2 44 -10 84 -17z m227 -9 c4
-5 -3 -7 -14 -4 -23 6 -26 13 -6 13 8 0 17 -4 20 -9z m-1094 -26 c0 -8 -4 -15
-10 -15 -5 0 -10 7 -10 15 0 8 5 15 10 15 6 0 10 -7 10 -15z m-300 -5 c13 -9
13 -10 0 -10 -8 0 -22 5 -30 10 -13 9 -13 10 0 10 8 0 22 -5 30 -10z m783 3
c-7 -2 -19 -2 -25 0 -7 3 -2 5 12 5 14 0 19 -2 13 -5z m169 -15 c7 -4 -20 -5
-62 -2 -41 4 -77 9 -80 11 -9 8 129 0 142 -9z m-3725 -12 c3 -3 2 -6 -4 -6 -6
0 -8 -11 -5 -25 2 -14 8 -23 12 -20 4 3 10 -4 13 -15 3 -12 -1 -24 -11 -30
-16 -9 -16 -9 -1 -10 17 0 29 -38 29 -91 0 -21 -5 -29 -18 -29 -10 0 -23 -5
-30 -12 -6 -6 -14 -9 -18 -5 -3 3 -11 57 -17 120 -8 89 -14 114 -24 110 -19
-7 -45 5 -38 17 7 11 100 8 112 -4z m700 -2 c-3 -3 -12 -4 -19 -1 -8 3 -5 6 6
6 11 1 17 -2 13 -5z m93 -4 c0 -5 -9 -10 -20 -10 -11 0 -20 5 -20 10 0 6 9 10
20 10 11 0 20 -4 20 -10z m-1205 -10 c3 -5 -1 -10 -9 -10 -9 0 -16 5 -16 10 0
6 4 10 9 10 6 0 13 -4 16 -10z m1583 -7 c-1 -10 6 -54 15 -98 20 -105 29 -215
17 -215 -6 0 -10 2 -10 5 0 2 -7 55 -16 117 -10 62 -17 128 -18 145 -1 19 -6
33 -13 33 -14 0 -17 13 -6 23 13 13 32 7 31 -10z m1902 7 c0 -5 -5 -10 -11
-10 -5 0 -7 5 -4 10 3 6 8 10 11 10 2 0 4 -4 4 -10z m-1342 -12 c-3 -7 -13
-13 -23 -13 -10 0 -20 6 -22 13 -3 7 5 12 22 12 17 0 25 -5 23 -12z m389 -25
c-3 -10 -5 -4 -5 12 0 17 2 24 5 18 2 -7 2 -21 0 -30z m523 7 c0 -5 -4 -10
-10 -10 -5 0 -10 5 -10 10 0 6 5 10 10 10 6 0 10 -4 10 -10z m-446 -94 c-4
-17 0 -27 13 -34 24 -14 5 -35 -27 -30 -19 2 -24 10 -27 46 -4 39 -2 42 22 42
22 0 25 -3 19 -24z m53 -8 c-3 -7 -5 -2 -5 12 0 14 2 19 5 13 2 -7 2 -19 0
-25z m133 12 c-16 -12 -29 -15 -36 -9 -6 5 -14 6 -17 2 -4 -3 -7 1 -7 10 0 13
9 17 43 17 l42 0 -25 -20z m268 8 c-7 -20 -48 -23 -48 -4 0 11 9 16 26 16 16
0 24 -5 22 -12z m362 1 c0 -5 -9 -9 -20 -9 -11 0 -20 4 -20 8 0 4 9 8 20 9 11
1 20 -2 20 -8z m-1476 -21 c8 -32 8 -35 -7 -41 -7 -3 -21 1 -31 8 -17 13 -17
14 1 33 24 27 29 26 37 0z m-374 -50 c0 -5 -4 -8 -10 -8 -5 0 -10 10 -10 23 0
18 2 19 10 7 5 -8 10 -18 10 -22z m-1230 -19 c0 -24 -4 -38 -10 -34 -5 3 -10
22 -10 41 0 19 5 34 10 34 6 0 10 -18 10 -41z m1127 22 c3 -11 15 -21 27 -23
l21 -3 -23 -13 c-26 -15 -206 -28 -246 -18 -14 3 -26 13 -26 20 0 10 24 15 95
18 72 3 99 8 112 21 22 22 34 21 40 -2z m428 5 c18 -13 18 -14 -6 -14 -13 0
-29 -1 -35 -3 -12 -4 -14 0 -14 21 0 15 33 12 55 -4z m142 -2 c-3 -3 -12 -4
-19 -1 -8 3 -5 6 6 6 11 1 17 -2 13 -5z m-1337 -29 c0 -11 -10 -15 -37 -14
l-38 1 30 13 c39 18 45 18 45 0z m85 5 c3 -5 1 -10 -4 -10 -6 0 -11 5 -11 10
0 6 2 10 4 10 3 0 8 -4 11 -10z m365 -29 c0 -5 -15 -14 -32 -20 l-33 -11 25
20 c27 21 40 25 40 11z m1442 -17 c-12 -8 -28 -12 -34 -8 -9 6 -5 10 12 15 41
11 46 10 22 -7z m1241 9 c-7 -2 -19 -2 -25 0 -7 3 -2 5 12 5 14 0 19 -2 13 -5z
m-1773 -21 c0 -22 -39 -42 -78 -41 -24 0 -22 2 18 22 25 12 47 25 48 30 6 13
12 7 12 -11z m2013 -29 c-7 -2 -19 -2 -25 0 -7 3 -2 5 12 5 14 0 19 -2 13 -5z
m302 -23 c3 -5 -1 -10 -9 -10 -9 0 -16 5 -16 10 0 6 4 10 9 10 6 0 13 -4 16
-10z m-2955 -71 c0 -31 -4 -48 -10 -44 -5 3 -10 19 -10 35 0 23 -5 31 -25 36
-37 9 -30 24 10 24 l35 0 0 -51z m2945 41 c3 -6 -4 -9 -19 -8 -13 1 -22 6 -20
10 7 11 32 10 39 -2z m-3068 -6 c-3 -3 -12 -4 -19 -1 -8 3 -5 6 6 6 11 1 17
-2 13 -5z m3054 -41 c8 -21 5 -23 -26 -23 -18 0 -37 5 -40 10 -3 6 -1 10 4 10
6 0 11 6 11 14 0 22 42 13 51 -11z m-2352 -27 c-11 -9 -69 -14 -69 -6 0 6 17
10 37 10 20 0 34 -2 32 -4z"/>
<path d="M7170 4020 c0 -5 5 -10 10 -10 6 0 10 5 10 10 0 6 -4 10 -10 10 -5 0
-10 -4 -10 -10z"/>
<path d="M4792 3825 c-7 -8 -8 -15 -3 -15 5 0 12 -10 14 -22 3 -14 5 -9 6 15
1 42 1 42 -17 22z"/>
<path d="M4735 3710 c3 -5 8 -10 11 -10 2 0 4 5 4 10 0 6 -5 10 -11 10 -5 0
-7 -4 -4 -10z"/>
<path d="M4740 3530 c-20 -12 -10 -19 14 -10 11 3 15 9 10 13 -6 3 -16 2 -24
-3z"/>
<path d="M4785 3520 c3 -5 12 -7 20 -3 21 7 19 13 -6 13 -11 0 -18 -4 -14 -10z"/>
<path d="M4688 3503 c7 -3 16 -2 19 1 4 3 -2 6 -13 5 -11 0 -14 -3 -6 -6z"/>
<path d="M4960 3760 c0 -5 5 -10 10 -10 6 0 10 5 10 10 0 6 -4 10 -10 10 -5 0
-10 -4 -10 -10z"/>
<path d="M4908 3693 c6 -2 18 -2 25 0 6 3 1 5 -13 5 -14 0 -19 -2 -12 -5z"/>
<path d="M4883 3563 c9 -2 23 -2 30 0 6 3 -1 5 -18 5 -16 0 -22 -2 -12 -5z"/>
<path d="M4939 3501 c11 -7 11 -9 0 -14 -10 -4 -9 -6 4 -6 9 -1 17 3 17 8 0 5
10 12 23 14 12 2 5 5 -18 5 -26 1 -35 -1 -26 -7z"/>
<path d="M5525 4573 c-5 -10 -7 -26 -6 -37 4 -31 -9 -67 -21 -60 -7 4 -8 3 -4
-5 4 -6 12 -9 17 -6 5 4 9 2 9 -3 0 -15 -28 -22 -34 -9 -2 7 -5 4 -5 -5 -1
-21 19 -24 37 -6 7 7 12 8 12 3 0 -4 9 0 20 10 19 18 20 17 20 -3 0 -18 6 -22
33 -22 25 0 36 6 49 28 16 27 20 28 95 29 43 1 80 -2 83 -6 3 -5 22 -11 43
-14 32 -5 38 -3 33 9 -3 9 -6 22 -6 29 0 22 -231 11 -247 -12 -11 -15 -13 -13
-14 13 -1 16 0 42 1 57 1 26 0 27 -38 25 -23 -2 -38 -7 -35 -13 3 -5 0 -4 -8
3 -18 16 -25 15 -34 -5z m70 -45 c-1 -29 -3 -62 -4 -73 -3 -17 -4 -16 -10 5
-5 17 -13 24 -27 22 -15 -2 -16 -1 -4 7 8 5 18 7 24 4 5 -4 6 -1 2 6 -5 7 -14
10 -22 7 -12 -5 -12 -2 -3 17 9 17 32 46 45 56 0 1 0 -23 -1 -51z"/>
<path d="M6030 4580 c0 -6 -8 -10 -17 -9 -29 2 -43 0 -43 -10 0 -4 16 -6 36
-4 20 2 33 0 30 -6 -3 -5 1 -11 9 -15 10 -3 15 1 15 13 0 14 5 18 20 14 13 -4
20 0 20 9 0 9 -13 15 -35 16 -20 2 -35 -2 -35 -8z"/>
<path d="M6137 4578 c2 -5 13 -8 23 -8 10 0 21 3 23 8 3 4 -8 7 -23 7 -15 0
-26 -3 -23 -7z"/>
<path d="M6416 4564 c-4 -15 -5 -29 -1 -32 3 -3 5 0 5 7 0 7 10 21 23 32 l22
18 -21 1 c-15 0 -24 -8 -28 -26z"/>
<path d="M6483 4584 c4 -4 -3 -19 -15 -33 l-23 -25 33 23 c37 26 38 27 15 35
-10 4 -14 4 -10 0z"/>
<path d="M8824 4558 c3 -18 10 -34 14 -38 4 -3 8 -86 8 -185 1 -173 1 -177
-12 -115 l-13 65 2 -58 c1 -34 -2 -56 -8 -53 -5 2 -9 9 -7 15 1 7 -2 10 -8 6
-5 -3 -10 -1 -10 4 0 6 -8 11 -17 12 -15 0 -15 2 2 9 16 7 14 8 -12 7 -18 -1
-33 -5 -33 -9 0 -5 5 -8 10 -8 6 0 10 -4 10 -10 0 -5 -9 -10 -19 -10 -14 0
-18 5 -14 20 3 12 2 20 -3 19 -5 -1 -11 0 -14 1 -3 1 -34 4 -69 6 -40 2 -71
10 -82 20 -16 14 -19 14 -36 -3 -17 -17 -24 -18 -55 -7 -20 7 -39 9 -43 6 -4
-4 -10 -7 -13 -8 -4 0 -23 -8 -42 -17 l-35 -16 25 -10 25 -10 -24 0 c-13 -1
-36 10 -53 24 -16 14 -34 25 -39 25 -10 0 -13 -269 -3 -319 5 -24 12 -31 29
-31 22 0 23 3 18 68 -2 37 -5 77 -7 90 -2 12 1 22 5 22 5 0 9 -26 9 -59 0 -90
9 -121 34 -121 21 0 22 2 15 81 -5 51 -12 85 -21 90 -8 6 4 9 33 9 l46 0 7
-46 c8 -62 8 -89 -1 -80 -9 9 -10 13 -12 71 -1 40 -4 45 -23 45 -22 0 -23 -3
-20 -77 2 -43 8 -84 14 -90 8 -10 -5 -13 -62 -13 l-72 0 4 -32 c1 -18 7 -36
13 -40 6 -5 5 -8 -2 -8 -9 0 -13 -22 -13 -75 l0 -75 118 -1 c64 0 135 -4 157
-8 36 -8 31 -9 -40 -11 -44 -2 -87 -2 -95 -1 -8 1 -43 4 -77 8 l-63 6 0 -612
0 -611 1075 0 c999 0 1078 1 1108 17 18 10 49 18 70 19 66 4 90 13 82 32 -4 9
-9 23 -12 30 -3 6 2 12 10 12 8 0 20 -13 27 -30 7 -17 20 -30 29 -30 9 0 23
-5 31 -11 12 -8 9 -9 -10 -4 l-25 6 25 -20 c27 -22 80 -28 80 -10 0 8 5 7 15
-1 25 -21 27 -6 4 44 -20 46 -20 48 -2 61 24 19 27 19 54 -6 13 -11 19 -18 12
-15 -6 3 -22 2 -35 -3 -21 -8 -21 -10 -5 -16 19 -8 67 9 67 23 0 5 -19 18 -42
31 -32 17 -43 19 -50 9 -6 -10 -8 -8 -8 5 0 9 4 17 8 17 5 0 7 13 4 28 -3 22
2 32 22 45 24 16 27 16 58 -3 29 -18 30 -20 8 -15 -14 3 -38 1 -55 -4 -28 -9
-27 -9 17 -10 26 -1 49 -4 52 -9 2 -4 -13 -6 -33 -4 -29 3 -40 0 -45 -14 -4
-10 -1 -21 6 -26 23 -14 34 -8 14 7 -16 12 -17 15 -4 15 9 0 23 3 32 6 13 5
15 0 12 -24 -2 -23 1 -32 15 -35 28 -8 25 -47 -3 -48 -21 -1 -20 -2 7 -15 l30
-14 -35 4 -35 5 38 -11 c42 -13 50 -28 11 -20 -19 3 -25 1 -20 -7 5 -8 100
-11 337 -11 276 0 333 2 345 15 8 8 31 17 51 21 31 6 39 4 51 -15 8 -11 21
-21 28 -21 12 0 12 5 -1 30 -8 16 -19 29 -23 29 -20 -3 -30 3 -28 19 1 12 -8
18 -32 20 -41 4 -32 22 11 23 18 0 50 9 72 19 49 23 38 24 -35 5 -52 -14 -84
-14 -41 0 12 3 21 13 21 21 0 16 12 18 26 4 6 -6 18 -8 28 -4 25 10 0 34 -34
34 -34 0 -60 9 -60 21 0 5 12 9 28 9 21 0 24 -2 12 -10 -12 -8 -9 -10 11 -10
18 0 28 6 32 20 3 11 12 20 20 20 10 0 13 -7 10 -20 -7 -25 13 -50 38 -50 13
0 17 5 12 18 -4 9 -11 20 -17 24 -6 4 -7 10 -3 14 3 4 13 2 21 -5 8 -7 25 -9
39 -6 14 4 28 2 31 -4 4 -6 19 -12 34 -12 l27 -1 -25 -8 c-54 -15 -70 -23 -70
-31 0 -9 20 -6 75 8 11 3 28 12 38 21 23 21 35 7 13 -17 -15 -17 -15 -19 -1
-25 26 -9 42 -7 25 4 -9 6 -10 10 -3 10 21 0 43 -12 37 -21 -8 -13 -45 -11
-74 4 -17 9 -35 11 -58 5 -42 -11 -41 -20 6 -36 50 -18 78 -20 75 -4 -2 8 10
12 37 12 22 0 40 -5 40 -11 0 -5 14 -15 30 -20 58 -21 31 -50 -43 -48 l-42 2
35 7 c34 7 34 7 -13 9 -29 0 -46 5 -42 11 3 6 -4 10 -15 10 -16 0 -20 -5 -16
-15 3 -9 0 -15 -9 -15 -8 0 -15 8 -15 19 0 21 -27 48 -37 37 -14 -14 23 -61
52 -67 24 -5 25 -7 8 -8 -47 -2 -15 -41 34 -41 43 0 43 17 1 23 -21 3 -12 5
22 5 100 1 159 13 165 33 8 24 -2 39 -25 39 -24 0 -70 21 -70 32 0 4 15 8 33
7 26 0 29 -2 12 -9 -19 -8 -19 -8 -1 -16 10 -4 31 -3 45 3 14 6 35 14 46 18
18 6 18 5 3 -5 -10 -6 -18 -22 -18 -35 0 -43 48 -28 54 17 2 12 16 22 16 11 0
-6 10 -14 23 -18 19 -6 20 -8 4 -12 -10 -3 -16 -11 -13 -18 3 -8 0 -16 -7 -19
-7 -2 24 -5 68 -5 81 -1 113 8 101 28 -5 7 -1 9 8 5 27 -10 18 -33 -16 -42
-18 -5 -32 -14 -31 -21 4 -16 -22 -14 -37 4 -14 17 -95 21 -105 6 -10 -17 27
-26 98 -26 42 0 71 5 75 12 8 13 52 6 52 -8 0 -14 37 -11 43 4 8 23 -9 49 -48
73 -41 24 -42 33 -2 13 39 -20 67 -52 67 -76 l0 -23 250 0 250 0 0 1085 0
1085 -70 0 c-40 0 -70 -4 -70 -10 0 -5 -9 -10 -21 -10 -11 0 -18 4 -14 9 3 6
-196 10 -515 11 -575 1 -525 7 -521 -60 1 -14 -3 -110 -8 -214 -8 -132 -15
-192 -23 -198 -10 -6 -10 -8 0 -8 6 0 12 -9 12 -19 0 -13 -9 -21 -30 -26 -20
-4 -32 -14 -35 -28 -11 -55 -14 -59 -12 -19 2 34 -1 42 -15 42 -17 0 -19 -7
-31 -115 -2 -16 -5 3 -6 43 -2 126 -41 76 -41 -54 0 -32 1 -32 44 -32 44 0 45
0 49 36 l4 37 1 -37 c2 -29 6 -37 25 -41 12 -2 -74 -5 -190 -6 -122 0 -213 3
-213 8 0 5 9 7 20 4 17 -5 19 1 23 68 l3 74 2 -72 2 -73 65 1 65 1 0 78 c0 72
-1 78 -19 73 -11 -3 -22 -15 -24 -27 l-4 -21 -2 21 c0 12 -8 24 -16 28 -12 4
-15 -4 -17 -42 l-1 -47 -4 43 c-2 23 -7 42 -11 43 -62 9 -67 6 -73 -46 -7 -49
-7 -48 -6 15 0 55 3 67 21 77 21 12 21 12 -1 13 -16 0 -23 6 -23 20 0 17 6 21
38 21 77 -1 277 9 290 14 8 3 11 24 10 62 l-2 58 -3 -52 c-5 -63 1 -61 -198
-65 l-140 -3 -2 123 c-1 130 -8 152 -48 152 -19 0 -24 7 -29 45 -4 26 -18 58
-32 75 -24 28 -30 30 -95 30 -38 0 -69 -3 -69 -7 0 -5 -18 -21 -40 -37 -34
-26 -40 -35 -40 -68 0 -25 -7 -44 -22 -58 -30 -27 -38 -25 -38 9 0 42 -17 81
-35 81 -16 0 -18 8 -15 53 1 15 -3 27 -9 27 -6 0 -11 -11 -11 -24 0 -18 -5
-23 -25 -23 -20 0 -25 5 -25 23 0 13 -4 24 -10 24 -5 0 -10 -18 -10 -41 0 -32
-4 -42 -20 -46 -11 -3 -20 -13 -20 -21 0 -9 -12 -25 -26 -37 -17 -14 -23 -26
-19 -37 4 -10 11 -15 16 -12 5 3 9 1 9 -5 0 -5 -5 -11 -10 -13 -13 -4 -23 -83
-16 -113 5 -21 10 -22 106 -17 l100 5 0 -52 c0 -32 -5 -53 -12 -56 -7 -2 -75
-6 -150 -8 l-138 -4 -1 106 c-1 58 -4 93 -6 76 -3 -16 -12 -35 -21 -42 -16
-12 -16 -13 1 -7 14 5 17 0 17 -39 0 -35 -4 -47 -17 -50 -17 -4 -17 -5 0 -6
11 -1 17 -9 17 -26 0 -24 3 -25 63 -26 34 -1 67 0 72 1 42 12 68 11 76 -1 6
-10 9 -11 9 -1 0 7 15 12 40 12 34 0 40 -3 40 -21 0 -18 -5 -21 -42 -19 -24 2
-61 2 -83 1 -67 -4 -10 -18 62 -15 l63 2 -2 -82 c-2 -76 -2 -77 -5 -18 -5 84
-23 79 -23 -7 0 -58 3 -70 18 -74 30 -7 -170 -12 -258 -6 -53 3 -67 6 -37 7
l47 2 0 65 c0 47 -4 65 -13 65 -9 0 -14 -18 -15 -56 -2 -77 -12 -82 -12 -7 0
58 -1 61 -26 61 -29 0 -49 15 -40 31 10 15 36 14 36 -1 1 -8 5 -7 13 4 9 12
17 14 30 7 11 -6 17 -6 17 0 0 5 23 8 50 7 37 -2 50 1 50 11 0 8 -5 11 -10 8
-6 -3 -49 -7 -98 -8 -77 -1 -87 0 -90 17 -2 10 2 22 10 27 10 6 10 9 1 9 -7 0
-13 11 -13 25 0 14 6 25 13 25 9 0 9 2 1 8 -7 4 -12 36 -13 73 -1 72 -20 126
-38 108 -6 -6 -48 -13 -92 -16 l-81 -5 0 25 c0 14 -5 29 -10 32 -6 4 -8 10 -5
15 7 12 -29 5 -52 -10 -16 -10 -16 -10 2 -6 11 3 27 1 35 -4 13 -9 13 -10 0
-11 -8 -1 -22 -2 -30 -3 -18 -1 -40 16 -33 27 8 13 -37 1 -50 -13 -10 -12 -9
-12 6 -1 16 13 17 11 15 -15 -1 -16 2 -36 7 -43 6 -11 3 -13 -13 -9 -15 4 -22
2 -22 -9 0 -10 6 -12 20 -8 14 5 20 2 20 -10 0 -9 -4 -14 -9 -11 -4 3 -17 -1
-27 -9 -10 -8 -14 -15 -8 -15 11 0 14 -80 3 -80 -4 0 -4 -26 -2 -57 5 -54 4
-56 -13 -39 -14 15 -15 19 -3 27 11 7 12 11 1 17 -17 11 -62 3 -62 -10 0 -6 7
-8 15 -5 20 8 28 -8 10 -23 -15 -12 -55 -5 -55 11 0 5 5 9 10 9 6 0 10 5 10
10 0 6 -13 10 -29 10 -25 0 -28 3 -23 25 3 16 0 25 -8 25 -7 0 -10 -7 -6 -16
3 -8 2 -12 -4 -9 -6 3 -10 12 -10 20 0 7 -5 15 -11 17 -16 5 7 58 25 58 10 0
13 6 9 16 -4 11 -8 12 -13 4 -6 -9 -10 -8 -18 5 -15 27 -34 8 -27 -26 7 -30 0
-35 -24 -20 -13 8 -13 12 -1 26 12 14 12 18 -1 25 -11 7 -11 14 -3 27 9 14 8
22 -4 33 -11 9 -12 15 -4 18 15 5 16 32 2 32 -14 0 -12 28 3 33 9 3 9 7 -2 20
-11 14 -11 20 0 34 11 13 11 17 2 20 -15 5 -17 33 -3 33 6 0 10 9 10 20 0 18
-7 20 -82 20 -63 0 -86 -4 -102 -17 -20 -17 -20 -17 -7 0 12 15 10 17 -23 17
l-37 0 4 -45 c6 -57 30 -96 55 -89 11 4 13 3 5 -3 -9 -7 -9 -18 2 -48 9 -25
15 -32 15 -20 l1 20 8 -20 c5 -11 4 -28 -1 -39 -9 -17 -4 -119 8 -160 4 -12 2
-16 -5 -12 -6 4 -11 22 -12 39 -1 37 -17 85 -18 55 -1 -27 -51 -25 -51 2 0 11
-7 20 -15 20 -14 0 -19 -31 -19 -122 0 -9 -4 -14 -9 -11 -5 3 -7 -3 -4 -13 14
-49 18 -89 8 -74 -9 13 -11 12 -12 -5 l0 -20 -9 20 c-8 20 -9 20 -9 -1 -1 -18
-31 -32 -31 -13 0 4 -16 10 -35 13 -26 5 -35 12 -35 26 0 25 17 26 23 3 3 -12
5 -10 6 7 1 20 3 22 11 10 8 -12 10 -11 10 7 0 19 5 22 30 19 27 -3 30 -1 30
25 0 25 -4 29 -27 30 -16 1 -32 2 -38 4 -5 1 -20 3 -32 3 -20 2 -23 7 -23 46
0 25 -4 48 -10 51 -6 4 -10 -13 -10 -44 l0 -50 -54 4 c-46 4 -55 2 -58 -13 -3
-9 -8 13 -12 50 l-7 67 -47 -2 c-26 -1 -58 2 -71 7 l-24 8 7 -66 c4 -43 3 -66
-4 -66 -6 0 -10 27 -10 65 0 37 -4 65 -10 65 -5 0 -10 -23 -10 -51 0 -51 0
-51 -30 -47 -20 3 -30 0 -30 -9 0 -7 -7 -13 -15 -13 -8 0 -15 9 -15 20 0 11
-4 20 -10 20 -5 0 -10 -12 -10 -27 0 -26 -1 -27 -14 -8 -17 24 -40 252 -34
329 l5 56 -85 0 -84 0 6 -32z m3983 -45 c-16 -16 -17 -16 -17 3 0 26 11 37 24
24 7 -7 5 -16 -7 -27z m-774 -77 c9 -7 17 -22 17 -32 -1 -18 -1 -18 -11 -1
-16 27 -27 20 -32 -20 -3 -31 -4 -29 -5 15 -2 55 2 60 31 38z m755 -113 l3
-113 -211 0 -210 0 0 110 0 110 188 3 c103 1 196 3 207 2 19 0 20 -8 23 -112z
m-2068 77 c0 -11 -4 -20 -9 -20 -5 0 -7 9 -4 20 3 11 7 20 9 20 2 0 4 -9 4
-20z m80 5 c0 -8 -8 -15 -17 -14 -11 0 -13 3 -5 6 6 2 10 9 6 14 -3 5 0 9 5 9
6 0 11 -7 11 -15z m-53 -27 c-3 -7 -5 -2 -5 12 0 14 2 19 5 13 2 -7 2 -19 0
-25z m1071 -100 c-4 -93 -2 -108 11 -109 11 0 12 -2 4 -6 -7 -2 -13 -16 -13
-30 0 -19 -4 -24 -22 -21 -21 3 -21 6 -19 138 1 74 5 138 7 142 3 4 12 4 21 1
13 -5 15 -22 11 -115z m-1568 97 c0 -9 -9 -15 -21 -15 -18 0 -19 2 -9 15 7 8
16 15 21 15 5 0 9 -7 9 -15z m-50 -5 c0 -5 -7 -10 -15 -10 -8 0 -15 5 -15 10
0 6 7 10 15 10 8 0 15 -4 15 -10z m1797 -162 c-2 -18 -4 -4 -4 32 0 36 2 50 4
33 2 -18 2 -48 0 -65z m-1843 43 c-9 -10 -26 18 -18 30 5 9 9 8 14 -7 4 -10 6
-21 4 -23z m-248 -37 c-3 -9 -6 -18 -6 -20 0 -3 -4 -3 -10 1 -11 7 -2 35 12
35 6 0 7 -7 4 -16z m244 6 c0 -5 -5 -10 -11 -10 -5 0 -7 5 -4 10 3 6 8 10 11
10 2 0 4 -4 4 -10z m-1013 -42 c-3 -8 -6 -5 -6 6 -1 11 2 17 5 13 3 -3 4 -12
1 -19z m-340 -3 c2 -6 -11 -12 -28 -13 -28 -2 -30 -1 -19 13 14 17 41 17 47 0z
m3593 -36 c0 -17 -4 -28 -10 -24 -5 3 -10 17 -10 31 0 13 5 24 10 24 6 0 10
-14 10 -31z m-2480 11 c0 -5 -4 -10 -10 -10 -5 0 -10 5 -10 10 0 6 5 10 10 10
6 0 10 -4 10 -10z m-225 -45 c0 -21 -5 -40 -12 -42 -14 -5 -29 60 -18 77 13
22 30 3 30 -35z m275 10 c0 -8 -4 -15 -9 -15 -13 0 -22 16 -14 24 11 11 23 6
23 -9z m30 11 c0 -3 -4 -8 -10 -11 -5 -3 -10 -1 -10 4 0 6 5 11 10 11 6 0 10
-2 10 -4z m-579 -28 c0 -10 2 -10 6 0 6 15 23 6 23 -14 0 -10 -11 -14 -37 -13
-21 1 -30 3 -20 6 11 3 16 11 13 19 -3 8 -1 14 4 14 6 0 10 -6 11 -12z m746
-10 c-3 -8 -6 -5 -6 6 -1 11 2 17 5 13 3 -3 4 -12 1 -19z m2530 -10 c-3 -7 -5
-2 -5 12 0 14 2 19 5 13 2 -7 2 -19 0 -25z m-863 5 c11 -2 22 -6 25 -9 3 -3
-3 -5 -14 -3 -11 2 -26 0 -34 -5 -10 -6 -12 -5 -7 2 4 7 2 12 -3 12 -6 0 -11
5 -11 11 0 6 5 7 13 2 6 -4 21 -9 31 -10z m-2564 -3 c12 -8 11 -10 -7 -10 -13
0 -23 5 -23 10 0 13 11 13 30 0z m2770 -15 c0 -8 -9 -10 -25 -7 -14 2 -25 10
-25 17 0 8 9 10 25 7 14 -2 25 -10 25 -17z m148 -20 c2 -28 -1 -35 -15 -34
-10 0 -13 3 -6 5 8 4 10 16 6 35 -3 16 -1 29 4 29 5 0 10 -16 11 -35z m-3698
-37 c0 -74 -5 -73 -14 5 -4 36 -2 57 4 57 6 0 10 -27 10 -62z m62 43 c-10 -6
-12 -21 -7 -55 5 -29 4 -46 -3 -46 -6 0 -12 25 -14 55 -3 50 -1 55 17 55 15 0
17 -3 7 -9z m50 -73 c3 -72 5 -83 22 -86 18 -4 19 1 13 82 -3 49 -2 86 3 86 5
0 10 -37 12 -82 3 -72 5 -83 22 -86 18 -4 19 1 13 84 -4 53 -3 84 3 78 5 -5
10 -43 12 -84 3 -63 6 -75 21 -78 17 -3 18 3 13 80 -3 53 -2 72 3 53 5 -16 9
-51 10 -77 1 -44 3 -48 26 -48 14 0 25 -4 25 -10 0 -6 -43 -10 -108 -10 l-108
0 4 38 c2 21 -1 61 -6 90 -7 41 -7 52 4 52 10 0 14 -22 16 -82z m3245 45 c-3
-10 -5 -4 -5 12 0 17 2 24 5 18 2 -7 2 -21 0 -30z m-3060 -65 c-2 -18 -4 -4
-4 32 0 36 2 50 4 33 2 -18 2 -48 0 -65z m53 17 c0 -68 2 -75 20 -75 18 0 19
5 15 78 -6 92 1 85 10 -10 5 -52 10 -68 22 -68 13 0 15 12 10 78 -3 46 -2 67
3 52 4 -14 8 -49 9 -77 l1 -53 59 0 60 0 -4 73 c-5 80 0 73 10 -15 l6 -57 67
-3 c47 -2 21 -6 -85 -12 -120 -6 -153 -11 -153 -22 0 -11 25 -14 127 -14 223
0 127 -8 -182 -15 -311 -8 -399 -2 -145 9 80 3 155 6 168 6 13 0 22 6 22 15 0
11 -11 15 -36 15 -31 0 -35 2 -24 15 8 10 11 39 8 85 -2 38 0 70 4 70 4 0 8
-34 8 -75z m527 69 c-3 -3 -12 -4 -19 -1 -8 3 -5 6 6 6 11 1 17 -2 13 -5z
m2591 -19 c-1 -14 -6 -25 -10 -25 -4 0 -8 11 -8 25 0 14 4 25 10 25 5 0 9 -11
8 -25z m732 10 c0 -8 -4 -15 -10 -15 -5 0 -7 7 -4 15 4 8 8 15 10 15 2 0 4 -7
4 -15z m-3683 -62 c-2 -16 -4 -5 -4 22 0 28 2 40 4 28 2 -13 2 -35 0 -50z m80
30 c-3 -10 -5 -4 -5 12 0 17 2 24 5 18 2 -7 2 -21 0 -30z m40 5 c-3 -7 -5 -2
-5 12 0 14 2 19 5 13 2 -7 2 -19 0 -25z m86 19 c-2 -4 -3 -23 -3 -42 0 -28 -4
-35 -19 -35 -21 0 -31 19 -31 60 0 25 3 29 28 27 15 -1 26 -6 25 -10z m64 -44
c-3 -10 -5 -2 -5 17 0 19 2 27 5 18 2 -10 2 -26 0 -35z m-310 -45 c-2 -18 -4
-6 -4 27 0 33 2 48 4 33 2 -15 2 -42 0 -60z m711 76 c17 -5 22 -14 22 -40 0
-37 -26 -49 -36 -16 -3 9 -10 25 -15 34 -16 30 -12 33 29 22z m-431 -71 c-2
-16 -4 -5 -4 22 0 28 2 40 4 28 2 -13 2 -35 0 -50z m1280 30 c-3 -10 -5 -4 -5
12 0 17 2 24 5 18 2 -7 2 -21 0 -30z m2163 29 c0 -5 -7 -9 -15 -9 -8 0 -12 4
-9 9 3 4 9 8 15 8 5 0 9 -4 9 -8z m-852 -9 c-10 -2 -26 -2 -35 0 -10 3 -2 5
17 5 19 0 27 -2 18 -5z m-2751 -45 c-3 -7 -5 -2 -5 12 0 14 2 19 5 13 2 -7 2
-19 0 -25z m3608 1 c0 -7 -8 -15 -17 -17 -12 -2 -18 3 -18 16 0 14 6 19 18 18
9 -2 17 -9 17 -17z m-3137 -56 c-42 -2 -114 -2 -160 0 -46 1 -11 3 77 3 88 0
125 -2 83 -3z m570 0 c-10 -2 -28 -2 -40 0 -13 2 -5 4 17 4 22 1 32 -1 23 -4z
m-961 -45 c-3 -7 -5 -2 -5 12 0 14 2 19 5 13 2 -7 2 -19 0 -25z m1514 -8 c5 0
9 -4 9 -10 0 -5 -11 -10 -24 -10 -14 0 -28 5 -31 10 -3 6 1 10 9 10 9 0 15 3
15 8 -3 17 4 25 8 10 2 -10 9 -18 14 -18z m-1089 9 c-22 -7 -43 -7 -60 0 -23
8 -17 9 33 9 55 0 57 -1 27 -9z m945 5 c-3 -3 -12 -4 -19 -1 -8 3 -5 6 6 6 11
1 17 -2 13 -5z m86 -1 c-7 -2 -21 -2 -30 0 -10 3 -4 5 12 5 17 0 24 -2 18 -5z
m157 -10 c0 -12 -3 -14 -8 -6 -4 6 -28 13 -52 16 l-45 4 53 1 c44 2 52 -1 52
-15z m780 7 c0 -5 -17 -9 -37 -9 l-38 2 35 7 c19 4 36 8 38 9 1 0 2 -3 2 -9z
m-1830 -16 c0 -2 -15 -4 -32 -4 -23 0 -29 3 -19 9 12 8 51 4 51 -5z m1917 10
c-3 -3 -12 -4 -19 -1 -8 3 -5 6 6 6 11 1 17 -2 13 -5z m-3247 -12 c0 -4 -28
-8 -63 -9 -39 -2 -57 0 -48 6 17 11 111 13 111 3z m3625 -2 c-3 -5 -11 -10
-16 -10 -6 0 -7 5 -4 10 3 6 11 10 16 10 6 0 7 -4 4 -10z m-2988 -6 c-3 -3
-12 -4 -19 -1 -8 3 -5 6 6 6 11 1 17 -2 13 -5z m101 -1 c-15 -2 -42 -2 -60 0
-18 2 -6 4 27 4 33 0 48 -2 33 -4z m341 2 c-10 -10 -283 -25 -291 -17 -6 6 20
10 63 11 40 1 75 4 78 6 2 3 38 5 79 5 42 0 73 -2 71 -5z m971 -9 c0 -15 -27
-25 -47 -19 -7 3 -13 8 -13 13 0 7 10 11 53 19 4 0 7 -5 7 -13z m1733 7 c-13
-2 -33 -2 -45 0 -13 2 -3 4 22 4 25 0 35 -2 23 -4z m-1721 -51 c-8 -2 -19 1
-25 7 -8 8 -6 11 6 11 9 0 17 8 18 18 1 11 4 8 8 -8 5 -18 3 -26 -7 -28z
m2334 20 c-10 -2 -22 0 -28 6 -6 6 0 7 19 4 21 -5 23 -7 9 -10z m-3376 -4
c-234 -27 -243 -28 -226 -11 8 9 137 20 231 20 l70 0 -75 -9z m975 -8 c3 -5 1
-10 -4 -10 -6 0 -11 5 -11 10 0 6 2 10 4 10 3 0 8 -4 11 -10z m301 -1 c6 -10
-11 -29 -26 -29 -3 0 -11 4 -19 9 -17 11 -5 31 19 31 10 0 22 -5 26 -11z
m-1243 -9 c-18 -4 -79 -10 -135 -13 -57 -3 -92 -3 -78 -1 40 7 182 21 215 22
l30 0 -32 -8z m2854 -12 c-3 -8 -6 -5 -6 6 -1 11 2 17 5 13 3 -3 4 -12 1 -19z
m-787 -2 c0 -8 -51 -13 -56 -5 -3 5 9 9 25 9 17 0 31 -2 31 -4z m47 -2 c-3 -3
-12 -4 -19 -1 -8 3 -5 6 6 6 11 1 17 -2 13 -5z m-2063 -20 c7 -17 7 -55 0 -39
-6 16 -304 -19 -315 -36 -15 -24 -10 -33 9 -16 36 32 305 50 316 21 4 -10 -2
-12 -22 -8 -16 3 -82 -2 -147 -11 -83 -11 -121 -13 -123 -6 -4 13 -22 4 -22
-10 0 -6 5 -7 10 -4 6 3 10 -3 10 -15 0 -20 4 -21 43 -16 l42 5 -35 -10 c-19
-6 -43 -15 -52 -20 -12 -6 -18 -6 -18 1 0 5 5 10 11 10 5 0 -2 10 -16 23 -26
22 -27 24 -14 65 7 23 19 48 27 55 17 13 97 23 213 25 62 2 78 -1 83 -14z
m3280 -9 c-4 -8 -10 -15 -16 -15 -5 0 -16 7 -24 15 -14 13 -12 15 15 15 23 0
29 -4 25 -15z m-2274 -5 c11 -7 0 -10 -37 -10 -28 0 -55 5 -58 10 -8 13 75 13
95 0z m133 -2 c26 1 47 -2 47 -7 0 -9 -116 -14 -131 -5 -16 9 2 26 20 18 9 -4
37 -7 64 -6z m1837 -2 c0 -3 -4 -8 -10 -11 -5 -3 -10 -1 -10 4 0 6 5 11 10 11
6 0 10 -2 10 -4z m-1753 -12 c-3 -3 -12 -4 -19 -1 -8 3 -5 6 6 6 11 1 17 -2
13 -5z m791 -1 c-26 -2 -71 -2 -100 0 -29 2 -8 3 47 3 55 0 79 -1 53 -3z
m1242 -21 c0 -4 16 -14 35 -21 32 -11 35 -16 35 -52 l0 -39 -40 2 c-32 1 -40
5 -40 20 0 10 -3 18 -7 18 -5 0 -13 11 -20 25 -9 20 -8 28 4 40 16 16 33 20
33 7z m-2287 -9 c-7 -2 -21 -2 -30 0 -10 3 -4 5 12 5 17 0 24 -2 18 -5z m486
-19 c7 -7 -321 -2 -394 5 -38 4 34 5 160 3 127 -3 232 -6 234 -8z m646 3 c22
-2 -17 -4 -87 -5 -71 -1 -128 1 -128 6 0 6 120 6 215 -1z m-2148 -13 c-3 -3
-12 -4 -19 -1 -8 3 -5 6 6 6 11 1 17 -2 13 -5z m1100 0 c-3 -3 -12 -4 -19 -1
-8 3 -5 6 6 6 11 1 17 -2 13 -5z m1458 -4 c-3 -5 -11 -10 -16 -10 -6 0 -7 5
-4 10 3 6 11 10 16 10 6 0 7 -4 4 -10z m241 -36 c-7 -19 -22 -18 -30 2 -3 8
-2 12 3 9 5 -3 13 5 17 17 7 20 8 20 12 5 2 -10 1 -25 -2 -33z m-2858 29 c-10
-2 -28 -2 -40 0 -13 2 -5 4 17 4 22 1 32 -1 23 -4z m130 -40 c-6 -7 -16 -13
-22 -13 -7 0 -6 3 2 8 8 5 10 16 5 27 -6 17 -5 18 9 5 11 -11 13 -19 6 -27z
m-271 21 c-3 -3 -12 -4 -19 -1 -8 3 -5 6 6 6 11 1 17 -2 13 -5z m226 -7 c-3
-4 -7 -6 -10 -3 -3 3 -15 1 -26 -5 -14 -8 -18 -8 -13 0 4 6 3 11 -3 11 -5 0
-12 -4 -15 -8 -2 -4 -24 -5 -48 -3 l-43 5 45 7 c62 9 120 7 113 -4z m2150 -4
c-23 -2 -64 -2 -90 0 -26 2 -7 3 42 3 50 0 71 -1 48 -3z m-1328 -23 c19 -8 19
-9 -2 -9 -12 -1 -25 4 -28 9 -7 12 2 12 30 0z m2280 -10 c3 -5 32 -10 64 -10
32 0 86 -3 120 -6 l61 -7 0 -57 c0 -32 -3 -72 -6 -89 -6 -28 -10 -31 -44 -31
-23 0 -40 5 -43 14 -4 10 -36 16 -119 21 -74 4 -132 13 -168 27 -93 34 -105
42 -108 71 -3 27 -2 27 55 28 32 0 52 3 45 6 -8 3 -1 12 20 23 36 20 113 26
123 10z m-472 -20 c-6 -23 -31 -46 -40 -37 -7 8 24 57 36 57 5 0 7 -9 4 -20z
m-1435 5 c-10 -11 -48 -14 -48 -4 0 5 12 9 27 9 14 0 24 -2 21 -5z m132 -5
c-10 -6 9 -10 60 -13 48 -2 34 -3 -40 -3 -63 -1 -98 1 -77 3 20 2 35 8 32 14
-4 5 4 9 17 9 18 0 20 -2 8 -10z m828 3 c-16 -2 -40 -2 -55 0 -16 2 -3 4 27 4
30 0 43 -2 28 -4z m297 -3 c3 -5 1 -10 -4 -10 -6 0 -11 5 -11 10 0 6 2 10 4
10 3 0 8 -4 11 -10z m260 -30 c-3 -5 -17 -10 -31 -10 -14 0 -22 4 -19 10 3 6
17 10 31 10 14 0 22 -4 19 -10z m75 0 c0 -5 -7 -10 -16 -10 -8 0 -12 5 -9 10
3 6 10 10 16 10 5 0 9 -4 9 -10z m-2986 -16 c5 -14 4 -15 -9 -4 -17 14 -19 20
-6 20 5 0 12 -7 15 -16z m2339 -1 c-7 -2 -19 -2 -25 0 -7 3 -2 5 12 5 14 0 19
-2 13 -5z m-745 -40 c-10 -2 -26 -2 -35 0 -10 3 -2 5 17 5 19 0 27 -2 18 -5z
m-2025 -50 c-7 -2 -21 -2 -30 0 -10 3 -4 5 12 5 17 0 24 -2 18 -5z m90 0 c-7
-2 -21 -2 -30 0 -10 3 -4 5 12 5 17 0 24 -2 18 -5z m-160 -10 c-7 -2 -19 -2
-25 0 -7 3 -2 5 12 5 14 0 19 -2 13 -5z m2919 -27 c4 -6 8 -20 8 -31 0 -19 -4
-20 -92 -14 -88 7 -123 1 -139 -23 -3 -5 -20 -10 -37 -11 -21 -1 -34 -8 -38
-19 -3 -10 -14 -18 -25 -18 -11 0 -18 -4 -15 -8 5 -9 -29 -14 -104 -15 -30 0
-58 -5 -62 -11 -4 -6 -8 6 -8 27 0 37 7 43 47 38 6 -1 13 9 15 21 3 20 9 23
58 26 l55 3 -24 18 c-24 19 -24 19 80 29 118 11 270 5 281 -12z m163 -6 c-18
-20 -51 -28 -40 -10 3 6 -1 10 -9 10 -9 0 -16 5 -16 10 0 6 19 10 42 10 40 0
41 0 23 -20z m135 1 c0 -23 -16 -36 -25 -21 -9 14 1 40 15 40 5 0 10 -9 10
-19z m-1772 0 c9 -2 0 -41 -10 -41 -8 0 -8 -4 2 -13 15 -14 131 -32 426 -67
83 -10 160 -23 172 -29 11 -6 28 -8 38 -4 13 5 16 3 11 -10 -4 -11 -1 -17 8
-17 8 0 15 6 15 14 0 15 57 33 68 21 8 -8 -26 -35 -44 -35 -17 0 -124 -72
-150 -101 -12 -13 -34 -44 -50 -69 -16 -25 -32 -49 -35 -53 -4 -5 -16 -3 -28
5 -18 11 -23 11 -30 -1 -5 -7 -14 -10 -20 -7 -6 4 -10 3 -9 -3 3 -11 -178 -99
-222 -108 -14 -3 -42 -5 -62 -6 -31 -1 -35 -4 -28 -18 7 -12 -1 -28 -34 -63
l-42 -47 -59 16 c-83 21 -100 19 -163 -19 -41 -24 -79 -38 -132 -46 -83 -13
-149 -46 -181 -90 -15 -20 -34 -31 -62 -36 -23 -3 -57 -17 -77 -30 -40 -27
-119 -53 -138 -46 -10 3 -9 9 4 24 16 16 16 21 4 28 -10 6 -11 10 -3 10 7 0
10 7 7 15 -4 8 -1 15 6 15 9 0 10 11 6 35 -6 29 -4 35 11 36 17 1 17 2 0 6
-16 4 -18 11 -12 51 4 26 10 52 13 57 4 6 8 19 9 30 2 11 8 39 14 61 6 23 9
70 6 105 -5 78 -1 95 20 78 12 -10 16 -10 24 2 8 11 9 10 7 -6 -1 -11 1 -21 6
-22 5 -1 13 -7 18 -15 7 -10 11 -10 15 0 2 6 12 12 21 12 11 0 13 3 6 8 -22
14 -54 88 -43 99 20 20 -9 51 -62 68 -27 9 -52 15 -55 12 -3 -2 9 -9 25 -15
33 -12 44 -27 12 -17 -11 3 -22 1 -26 -5 -3 -5 -17 -10 -31 -10 -22 0 -24 3
-19 30 5 28 3 30 -27 30 -18 0 -46 -7 -62 -15 -18 -9 -45 -14 -68 -11 -21 2
-38 1 -38 -3 0 -4 -9 -7 -20 -8 -23 -2 -24 1 -10 26 9 17 3 18 -83 15 -75 -3
-84 -1 -52 6 22 6 81 10 131 10 l91 0 6 30 c6 27 10 30 44 30 91 1 373 39 373
51 0 3 12 7 26 7 15 0 30 5 34 12 5 9 53 13 166 15 88 2 173 8 189 14 22 7
117 9 153 2z m-518 -11 c0 -13 -20 -13 -40 0 -12 8 -9 10 13 10 15 0 27 -4 27
-10z m2035 -29 c-9 -16 -25 -3 -18 15 4 10 9 12 15 6 6 -6 7 -15 3 -21z m-725
-16 c0 -8 -9 -15 -20 -15 -22 0 -27 15 -7 23 21 9 27 7 27 -8z m-1740 -19 c0
-2 -7 -6 -15 -10 -8 -3 -15 -1 -15 4 0 6 7 10 15 10 8 0 15 -2 15 -4z m2190
-16 c0 -5 -5 -10 -11 -10 -5 0 -7 5 -4 10 3 6 8 10 11 10 2 0 4 -4 4 -10z
m-35 -10 c3 -6 -1 -7 -9 -4 -18 7 -21 14 -7 14 6 0 13 -4 16 -10z m-2540 -40
c48 0 36 -17 -15 -23 -20 -2 -41 -6 -48 -10 -10 -7 -52 24 -52 39 0 4 17 4 38
0 20 -3 55 -6 77 -6z m2678 3 c-7 -2 -19 -2 -25 0 -7 3 -2 5 12 5 14 0 19 -2
13 -5z m-2563 -7 c0 -2 -7 -7 -16 -10 -8 -3 -12 -2 -9 4 6 10 25 14 25 6z m53
-3 c-7 -2 -21 -2 -30 0 -10 3 -4 5 12 5 17 0 24 -2 18 -5z m-268 -23 c-3 -5
-12 -10 -18 -10 -7 0 -6 4 3 10 19 12 23 12 15 0z m2422 -12 c-3 -8 -6 -5 -6
6 -1 11 2 17 5 13 3 -3 4 -12 1 -19z m163 14 c0 -4 -9 -8 -20 -9 -11 -1 -18 2
-15 8 7 11 35 12 35 1z m-2483 -18 c-3 -3 -12 -4 -19 -1 -8 3 -5 6 6 6 11 1
17 -2 13 -5z m-52 -34 c-18 -20 -17 -20 44 -20 39 0 60 -4 56 -10 -4 -6 12
-10 41 -10 33 0 51 5 60 17 7 10 16 15 20 11 4 -5 0 -16 -9 -25 -8 -10 -16
-22 -18 -28 -1 -5 -5 -19 -10 -30 -6 -16 -8 -14 -8 13 -1 31 -2 32 -46 32 -31
0 -47 -5 -51 -15 -10 -25 -25 -17 -18 10 6 24 5 25 -42 23 l-49 -1 45 -7 45
-7 -52 -1 c-38 -2 -55 -7 -62 -19 -5 -10 -13 -15 -16 -11 -4 4 5 19 19 35 36
39 33 47 -16 39 -23 -4 -40 -5 -37 -2 6 7 77 24 103 25 18 1 18 0 1 -19z
m2755 -1 c0 -5 -4 -9 -10 -9 -5 0 -10 7 -10 16 0 8 5 12 10 9 6 -3 10 -10 10
-16z m27 -1 c-3 -8 -6 -5 -6 6 -1 11 2 17 5 13 3 -3 4 -12 1 -19z m98 12 c3
-6 -1 -7 -9 -4 -18 7 -21 14 -7 14 6 0 13 -4 16 -10z m-734 -31 c-25 -21 -56
-25 -66 -9 -3 6 -5 10 -3 10 2 0 21 7 43 14 48 17 58 11 26 -15z m549 -29 c0
-5 -4 -10 -10 -10 -5 0 -10 5 -10 10 0 6 5 10 10 10 6 0 10 -4 10 -10z m-523
-6 c-3 -3 -12 -4 -19 -1 -8 3 -5 6 6 6 11 1 17 -2 13 -5z m454 -31 c13 -16 12
-17 -3 -4 -10 7 -18 15 -18 17 0 8 8 3 21 -13z m256 3 c4 -7 19 -17 33 -21 25
-7 25 -7 5 10 -19 16 -19 16 15 11 91 -16 24 -44 -75 -31 -61 7 -78 21 -43 34
34 14 56 13 65 -3z m-3096 -13 c13 -16 12 -17 -3 -4 -10 7 -18 15 -18 17 0 8
8 3 21 -13z m3355 1 c-3 -9 -6 -18 -6 -20 0 -2 -14 -4 -31 -4 -18 0 -28 4 -24
10 4 6 15 8 26 5 11 -4 19 -3 18 2 -3 16 1 23 12 23 6 0 8 -7 5 -16z m-979 0
c-3 -3 -12 -4 -19 -1 -8 3 -5 6 6 6 11 1 17 -2 13 -5z m913 -44 c26 -26 26
-50 0 -50 -21 0 -45 43 -34 61 8 13 11 12 34 -11z m-1130 -10 c0 -5 -5 -10
-11 -10 -5 0 -7 5 -4 10 3 6 8 10 11 10 2 0 4 -4 4 -10z m757 -16 c-3 -3 -12
-4 -19 -1 -8 3 -5 6 6 6 11 1 17 -2 13 -5z m235 -40 c-3 -24 -7 -32 -13 -23
-4 7 -6 16 -5 19 2 3 6 13 9 23 10 27 13 20 9 -19z m-458 11 c-4 -8 -10 -12
-15 -9 -11 6 -2 24 11 24 5 0 7 -7 4 -15z m86 8 c-8 -3 -24 -10 -35 -15 -20
-9 -20 -9 -1 6 11 9 27 16 35 15 14 0 14 -1 1 -6z m-2673 -9 c-3 -3 -12 -4
-19 -1 -8 3 -5 6 6 6 11 1 17 -2 13 -5z m2713 -4 c0 -5 -8 -10 -17 -10 -15 0
-16 2 -3 10 19 12 20 12 20 0z m208 -22 c-21 -64 -28 -76 -25 -43 3 27 22 75
31 75 3 0 0 -15 -6 -32z m-2881 16 c-3 -3 -12 -4 -19 -1 -8 3 -5 6 6 6 11 1
17 -2 13 -5z m2743 -20 c0 -8 -4 -14 -8 -14 -4 0 -8 9 -8 19 0 11 4 17 8 15 4
-3 8 -12 8 -20z m-2705 6 c3 -6 -1 -7 -9 -4 -18 7 -21 14 -7 14 6 0 13 -4 16
-10z m2760 0 c-3 -5 -11 -10 -16 -10 -6 0 -7 5 -4 10 3 6 11 10 16 10 6 0 7
-4 4 -10z m135 0 c8 -5 11 -10 5 -10 -5 0 -17 5 -25 10 -8 5 -10 10 -5 10 6 0
17 -5 25 -10z m-400 -22 c0 -6 -6 -5 -15 2 -8 7 -15 14 -15 16 0 2 7 1 15 -2
8 -4 15 -11 15 -16z m57 -4 c-3 -3 -12 -4 -19 -1 -8 3 -5 6 6 6 11 1 17 -2 13
-5z m103 -19 c14 -19 14 -19 -2 -6 -10 7 -18 18 -18 24 0 6 1 8 3 6 1 -2 9
-13 17 -24z m234 -24 c-7 -9 -24 13 -24 32 0 21 1 21 13 -3 8 -14 12 -27 11
-29z m-287 33 c-3 -3 -12 -4 -19 -1 -8 3 -5 6 6 6 11 1 17 -2 13 -5z m544 -21
c13 -16 12 -17 -3 -4 -10 7 -18 15 -18 17 0 8 8 3 21 -13z m49 -3 c8 -5 11
-10 5 -10 -5 0 -17 5 -25 10 -8 5 -10 10 -5 10 6 0 17 -5 25 -10z m47 4 c-3
-3 -12 -4 -19 -1 -8 3 -5 6 6 6 11 1 17 -2 13 -5z m-234 -11 c-7 -2 -21 -2
-30 0 -10 3 -4 5 12 5 17 0 24 -2 18 -5z m-1493 -39 c0 -8 -5 -12 -10 -9 -6 4
-8 11 -5 16 9 14 15 11 15 -7z m425 6 c-3 -5 -11 -10 -16 -10 -6 0 -7 5 -4 10
3 6 11 10 16 10 6 0 7 -4 4 -10z m-305 -20 c6 -11 9 -20 7 -20 -2 0 -12 9 -22
20 -10 11 -13 20 -7 20 6 0 16 -9 22 -20z m1721 2 c-7 -2 -18 1 -23 6 -8 8 -4
9 13 5 13 -4 18 -8 10 -11z m-1237 -6 c-10 -8 -21 -12 -24 -10 -5 6 21 24 34
24 6 0 1 -6 -10 -14z m-527 -2 c-3 -3 -12 -4 -19 -1 -8 3 -5 6 6 6 11 1 17 -2
13 -5z m573 -34 c0 -5 -7 -10 -16 -10 -8 0 -12 5 -9 10 3 6 10 10 16 10 5 0 9
-4 9 -10z m-296 -16 c3 -8 2 -12 -4 -9 -6 3 -10 10 -10 16 0 14 7 11 14 -7z
m266 -14 c-20 -13 -43 -13 -35 0 3 6 16 10 28 10 18 0 19 -2 7 -10z m-38 -40
c-13 -11 -21 -24 -17 -30 9 -14 -17 -12 -37 4 -16 12 -16 14 5 24 55 26 80 28
49 2z m632 -15 c11 -8 29 -13 40 -10 21 5 21 5 0 -6 -17 -8 -28 -6 -55 10 -19
12 -27 21 -19 21 8 -1 24 -7 34 -15z m-14 -35 c0 -5 -7 -10 -15 -10 -8 0 -15
5 -15 10 0 6 7 10 15 10 8 0 15 -4 15 -10z m38 -22 c9 -9 7 -14 -6 -24 -15
-12 -13 -13 16 -14 41 0 34 -15 -10 -23 -18 -3 -41 -8 -50 -12 -11 -4 -18 -3
-18 4 0 6 3 10 8 10 19 -3 33 2 27 11 -3 5 -13 6 -23 3 -15 -6 -15 -5 -3 10 9
11 10 17 2 17 -20 0 -11 19 12 23 12 2 24 5 28 6 3 0 10 -4 17 -11z m448 -27
c5 -6 34 -12 64 -14 l55 -3 -66 -2 c-51 -2 -68 1 -73 13 -6 17 5 20 20 6z
m-1316 -20 c0 -14 -5 -18 -20 -14 -19 5 -20 6 -3 19 23 17 23 17 23 -5z m-10
-32 c12 -8 10 -9 -7 -4 -28 8 -31 -3 -4 -13 25 -10 10 -52 -19 -52 -22 0 -27
16 -7 23 10 4 10 7 0 18 -30 31 1 54 37 28z m1590 -9 c0 -5 8 -11 18 -11 16
-1 16 -2 0 -6 -29 -7 -21 -21 15 -25 22 -3 15 -5 -26 -8 -45 -4 -54 -2 -42 7
9 6 17 20 18 32 1 21 17 31 17 11z m-760 -10 c0 -5 11 -12 25 -16 28 -7 34
-23 8 -22 -10 0 -25 -2 -34 -6 -12 -5 -16 0 -17 24 0 16 4 30 9 30 5 0 9 -4 9
-10z m1004 -20 c25 0 18 -5 -17 -14 -18 -4 -26 -3 -23 3 4 5 1 11 -6 14 -7 2
-4 3 7 1 11 -2 29 -4 39 -4z m-1946 -23 c3 -13 -4 -17 -25 -16 -15 0 -22 3
-15 6 6 2 12 11 12 20 0 20 24 11 28 -10z m2048 -32 c-3 -9 -17 -15 -33 -14
-27 0 -27 1 -5 9 12 5 25 17 29 27 4 11 8 13 11 5 2 -7 1 -19 -2 -27z m-48 13
c-16 -5 -28 -14 -28 -19 0 -5 -6 -9 -14 -9 -8 0 -14 8 -13 19 1 15 9 18 42 18
38 0 38 -1 13 -9z m-1021 -4 c-3 -3 -12 -4 -19 -1 -8 3 -5 6 6 6 11 1 17 -2
13 -5z"/>
<path d="M10650 3770 c0 -5 5 -10 10 -10 6 0 10 5 10 10 0 6 -4 10 -10 10 -5
0 -10 -4 -10 -10z"/>
<path d="M11403 3343 c9 -2 23 -2 30 0 6 3 -1 5 -18 5 -16 0 -22 -2 -12 -5z"/>
<path d="M10165 3340 c-3 -5 -1 -10 4 -10 6 0 11 5 11 10 0 6 -2 10 -4 10 -3
0 -8 -4 -11 -10z"/>
<path d="M9175 3190 c-8 -13 15 -13 35 0 12 8 11 10 -7 10 -12 0 -25 -4 -28
-10z"/>
<path d="M10810 3190 c0 -5 -7 -10 -16 -10 -8 0 -12 -5 -9 -10 4 -7 13 -7 26
0 20 11 26 30 9 30 -5 0 -10 -4 -10 -10z"/>
<path d="M10675 3180 c3 -5 8 -10 11 -10 2 0 4 5 4 10 0 6 -5 10 -11 10 -5 0
-7 -4 -4 -10z"/>
<path d="M10358 3143 c7 -3 16 -2 19 1 4 3 -2 6 -13 5 -11 0 -14 -3 -6 -6z"/>
<path d="M10045 3100 c3 -5 8 -10 11 -10 2 0 4 5 4 10 0 6 -5 10 -11 10 -5 0
-7 -4 -4 -10z"/>
<path d="M10500 3011 c0 -5 7 -11 15 -15 8 -3 15 -1 15 3 0 5 -7 11 -15 15 -8
3 -15 1 -15 -3z"/>
<path d="M9730 3006 c0 -2 9 -6 20 -9 11 -3 20 -1 20 4 0 5 -9 9 -20 9 -11 0
-20 -2 -20 -4z"/>
<path d="M9550 2935 c-7 -8 -8 -15 -2 -15 5 0 15 7 22 15 7 8 8 15 2 15 -5 0
-15 -7 -22 -15z"/>
<path d="M9746 2942 c-2 -4 4 -9 15 -9 11 -1 17 2 14 8 -7 11 -22 12 -29 1z"/>
<path d="M10177 2933 c-12 -12 -7 -19 14 -20 17 -2 18 1 9 13 -14 16 -14 16
-23 7z"/>
<path d="M9820 2910 c0 -5 5 -10 10 -10 6 0 10 5 10 10 0 6 -4 10 -10 10 -5 0
-10 -4 -10 -10z"/>
<path d="M9915 2890 c3 -5 8 -10 11 -10 2 0 4 5 4 10 0 6 -5 10 -11 10 -5 0
-7 -4 -4 -10z"/>
<path d="M9983 2881 c0 -11 5 -17 9 -15 11 7 10 34 -1 34 -6 0 -9 -9 -8 -19z"/>
<path d="M10178 2893 c7 -3 16 -2 19 1 4 3 -2 6 -13 5 -11 0 -14 -3 -6 -6z"/>
<path d="M10170 2870 c-13 -8 -12 -10 3 -10 9 0 17 5 17 10 0 12 -1 12 -20 0z"/>
<path d="M9891 2861 c-7 -5 -9 -11 -5 -14 5 -3 15 1 22 9 14 16 5 18 -17 5z"/>
<path d="M9936 2845 c4 -8 10 -15 15 -15 5 0 9 7 9 15 0 8 -7 15 -15 15 -9 0
-12 -6 -9 -15z"/>
<path d="M10045 2850 c-8 -13 -1 -24 14 -19 6 3 7 10 2 18 -6 10 -10 10 -16 1z"/>
<path d="M9655 2770 c-3 -5 -1 -10 4 -10 6 0 11 5 11 10 0 6 -2 10 -4 10 -3 0
-8 -4 -11 -10z"/>
<path d="M9700 2750 c-8 -5 -11 -12 -8 -16 4 -3 14 1 23 10 18 17 9 21 -15 6z"/>
<path d="M9600 2730 c0 -5 5 -10 11 -10 5 0 7 5 4 10 -3 6 -8 10 -11 10 -2 0
-4 -4 -4 -10z"/>
<path d="M9765 2730 c3 -5 14 -10 23 -10 15 0 15 2 2 10 -20 13 -33 13 -25 0z"/>
<path d="M9455 2700 c3 -5 11 -10 16 -10 6 0 7 5 4 10 -3 6 -11 10 -16 10 -6
0 -7 -4 -4 -10z"/>
<path d="M9697 2693 c-3 -5 6 -9 20 -10 19 -1 22 1 12 8 -17 11 -26 11 -32 2z"/>
<path d="M9788 2693 c-10 -2 -18 -9 -18 -14 0 -6 8 -5 20 1 11 6 20 13 20 15
0 3 -1 4 -2 4 -2 -1 -11 -3 -20 -6z"/>
<path d="M9480 2660 c0 -5 5 -10 10 -10 6 0 10 5 10 10 0 6 -4 10 -10 10 -5 0
-10 -4 -10 -10z"/>
<path d="M9620 2660 c0 -5 5 -10 11 -10 5 0 7 5 4 10 -3 6 -8 10 -11 10 -2 0
-4 -4 -4 -10z"/>
<path d="M9680 2660 c-13 -8 -12 -10 3 -10 9 0 17 5 17 10 0 12 -1 12 -20 0z"/>
<path d="M9720 2660 c0 -5 5 -10 10 -10 6 0 10 5 10 10 0 6 -4 10 -10 10 -5 0
-10 -4 -10 -10z"/>
<path d="M9331 4445 c-1 -134 1 -145 19 -155 14 -7 20 -21 20 -43 0 -24 3 -28
10 -17 15 23 12 60 -5 60 -12 0 -15 13 -15 58 0 95 -12 242 -20 242 -4 0 -8
-65 -9 -145z"/>
<path d="M9890 4581 c0 -6 5 -13 10 -16 6 -4 8 -11 5 -16 -4 -5 0 -9 8 -9 8 0
17 9 20 20 3 12 14 20 26 20 23 0 29 -16 9 -23 -7 -2 1 -4 17 -4 17 0 24 2 17
4 -10 4 -8 9 5 19 16 12 10 13 -49 14 -38 0 -68 -4 -68 -9z"/>
<path d="M10491 4574 c0 -11 3 -14 6 -6 3 7 2 16 -1 19 -3 4 -6 -2 -5 -13z"/>
<path d="M10543 4555 c0 -22 2 -30 4 -17 2 12 2 30 0 40 -3 9 -5 -1 -4 -23z"/>
<path d="M6110 4559 c0 -4 4 -10 10 -14 5 -3 7 -12 3 -20 -4 -11 2 -15 22 -15
48 0 21 -25 -31 -28 -27 -2 -53 -8 -59 -14 -7 -8 -6 -9 3 -4 7 5 12 1 12 -9 0
-10 4 -13 13 -8 6 4 24 8 38 9 14 1 35 5 47 8 13 5 22 3 22 -3 0 -6 -15 -15
-32 -20 -31 -9 -31 -9 19 -10 46 -1 51 1 46 19 -4 15 0 20 16 20 11 0 21 3 21
8 0 4 -18 6 -40 4 -32 -3 -40 -1 -40 12 0 9 6 16 14 16 8 0 17 7 20 16 4 10 2
13 -6 8 -17 -11 -68 -13 -68 -3 0 6 10 13 22 18 20 7 18 9 -15 13 -20 2 -37 1
-37 -3z"/>
<path d="M6198 4553 c6 -2 18 -2 25 0 6 3 1 5 -13 5 -14 0 -19 -2 -12 -5z"/>
<path d="M6348 4504 c-2 -32 -2 -63 1 -69 9 -15 19 98 11 114 -5 9 -10 -10
-12 -45z"/>
<path d="M10137 4546 c-8 -20 3 -56 17 -56 7 0 6 -4 -2 -9 -11 -6 -10 -10 4
-15 10 -4 15 -4 11 0 -4 4 -2 13 4 21 8 9 8 17 0 26 -6 8 -9 16 -7 18 2 2 -2
9 -9 16 -10 10 -14 9 -18 -1z"/>
<path d="M10325 4550 c-3 -5 -13 -7 -23 -4 -9 3 -4 -2 11 -11 16 -9 31 -14 35
-11 3 3 0 6 -7 6 -8 0 -11 7 -7 15 6 17 0 20 -9 5z"/>
<path d="M10065 4528 c2 -17 -1 -28 -8 -29 -7 0 -1 -4 11 -10 15 -6 30 -5 40
1 11 6 12 9 4 10 -7 0 -10 4 -7 10 3 5 0 7 -8 4 -8 -3 -18 5 -25 18 -11 22
-11 22 -7 -4z"/>
<path d="M10204 4534 c-18 -9 -21 -12 -6 -8 16 4 22 1 22 -10 0 -9 6 -16 13
-16 8 0 7 -4 -3 -11 -12 -8 -12 -10 -1 -7 26 7 36 34 20 51 -13 13 -19 13 -45
1z"/>
<path d="M10410 4540 c13 -9 13 -10 0 -10 -13 0 -13 -1 0 -10 21 -14 30 -12
30 4 0 8 -7 17 -16 20 -24 9 -31 7 -14 -4z"/>
<path d="M5452 4520 c0 -14 2 -19 5 -12 2 6 2 18 0 25 -3 6 -5 1 -5 -13z"/>
<path d="M11291 4506 c-18 -19 -29 -36 -24 -39 13 -8 55 12 48 23 -3 5 -2 10
2 10 5 0 9 9 9 20 0 11 -1 20 -1 20 -1 0 -16 -15 -34 -34z"/>
<path d="M9904 4499 c0 -30 20 -46 32 -27 4 7 2 14 -4 16 -6 2 -9 9 -6 16 3 8
-1 16 -9 19 -9 3 -13 -3 -13 -24z"/>
<path d="M9976 4505 c14 -11 16 -15 4 -15 -13 -1 -13 -2 1 -10 8 -5 26 -6 39
-3 l24 6 -23 9 c-12 4 -19 12 -16 18 4 6 -5 10 -21 10 -27 0 -27 -1 -8 -15z"/>
<path d="M10540 4490 c0 -5 -8 -10 -17 -11 -14 0 -15 -2 -3 -6 8 -3 18 -11 22
-17 4 -6 8 1 8 17 0 15 -2 27 -5 27 -3 0 -5 -4 -5 -10z"/>
<path d="M5850 4440 c0 -5 9 -10 21 -10 11 0 17 5 14 10 -3 6 -13 10 -21 10
-8 0 -14 -4 -14 -10z"/>
<path d="M10067 4431 c4 -19 2 -23 -11 -18 -9 4 -16 4 -16 2 0 -7 72 -36 77
-31 3 2 -4 7 -14 10 -11 3 -24 18 -31 34 -9 22 -10 23 -5 3z"/>
<path d="M10405 4435 c17 -14 18 -17 5 -25 -12 -8 -10 -9 7 -7 35 5 35 12 0
31 -25 13 -28 14 -12 1z"/>
<path d="M6018 4433 c6 -2 18 -2 25 0 6 3 1 5 -13 5 -14 0 -19 -2 -12 -5z"/>
<path d="M9982 4429 c3 -8 -6 -19 -21 -27 -14 -7 -18 -10 -8 -7 10 3 27 0 37
-5 15 -8 19 -7 17 8 0 10 -7 25 -15 32 -13 11 -14 11 -10 -1z"/>
<path d="M9909 4408 c-6 -22 -5 -38 2 -38 6 0 8 -4 4 -9 -3 -5 0 -13 6 -17 7
-4 9 -3 5 4 -3 6 3 13 13 17 20 6 20 6 0 26 -17 17 -28 23 -30 17z"/>
<path d="M10540 4390 c0 -5 -8 -10 -17 -11 -14 0 -15 -2 -3 -6 8 -3 18 -11 22
-17 4 -6 8 1 8 17 0 15 -2 27 -5 27 -3 0 -5 -4 -5 -10z"/>
<path d="M10040 4365 c27 -14 36 -13 25 4 -3 6 -16 11 -28 11 -21 -1 -21 -1 3
-15z"/>
<path d="M7430 4356 c0 -9 5 -16 10 -16 6 0 10 4 10 9 0 6 -4 13 -10 16 -5 3
-10 -1 -10 -9z"/>
<path d="M4137 4315 c3 -8 9 -12 14 -9 12 7 11 11 -5 17 -10 4 -13 1 -9 -8z"/>
<path d="M4245 4311 c-3 -5 -1 -12 5 -16 5 -3 10 1 10 9 0 18 -6 21 -15 7z"/>
<path d="M10051 4288 c0 -9 -10 -23 -21 -31 -11 -8 -17 -17 -13 -20 3 -4 1 -7
-5 -7 -7 0 -12 11 -12 25 0 14 -4 25 -10 25 -15 0 -12 -33 5 -56 19 -25 19
-34 0 -34 -8 0 -15 -4 -15 -10 0 -13 107 -13 115 -1 3 5 -4 13 -16 16 -16 5
-18 9 -9 15 18 11 3 30 -18 23 -15 -6 -15 -4 -4 10 8 9 12 26 9 39 -2 13 -5
16 -6 6z m-1 -88 c0 -5 -4 -10 -10 -10 -5 0 -10 5 -10 10 0 6 5 10 10 10 6 0
10 -4 10 -10z"/>
<path d="M4310 4261 c0 -5 7 -12 16 -15 14 -5 15 -4 4 9 -14 17 -20 19 -20 6z"/>
<path d="M9477 4263 c-4 -3 -7 -13 -7 -22 1 -13 3 -13 11 2 11 19 8 33 -4 20z"/>
<path d="M6460 4195 c0 -8 3 -15 6 -15 3 0 12 7 20 15 14 13 13 15 -5 15 -12
0 -21 -6 -21 -15z"/>
<path d="M6115 4170 c-16 -7 -17 -9 -3 -9 9 -1 20 4 23 9 7 11 7 11 -20 0z"/>
<path d="M6168 4163 c7 -3 16 -2 19 1 4 3 -2 6 -13 5 -11 0 -14 -3 -6 -6z"/>
<path d="M6013 4123 c38 -4 38 -5 21 -24 -13 -15 -14 -19 -3 -19 8 0 19 11 26
25 11 25 11 25 -35 23 -45 -1 -46 -1 -9 -5z"/>
<path d="M6115 4120 c-3 -5 1 -10 9 -10 8 0 18 5 21 10 3 6 -1 10 -9 10 -8 0
-18 -4 -21 -10z"/>
<path d="M6203 4123 c9 -2 23 -2 30 0 6 3 -1 5 -18 5 -16 0 -22 -2 -12 -5z"/>
<path d="M11345 4110 c-3 -5 1 -10 9 -10 9 0 16 5 16 10 0 6 -4 10 -9 10 -6 0
-13 -4 -16 -10z"/>
<path d="M11418 4103 c7 -3 16 -2 19 1 4 3 -2 6 -13 5 -11 0 -14 -3 -6 -6z"/>
<path d="M6109 4088 c-10 -4 -19 -13 -19 -19 0 -8 4 -8 15 1 9 7 29 10 48 8
33 -6 57 -1 57 10 0 9 -76 9 -101 0z"/>
<path d="M5673 4083 c9 -2 23 -2 30 0 6 3 -1 5 -18 5 -16 0 -22 -2 -12 -5z"/>
<path d="M5783 4065 c-3 -9 -3 -18 -1 -21 3 -3 8 4 11 16 6 23 -1 27 -10 5z"/>
<path d="M6303 4059 c-6 -6 -53 -14 -104 -19 l-94 -8 77 1 c77 2 77 2 58 -17
-17 -17 -17 -21 -4 -31 14 -10 14 -17 0 -70 -8 -32 -13 -62 -11 -65 2 -4 -13
-12 -34 -19 -49 -14 -51 -14 -51 4 0 15 9 19 48 17 12 -1 22 3 22 8 0 9 -245
17 -280 9 -8 -2 -41 -3 -72 -4 -32 0 -58 -3 -58 -7 0 -7 16 -12 32 -9 6 1 120
1 201 0 26 0 16 -22 -14 -30 -19 -6 -11 -13 12 -11 3 1 43 2 88 3 45 1 84 6
87 11 7 12 34 -10 34 -28 0 -8 -8 -14 -18 -14 -9 0 -23 -9 -30 -21 -8 -12 -9
-18 -3 -14 6 3 11 2 11 -4 0 -5 -6 -12 -12 -14 -7 -3 4 -6 25 -6 42 -1 50 15
12 25 -26 6 -25 24 1 24 8 0 13 -4 10 -9 -3 -5 1 -12 10 -15 21 -8 24 -8 24 5
0 5 -5 7 -10 4 -7 -5 -8 3 -3 22 4 15 7 76 6 134 -2 98 0 107 18 112 10 3 21
2 23 -2 3 -4 5 -65 6 -137 1 -71 3 -151 5 -178 3 -33 1 -53 -8 -58 -7 -4 -7
-8 -1 -8 6 0 10 -39 9 -107 0 -128 6 -194 20 -193 6 0 9 73 8 197 -1 144 1
200 10 205 9 6 9 8 -1 8 -19 0 -16 269 3 276 11 5 10 10 -3 25 -19 22 -33 24
-49 8z m-175 -222 c3 -13 -4 -17 -32 -17 -28 0 -36 4 -35 18 0 10 3 12 6 5 3
-10 8 -9 20 3 18 18 37 14 41 -9z"/>
<path d="M5674 4049 c-3 -5 9 -9 25 -9 17 0 31 2 31 4 0 8 -51 13 -56 5z"/>
<path d="M11485 4052 c-3 -3 -5 -38 -5 -77 l0 -72 39 0 40 0 3 79 c2 66 1 78
-12 76 -11 -2 -17 -22 -21 -73 l-5 -70 -2 71 c-2 55 -5 71 -17 71 -8 0 -17 -3
-20 -5z"/>
<path d="M5808 4043 c7 -3 16 -2 19 1 4 3 -2 6 -13 5 -11 0 -14 -3 -6 -6z"/>
<path d="M5914 4038 c-3 -4 13 -8 35 -8 23 0 41 2 41 4 0 8 -71 12 -76 4z"/>
<path d="M10630 3974 c0 -78 -11 -81 -13 -3 -2 31 -7 54 -15 57 -9 3 -12 -14
-12 -62 l0 -66 30 0 30 0 0 64 c0 36 -4 68 -10 71 -6 4 -10 -19 -10 -61z"/>
<path d="M10699 4003 c-1 -30 -2 -33 -8 -14 -5 19 -8 12 -17 -33 l-10 -56 28
0 c28 0 28 1 28 64 0 69 -19 105 -21 39z"/>
<path d="M10730 3971 l0 -71 35 0 35 0 0 71 c0 52 -3 70 -12 67 -8 -3 -15 -31
-19 -69 l-5 -64 -5 64 c-2 39 -9 66 -16 69 -10 3 -13 -15 -13 -67z"/>
<path d="M5970 4013 c0 -7 -10 -13 -22 -13 -12 0 -18 -3 -15 -7 4 -3 25 -6 47
-5 30 1 40 -2 40 -13 0 -10 -10 -15 -32 -15 -18 0 -43 -3 -56 -6 -18 -5 -21
-3 -16 10 4 11 1 16 -11 16 -9 0 -14 -4 -11 -9 6 -8 -32 -19 -83 -23 -14 -1
35 -5 109 -8 135 -5 196 -3 185 8 -3 3 -20 6 -38 7 -28 2 -32 5 -30 27 1 22
-2 24 -24 20 -15 -3 -29 1 -34 9 -6 10 -9 10 -9 2z"/>
<path d="M6130 4012 c0 -7 -10 -13 -22 -13 -19 -1 -20 -2 -4 -6 20 -5 44 12
33 24 -4 3 -7 1 -7 -5z"/>
<path d="M5768 3993 c12 -2 30 -2 40 0 9 3 -1 5 -23 4 -22 0 -30 -2 -17 -4z"/>
<path d="M5848 3992 c12 -8 72 -4 72 4 0 2 -19 4 -42 4 -26 0 -38 -4 -30 -8z"/>
<path d="M6173 3993 c9 -2 23 -2 30 0 6 3 -1 5 -18 5 -16 0 -22 -2 -12 -5z"/>
<path d="M6126 3952 c-2 -4 0 -16 5 -27 6 -16 8 -17 8 -3 1 9 9 18 19 20 14 3
13 5 -5 10 -13 3 -25 3 -27 0z"/>
<path d="M6205 3950 c-3 -5 -2 -10 4 -10 5 0 13 5 16 10 3 6 2 10 -4 10 -5 0
-13 -4 -16 -10z"/>
<path d="M5682 3933 c7 -8 14 -10 17 -4 4 5 24 11 46 14 29 3 25 4 -17 4 -48
0 -56 -3 -46 -14z"/>
<path d="M5900 3920 c0 -6 -36 -9 -90 -8 -49 1 -92 -1 -96 -5 -4 -4 15 -7 42
-8 50 -1 236 -1 242 0 6 1 -26 31 -33 31 -3 0 -3 -4 0 -10 4 -6 -5 -10 -19
-10 -14 0 -26 5 -26 10 0 6 -4 10 -10 10 -5 0 -10 -4 -10 -10z"/>
<path d="M6460 3920 c-9 -6 -10 -10 -3 -10 6 0 15 5 18 10 8 12 4 12 -15 0z"/>
<path d="M3620 3900 c0 -5 5 -10 11 -10 5 0 7 5 4 10 -3 6 -8 10 -11 10 -2 0
-4 -4 -4 -10z"/>
<path d="M3700 3880 c0 -5 5 -10 11 -10 5 0 7 5 4 10 -3 6 -8 10 -11 10 -2 0
-4 -4 -4 -10z"/>
<path d="M7425 3870 c-4 -6 -18 -10 -33 -8 -14 2 -26 -2 -28 -10 -1 -7 0 -8 3
-2 3 8 9 7 19 -1 8 -6 14 -8 14 -3 0 5 4 4 8 -3 5 -8 12 -8 27 3 13 10 16 17
8 25 -8 8 -13 8 -18 -1z"/>
<path d="M3738 3863 c7 -3 16 -2 19 1 4 3 -2 6 -13 5 -11 0 -14 -3 -6 -6z"/>
<path d="M5760 3859 c-19 -8 -21 -12 -11 -19 18 -11 41 -2 41 16 0 8 -1 14 -2
13 -2 0 -14 -5 -28 -10z"/>
<path d="M3471 3844 c0 -11 3 -14 6 -6 3 7 2 16 -1 19 -3 4 -6 -2 -5 -13z"/>
<path d="M3531 3844 c0 -11 3 -14 6 -6 3 7 2 16 -1 19 -3 4 -6 -2 -5 -13z"/>
<path d="M3660 3851 c0 -6 4 -13 10 -16 6 -3 7 1 4 9 -7 18 -14 21 -14 7z"/>
<path d="M5673 3853 c9 -2 25 -2 35 0 9 3 1 5 -18 5 -19 0 -27 -2 -17 -5z"/>
<path d="M3360 3821 c0 -11 9 -23 21 -26 19 -7 20 -7 2 -21 -10 -7 -13 -14 -8
-14 6 0 3 -5 -5 -10 -12 -8 -9 -10 13 -10 25 0 27 3 27 38 0 39 -14 62 -37 62
-7 0 -13 -9 -13 -19z"/>
<path d="M5850 3819 l-55 -6 68 -1 c37 -1 67 0 67 2 0 9 -28 11 -80 5z"/>
<path d="M3450 3806 c0 -8 -6 -17 -12 -19 -7 -3 -3 -6 8 -6 21 -1 39 21 27 33
-11 11 -23 6 -23 -8z"/>
<path d="M5953 3813 c9 -2 23 -2 30 0 6 3 -1 5 -18 5 -16 0 -22 -2 -12 -5z"/>
<path d="M6375 3799 c-11 -17 -2 -18 19 -3 17 12 17 14 4 14 -9 0 -20 -5 -23
-11z"/>
<path d="M6015 3785 c-5 -2 -22 -6 -37 -9 -16 -4 -28 -11 -28 -16 0 -9 11 -8
74 6 20 4 26 3 21 -5 -5 -8 1 -10 18 -6 14 4 40 8 58 9 56 5 59 6 59 14 0 4
-29 5 -65 2 -36 -3 -71 -3 -78 1 -6 3 -16 5 -22 4z"/>
<path d="M5736 3765 c-11 -8 -15 -15 -10 -15 6 0 14 4 20 9 5 5 18 11 29 14
l20 5 -20 1 c-11 0 -29 -6 -39 -14z"/>
<path d="M5827 3773 c-3 -5 14 -9 38 -11 24 -1 46 1 49 6 3 5 -15 10 -39 10
-24 1 -46 -1 -48 -5z"/>
<path d="M3451 3754 c0 -11 3 -14 6 -6 3 7 2 16 -1 19 -3 4 -6 -2 -5 -13z"/>
<path d="M5801 3738 c-1 -14 -4 -33 -7 -42 -3 -9 -1 -16 6 -16 6 0 9 4 5 9 -6
11 64 3 80 -9 14 -10 75 0 75 12 0 6 -7 8 -15 4 -8 -3 -15 -1 -15 4 0 5 -25 8
-55 6 -60 -3 -74 5 -53 31 7 10 8 14 1 10 -6 -4 -14 -1 -16 5 -3 7 -6 1 -6
-14z"/>
<path d="M4137 3743 c-4 -3 -7 -13 -7 -22 1 -13 3 -13 11 2 11 19 8 33 -4 20z"/>
<path d="M5837 3737 c-4 -10 8 -14 41 -16 25 -1 50 -5 55 -8 6 -3 7 -1 3 5 -4
7 -25 12 -47 12 -24 0 -38 4 -34 10 3 6 2 10 -3 10 -6 0 -12 -6 -15 -13z"/>
<path d="M5961 3726 c-8 -10 -3 -11 19 -8 35 5 37 8 10 15 -10 3 -24 -1 -29
-7z"/>
<path d="M6030 3730 c-12 -8 -10 -10 8 -10 13 0 20 4 17 10 -7 12 -6 12 -25 0z"/>
<path d="M6115 3730 c-27 -4 -41 -8 -30 -10 32 -4 69 1 80 11 5 5 7 8 5 7 -3
0 -27 -4 -55 -8z"/>
<path d="M4038 3723 c7 -3 16 -2 19 1 4 3 -2 6 -13 5 -11 0 -14 -3 -6 -6z"/>
<path d="M5756 3722 c-3 -6 -1 -14 5 -17 15 -10 25 3 12 16 -7 7 -13 7 -17 1z"/>
<path d="M3401 3703 c-1 -27 7 -32 39 -22 l25 7 -27 1 c-16 1 -28 8 -31 19 -4
13 -5 12 -6 -5z"/>
<path d="M3440 3710 c0 -5 5 -10 10 -10 6 0 10 5 10 10 0 6 -4 10 -10 10 -5 0
-10 -4 -10 -10z"/>
<path d="M4160 3691 c0 -10 7 -22 16 -25 14 -5 15 -4 4 9 -10 12 -9 15 6 15
16 0 17 2 4 10 -22 14 -30 12 -30 -9z"/>
<path d="M5689 3687 c-9 -18 -9 -20 1 -10 8 8 19 9 30 3 9 -5 21 -5 28 -1 7 4
0 11 -18 18 -27 10 -31 9 -41 -10z"/>
<path d="M3615 3677 c28 -7 58 -11 68 -9 29 7 15 11 -54 16 l-64 5 50 -12z"/>
<path d="M7390 3675 c0 -8 6 -15 14 -15 8 0 17 -10 19 -22 4 -20 4 -19 6 5 0
15 6 27 11 27 6 0 10 5 10 10 0 6 -13 10 -30 10 -20 0 -30 -5 -30 -15z"/>
<path d="M4408 3673 c7 -3 16 -2 19 1 4 3 -2 6 -13 5 -11 0 -14 -3 -6 -6z"/>
<path d="M5805 3670 c-7 -12 12 -12 40 0 18 8 17 9 -7 9 -15 1 -30 -3 -33 -9z"/>
<path d="M6445 3660 c-3 -5 -1 -10 4 -10 6 0 11 5 11 10 0 6 -2 10 -4 10 -3 0
-8 -4 -11 -10z"/>
<path d="M3415 3640 l-30 -20 28 0 c16 0 30 7 34 15 9 25 0 26 -32 5z"/>
<path d="M3563 3640 c2 -8 14 -16 28 -17 19 -1 20 -1 4 4 -11 3 -24 10 -28 17
-6 7 -7 6 -4 -4z"/>
<path d="M3640 3630 c-23 -6 -23 -7 10 -12 40 -6 46 -5 28 9 -7 5 -24 7 -38 3z"/>
<path d="M3370 3599 c0 -6 5 -20 11 -31 10 -19 9 -20 -11 -15 -13 3 -31 2 -41
-3 -18 -10 -34 11 -30 39 1 7 -2 10 -8 6 -6 -3 -11 -13 -11 -22 0 -9 -6 -13
-15 -9 -11 4 -15 -2 -15 -24 0 -34 36 -53 55 -27 9 13 16 13 47 2 20 -6 41 -9
47 -6 6 4 9 28 8 54 -2 37 -6 47 -19 47 -10 0 -18 -5 -18 -11z"/>
<path d="M4322 3598 c2 -6 10 -14 16 -16 7 -2 10 2 6 12 -7 18 -28 22 -22 4z"/>
<path d="M7436 3597 c3 -10 9 -15 12 -12 3 3 0 11 -7 18 -10 9 -11 8 -5 -6z"/>
<path d="M4185 3590 c-3 -5 -1 -10 4 -10 6 0 11 5 11 10 0 6 -2 10 -4 10 -3 0
-8 -4 -11 -10z"/>
<path d="M7384 3585 c19 -14 36 -12 36 6 0 5 -12 9 -27 9 -27 -1 -27 -1 -9
-15z"/>
<path d="M4300 3580 c0 -5 5 -10 11 -10 5 0 7 5 4 10 -3 6 -8 10 -11 10 -2 0
-4 -4 -4 -10z"/>
<path d="M6260 3575 c0 -9 -7 -18 -15 -21 -14 -6 -13 -8 2 -20 16 -12 15 -13
-14 -14 -18 0 -33 -5 -33 -11 0 -7 9 -9 23 -5 12 3 27 6 33 6 7 0 12 17 12 40
0 22 -1 40 -4 40 -2 0 -4 -7 -4 -15z"/>
<path d="M3625 3563 c11 -3 26 -12 33 -21 11 -14 12 -13 12 6 0 18 -5 22 -32
21 -21 -1 -26 -3 -13 -6z"/>
<path d="M3500 3540 c11 -21 40 -17 40 6 0 8 -10 14 -25 14 -22 0 -24 -3 -15
-20z"/>
<path d="M3471 3534 c0 -11 3 -14 6 -6 3 7 2 16 -1 19 -3 4 -6 -2 -5 -13z"/>
<path d="M3553 3537 c4 -12 1 -17 -11 -18 -10 0 -12 -3 -5 -5 7 -3 19 -2 27 3
12 7 12 10 -2 23 -14 13 -15 12 -9 -3z"/>
<path d="M4360 3530 c0 -5 7 -7 15 -4 8 4 15 8 15 10 0 2 -7 4 -15 4 -8 0 -15
-4 -15 -10z"/>
<path d="M4156 3514 c-9 -23 -2 -28 13 -10 7 8 8 17 3 20 -6 3 -13 -1 -16 -10z"/>
<path d="M3428 3513 c7 -3 16 -2 19 1 4 3 -2 6 -13 5 -11 0 -14 -3 -6 -6z"/>
<path d="M3603 3503 c9 -2 23 -2 30 0 6 3 -1 5 -18 5 -16 0 -22 -2 -12 -5z"/>
<path d="M6257 3487 c-4 -11 -30 -14 -117 -15 -62 0 -115 -4 -119 -7 -3 -4 23
-6 59 -5 92 3 100 2 100 -15 0 -15 -41 -21 -127 -18 -23 1 -33 -3 -33 -14 0
-11 7 -13 33 -8 30 7 31 6 12 -8 -19 -15 -18 -16 15 -24 43 -11 42 -26 -2 -34
-30 -6 -28 -7 15 -8 26 0 47 4 47 9 0 6 10 10 23 10 16 0 18 3 8 9 -11 7 -11
10 0 15 8 3 4 4 -8 2 -26 -5 -31 15 -9 34 21 17 60 9 64 -14 2 -11 0 -16 -6
-12 -6 3 -14 1 -18 -5 -5 -9 0 -10 18 -6 18 5 28 2 32 -8 5 -15 -4 -19 -36
-16 -10 1 -18 -3 -18 -8 0 -6 7 -11 16 -11 10 0 14 -6 10 -15 -3 -8 -1 -15 4
-15 6 0 10 7 10 15 0 8 7 15 15 15 8 0 15 -8 15 -17 1 -17 1 -17 11 0 5 9 18
17 27 18 10 1 7 4 -8 8 -14 5 -24 14 -22 22 2 8 5 38 5 67 2 56 -6 85 -16 59z
m-14 -30 c4 3 7 -1 7 -10 0 -21 -45 -23 -53 -3 -7 17 13 27 29 15 6 -5 14 -6
17 -2z m-120 -57 c5 -21 -16 -29 -28 -10 -3 6 0 10 7 10 9 0 9 3 -2 10 -13 8
-13 10 1 10 9 0 19 -9 22 -20z m131 5 c-4 -8 -11 -15 -16 -15 -6 0 -5 6 2 15
7 8 14 15 16 15 2 0 1 -7 -2 -15z"/>
<path d="M5756 3475 c-4 -11 2 -15 26 -15 30 0 31 1 12 15 -24 18 -31 18 -38
0z"/>
<path d="M5896 3481 c-4 -6 -17 -11 -29 -11 -20 0 -20 -1 -2 -13 12 -9 15 -19
10 -28 -5 -7 -10 -22 -10 -32 -1 -10 -8 -23 -16 -28 -9 -5 -10 -9 -2 -9 6 0
14 -8 16 -17 4 -14 5 -12 6 5 1 15 7 22 22 22 13 0 18 -4 13 -12 -5 -7 -3 -8
6 -3 7 4 31 7 52 7 24 -1 37 2 33 8 -3 6 -24 10 -46 10 -28 0 -38 4 -33 12 4
6 3 8 -2 5 -19 -11 -35 9 -28 36 6 27 22 32 82 27 12 -1 22 3 22 9 0 6 -15 8
-37 5 -21 -2 -40 0 -44 7 -5 8 -8 8 -13 0z"/>
<path d="M3686 3463 c-4 -4 -24 -7 -44 -6 l-37 1 35 -6 c30 -6 35 -11 35 -34
-1 -21 2 -24 12 -16 9 7 10 16 3 28 -6 11 -5 21 2 28 7 7 10 12 7 12 -3 0 -9
-3 -13 -7z"/>
<path d="M3490 3450 c0 -5 5 -10 11 -10 5 0 7 5 4 10 -3 6 -8 10 -11 10 -2 0
-4 -4 -4 -10z"/>
<path d="M3578 3443 c7 -3 16 -2 19 1 4 3 -2 6 -13 5 -11 0 -14 -3 -6 -6z"/>
<path d="M5800 3420 c-24 -15 -7 -18 25 -4 23 10 25 13 10 13 -11 1 -27 -3
-35 -9z"/>
<path d="M5928 3423 c6 -2 18 -2 25 0 6 3 1 5 -13 5 -14 0 -19 -2 -12 -5z"/>
<path d="M3728 3413 c7 -3 16 -2 19 1 4 3 -2 6 -13 5 -11 0 -14 -3 -6 -6z"/>
<path d="M5972 3409 c2 -6 8 -10 13 -10 5 0 11 4 13 10 2 6 -4 11 -13 11 -9 0
-15 -5 -13 -11z"/>
<path d="M3485 3394 l-50 -14 45 6 c25 3 49 9 55 15 5 5 7 8 5 8 -3 -1 -27 -8
-55 -15z"/>
<path d="M6015 3370 c4 -6 11 -8 16 -5 14 9 11 15 -7 15 -8 0 -12 -5 -9 -10z"/>
<path d="M6380 3320 c0 -5 7 -7 15 -4 8 4 15 8 15 10 0 2 -7 4 -15 4 -8 0 -15
-4 -15 -10z"/>
<path d="M6318 3295 c-3 -30 -4 -30 -78 -36 -41 -3 -62 -6 -47 -7 19 -1 26 -6
21 -14 -6 -10 -4 -10 7 0 7 6 36 12 65 12 43 0 53 3 57 20 3 10 -1 27 -8 37
-12 16 -14 15 -17 -12z"/>
<path d="M6268 3283 c7 -3 16 -2 19 1 4 3 -2 6 -13 5 -11 0 -14 -3 -6 -6z"/>
<path d="M6367 3265 c-5 -11 0 -15 16 -15 12 0 18 4 12 8 -5 4 -13 11 -16 15
-4 4 -9 1 -12 -8z"/>
<path d="M4116 3171 c-14 -22 88 -28 110 -6 14 13 9 15 -45 15 -33 0 -62 -4
-65 -9z"/>
<path d="M4900 3096 c0 -8 5 -18 10 -21 6 -3 10 3 10 14 0 12 -4 21 -10 21 -5
0 -10 -6 -10 -14z"/>
<path d="M4163 3063 c9 -2 23 -2 30 0 6 3 -1 5 -18 5 -16 0 -22 -2 -12 -5z"/>
<path d="M4651 3061 c-8 -5 -9 -11 -3 -15 5 -3 12 1 16 9 6 17 6 18 -13 6z"/>
<path d="M4696 3055 c-4 -12 4 -15 44 -15 38 0 50 4 50 15 0 11 -12 15 -44 15
-30 0 -46 -5 -50 -15z"/>
<path d="M4800 3054 c0 -12 6 -15 23 -10 12 3 28 6 35 6 7 0 10 5 7 10 -11 17
-65 12 -65 -6z"/>
<path d="M3877 3040 c-13 -15 -14 -20 -3 -20 7 0 16 9 19 20 3 11 4 20 3 20
-1 0 -9 -9 -19 -20z"/>
<path d="M4898 3053 c7 -3 16 -2 19 1 4 3 -2 6 -13 5 -11 0 -14 -3 -6 -6z"/>
<path d="M3218 3043 c7 -3 16 -2 19 1 4 3 -2 6 -13 5 -11 0 -14 -3 -6 -6z"/>
<path d="M3421 3021 c-7 -5 -12 -14 -10 -20 3 -7 11 -3 21 9 18 21 13 26 -11
11z"/>
<path d="M4835 3000 c-3 -5 3 -10 14 -10 12 0 21 5 21 10 0 6 -6 10 -14 10 -8
0 -18 -4 -21 -10z"/>
<path d="M3765 2980 c-3 -6 1 -7 9 -4 18 7 21 14 7 14 -6 0 -13 -4 -16 -10z"/>
<path d="M3910 2980 c-130 -8 -123 -7 -116 -19 17 -27 223 -16 263 15 17 12
16 13 -7 12 -14 -1 -77 -5 -140 -8z"/>
<path d="M4520 2980 c0 -5 7 -7 15 -4 8 4 15 8 15 10 0 2 -7 4 -15 4 -8 0 -15
-4 -15 -10z"/>
<path d="M3715 2964 c-23 -10 -25 -13 -10 -13 21 -1 53 15 45 22 -3 2 -18 -2
-35 -9z"/>
<path d="M4676 2970 c-56 -4 -81 -9 -84 -19 -4 -12 11 -13 82 -9 48 3 90 9 93
12 15 15 -17 21 -91 16z"/>
<path d="M4785 2970 c4 -6 11 -8 16 -5 14 9 11 15 -7 15 -8 0 -12 -5 -9 -10z"/>
<path d="M4825 2970 c-3 -5 -3 -10 2 -10 4 0 1 -5 -7 -10 -13 -8 -12 -10 3
-10 10 0 17 8 17 20 0 22 -5 26 -15 10z"/>
<path d="M4627 2923 c18 -2 50 -2 70 0 21 2 7 4 -32 4 -38 0 -55 -2 -38 -4z"/>
<path d="M11761 2631 c-7 -5 -11 -14 -7 -19 9 -15 36 -4 36 14 0 16 -9 18 -29
5z"/>
<path d="M11728 2583 c7 -3 16 -2 19 1 4 3 -2 6 -13 5 -11 0 -14 -3 -6 -6z"/>
<path d="M11748 2565 c-12 -12 6 -55 24 -61 32 -10 6 -25 -27 -15 -30 8 -75
-1 -75 -16 0 -18 32 -53 48 -53 23 0 26 37 4 44 -9 2 1 5 23 4 82 0 79 -4 49
52 -26 48 -34 56 -46 45z"/>
<path d="M11690 2550 c-8 -5 -12 -12 -9 -15 8 -8 39 5 39 16 0 11 -11 11 -30
-1z"/>
<path d="M11635 2520 c-18 -29 29 -40 61 -14 19 15 18 15 -3 9 -12 -3 -24 -1
-28 5 -8 13 -22 13 -30 0z"/>
<path d="M11936 2511 c13 -12 74 -22 74 -12 0 12 -26 21 -58 21 -15 0 -22 -4
-16 -9z"/>
<path d="M10790 2475 c0 -2 5 -16 12 -30 14 -32 31 -33 18 -1 -5 13 -6 27 -3
30 4 3 -1 6 -10 6 -9 0 -17 -2 -17 -5z"/>
<path d="M12130 2470 c0 -5 4 -10 9 -10 6 0 13 5 16 10 3 6 -1 10 -9 10 -9 0
-16 -4 -16 -10z"/>
<path d="M10585 2450 c3 -5 -3 -10 -14 -10 -12 0 -21 -5 -21 -11 0 -18 55 -6
58 14 2 10 -3 17 -13 17 -9 0 -13 -4 -10 -10z"/>
<path d="M11798 2452 c-16 -2 -28 -10 -28 -18 0 -18 21 -18 46 0 23 17 18 23
-18 18z"/>
<path d="M6610 2435 c7 -8 16 -12 21 -9 13 8 1 24 -18 24 -13 0 -13 -3 -3 -15z"/>
<path d="M11573 2443 c-24 -9 -13 -23 17 -23 20 0 30 5 30 15 0 15 -22 19 -47
8z"/>
<path d="M12040 2440 c0 -5 9 -10 19 -10 11 0 23 5 26 10 4 6 -5 10 -19 10
-14 0 -26 -4 -26 -10z"/>
<path d="M12106 2434 c-5 -12 0 -15 21 -12 14 2 28 9 31 16 6 18 -45 15 -52
-4z"/>
<path d="M10490 2430 c0 -5 10 -10 23 -10 18 0 19 2 7 10 -19 13 -30 13 -30 0z"/>
<path d="M11975 2430 c-3 -5 1 -10 9 -10 9 0 16 5 16 10 0 6 -4 10 -9 10 -6 0
-13 -4 -16 -10z"/>
</g>
</svg>
