<?xml version="1.0" standalone="no"?>
<!DOCTYPE svg PUBLIC "-//W3C//DTD SVG 20010904//EN"
 "http://www.w3.org/TR/2001/REC-SVG-20010904/DTD/svg10.dtd">
<svg version="1.0" xmlns="http://www.w3.org/2000/svg"
 width="512.000000pt" height="512.000000pt" viewBox="0 0 512.000000 512.000000"
 preserveAspectRatio="xMidYMid meet">

<g transform="translate(0.000000,512.000000) scale(0.100000,-0.100000)"
fill="#000000" stroke="none">
<path d="M261 4214 c-101 -36 -194 -125 -232 -222 -20 -51 -23 -80 -27 -259
l-4 -203 2562 0 2562 0 -4 203 c-4 180 -7 208 -27 259 -30 76 -107 160 -185
201 l-61 32 -2270 2 c-2029 2 -2275 0 -2314 -13z"/>
<path d="M1414 3165 c-79 -17 -128 -43 -204 -106 l-62 -52 44 -44 45 -45 269
0 269 0 37 44 37 43 -32 33 c-104 108 -264 158 -403 127z m-62 -132 c32 -29
16 -73 -27 -73 -58 0 -59 88 -1 90 5 0 18 -7 28 -17z m183 -7 c24 -36 5 -68
-37 -64 -41 4 -56 40 -28 68 27 27 46 25 65 -4z m166 14 c37 -20 18 -80 -26
-80 -43 0 -58 39 -28 72 19 21 27 22 54 8z"/>
<path d="M793 2950 c-17 -7 -23 -17 -23 -42 0 -71 6 -78 71 -78 l58 0 7 47 c6
41 4 49 -16 65 -24 19 -61 22 -97 8z"/>
<path d="M2124 2950 c-32 -13 -37 -26 -29 -76 l6 -44 59 0 59 0 11 39 c12 47
5 70 -27 82 -29 11 -51 11 -79 -1z"/>
<path d="M1099 2807 c-31 -23 -39 -56 -39 -151 l0 -96 -175 0 -175 0 0 -45 0
-45 175 0 175 0 0 -40 0 -40 158 -1 c86 -1 147 -4 135 -6 -23 -4 -23 -4 -23
-219 0 -118 2 -214 5 -214 2 0 20 8 40 17 l35 17 0 149 c0 138 1 149 18 142 9
-4 29 -11 43 -17 24 -8 27 -15 32 -83 7 -92 35 -147 95 -189 35 -25 55 -31
111 -34 81 -5 132 16 180 75 43 52 51 88 51 231 l0 122 -154 0 -153 0 -6 29
c-9 43 -53 89 -93 97 l-34 6 0 154 0 154 -192 0 c-136 -1 -198 -4 -209 -13z
m311 -112 c0 -38 -3 -45 -20 -45 -17 0 -20 -7 -20 -45 0 -38 3 -45 20 -45 17
0 20 -7 20 -45 l0 -45 -130 0 -130 0 0 45 c0 38 3 45 20 45 17 0 20 7 20 45 0
38 -3 45 -20 45 -17 0 -20 7 -20 45 l0 45 130 0 130 0 0 -45z m444 -487 c-1
-97 -13 -125 -67 -158 -61 -38 -140 -18 -177 43 -16 25 -20 50 -20 113 0 44 3
84 7 88 4 3 63 5 132 4 l126 -3 -1 -87z"/>
<path d="M1682 2174 c4 -43 29 -65 56 -48 10 6 18 26 20 48 l3 36 -41 0 -41 0
3 -36z"/>
<path d="M1942 2518 l3 -43 173 -3 172 -2 0 45 0 45 -176 0 -175 0 3 -42z"/>
<path d="M833 2336 l-123 -41 0 -42 0 -42 128 43 127 43 3 41 c2 23 0 41 -5
41 -4 -1 -63 -20 -130 -43z"/>
<path d="M1150 2182 l0 -198 35 -17 c20 -9 38 -17 40 -17 3 0 5 97 5 215 l0
215 -40 0 -40 0 0 -198z"/>
<path d="M2032 2340 l3 -43 128 -43 127 -43 0 43 0 42 -117 38 c-65 21 -124
41 -131 44 -10 3 -12 -6 -10 -38z"/>
<path d="M660 1900 l0 -40 175 0 175 0 0 40 0 40 -175 0 -175 0 0 -40z"/>
<path d="M1990 1900 l0 -40 175 0 175 0 0 40 0 40 -175 0 -175 0 0 -40z"/>
<path d="M2 1388 c4 -181 7 -209 27 -260 30 -76 107 -160 185 -201 l61 -32
2285 0 2285 0 61 32 c78 41 155 125 185 201 20 51 23 79 27 260 l4 202 -2562
0 -2562 0 4 -202z"/>
</g>
</svg>
