<?xml version="1.0" standalone="no"?>
<!DOCTYPE svg PUBLIC "-//W3C//DTD SVG 20010904//EN"
 "http://www.w3.org/TR/2001/REC-SVG-20010904/DTD/svg10.dtd">
<svg version="1.0" xmlns="http://www.w3.org/2000/svg"
 width="545.000000pt" height="457.000000pt" viewBox="0 0 545.000000 457.000000"
 preserveAspectRatio="xMidYMid meet">

<g transform="translate(0.000000,457.000000) scale(0.100000,-0.100000)"
fill="#000000" stroke="none">
<path d="M2841 3826 c-6 -7 -10 -32 -9 -55 1 -25 -4 -46 -11 -50 -9 -6 -9 -11
2 -20 10 -8 13 -25 10 -54 -4 -32 -1 -46 11 -56 9 -8 20 -11 23 -7 4 4 2 11
-5 15 -10 6 -13 38 -13 112 0 87 2 105 17 116 15 11 15 13 2 13 -8 0 -21 -6
-27 -14z"/>
<path d="M3099 3826 c17 -21 17 -216 -1 -227 -7 -4 -9 -11 -5 -15 16 -17 37
20 37 67 0 26 5 51 11 55 8 4 7 9 -2 15 -8 5 -12 23 -11 49 3 41 -10 70 -30
70 -6 0 -5 -6 1 -14z"/>
<path d="M2076 3744 c-14 -13 -16 -47 -16 -214 0 -187 1 -200 19 -210 12 -6
117 -10 270 -10 161 0 251 -4 251 -10 0 -6 -6 -9 -12 -8 -10 2 -13 -18 -12
-77 0 -44 2 -87 5 -95 2 -9 -2 -14 -11 -12 -12 3 -12 1 -3 -9 6 -6 9 -17 7
-24 -3 -7 -1 -16 5 -20 7 -4 8 0 4 11 -5 13 -3 15 8 8 31 -19 59 -15 84 13 13
15 25 22 25 16 0 -7 -4 -13 -10 -13 -5 0 -10 -7 -10 -15 0 -8 3 -15 8 -15 216
-3 383 -1 400 4 12 4 22 13 22 19 2 34 -2 345 -4 364 -1 13 -6 26 -11 30 -4 5
-5 2 -1 -4 8 -15 -10 -18 -19 -3 -3 6 -13 10 -22 10 -13 0 -13 -3 -2 -17 11
-15 11 -16 -1 -5 -10 9 -67 12 -207 12 l-193 0 1 -37 c0 -24 3 -32 7 -21 5 13
11 15 22 7 13 -8 12 -12 -7 -28 l-22 -18 23 -11 c17 -8 27 -7 36 1 10 9 11 9
6 0 -4 -7 -2 -13 3 -13 6 0 11 5 11 10 0 6 7 10 17 10 9 0 13 -3 10 -7 -4 -3
1 -12 11 -19 21 -17 36 -18 26 -2 -4 7 -3 8 4 4 9 -5 9 -12 0 -26 -9 -14 -16
-16 -25 -8 -9 7 -15 5 -20 -8 -3 -11 -13 -23 -21 -28 -11 -6 -8 -15 18 -41 20
-21 28 -35 21 -40 -6 -3 -9 -11 -6 -16 4 -5 -1 -9 -9 -9 -14 0 -22 7 -54 45
-14 17 -47 21 -37 5 4 -6 11 -7 17 -4 8 5 9 1 4 -12 -8 -18 -14 -41 -15 -56
-1 -5 -8 -8 -17 -8 -12 0 -14 5 -9 18 13 31 18 65 9 59 -6 -3 -10 3 -11 13 -1
11 2 22 8 25 5 3 7 0 6 -7 -2 -7 -2 -10 0 -5 3 4 10 4 16 0 7 -3 4 3 -6 14
-16 18 -16 21 -2 27 9 3 13 10 10 16 -3 5 1 10 9 10 9 0 16 7 16 16 0 9 5 12
13 8 6 -4 8 -3 4 1 -14 16 -36 14 -30 -3 4 -15 3 -15 -6 -2 -10 13 -12 13 -20
0 -6 -9 -6 -19 1 -27 13 -17 -4 -17 -21 0 -8 6 -11 7 -8 2 3 -6 2 -17 -3 -25
-6 -10 -8 -6 -6 15 1 17 7 29 14 27 8 -1 11 7 7 25 -3 16 -8 109 -11 208 -4
99 -11 186 -17 193 -7 9 -73 12 -268 12 -221 0 -260 -2 -273 -16z m124 -170
c0 -15 6 -24 15 -24 10 0 15 10 15 30 0 17 5 30 10 30 6 0 10 -32 10 -75 0
-43 -4 -75 -10 -75 -5 0 -10 16 -10 35 0 46 -27 49 -32 3 -2 -18 -7 -32 -13
-31 -11 3 -19 107 -11 130 8 21 26 6 26 -23z m140 26 c0 -5 -7 -10 -15 -10
-12 0 -15 -14 -15 -65 0 -37 -4 -65 -10 -65 -6 0 -10 28 -10 65 0 37 -4 65
-10 65 -5 0 -10 5 -10 10 0 6 16 10 35 10 19 0 35 -4 35 -10z m51 -42 l12 -53
15 53 c8 28 18 52 22 52 8 0 20 -74 20 -121 0 -16 -4 -29 -10 -29 -5 0 -10 21
-11 48 l0 47 -15 -49 c-17 -52 -27 -52 -42 4 l-10 35 -1 -37 c-2 -64 -21 -54
-21 11 0 103 20 122 41 39z m109 -13 c0 -58 2 -65 20 -65 11 0 20 -4 20 -10 0
-5 -13 -10 -30 -10 l-30 0 0 75 c0 43 4 75 10 75 6 0 10 -28 10 -65z m240 -99
c0 -7 -9 -16 -20 -19 -24 -6 -25 -3 -4 17 19 20 24 20 24 2z m123 5 c5 0 5 -5
2 -11 -7 -12 -65 -14 -65 -2 0 18 14 21 63 13z m133 -16 c-3 -8 0 -14 5 -12 6
1 13 -9 15 -23 3 -13 8 -27 12 -30 4 -3 7 -17 8 -32 0 -26 -1 -27 -18 -11 -10
9 -16 18 -14 21 3 2 -2 22 -10 44 -17 49 -17 58 -3 58 6 0 9 -7 5 -15z m-76
-14 c0 -5 9 -13 21 -16 16 -5 20 -13 17 -33 -3 -21 4 -34 32 -57 l35 -29 -25
29 -24 30 32 -31 c22 -20 31 -36 26 -47 -3 -9 -11 -14 -18 -10 -6 4 -5 -1 3
-10 7 -9 10 -17 5 -17 -4 0 -3 -5 4 -12 20 -20 14 -30 -6 -10 -11 9 -17 22
-14 27 3 6 -9 -5 -26 -22 -34 -36 -42 -39 -60 -21 -7 7 -12 8 -12 3 -1 -6 -8
1 -16 15 -8 14 -13 18 -11 9 3 -9 -1 -16 -8 -16 -10 0 -11 5 -4 18 6 12 18 16
39 14 28 -4 42 6 46 33 1 6 -2 10 -7 6 -5 -3 -14 6 -21 20 -6 14 -16 26 -21
26 -5 0 -4 6 2 14 9 11 9 16 0 22 -7 4 -9 3 -5 -4 3 -6 2 -13 -4 -17 -6 -4 -8
-11 -5 -16 4 -5 2 -9 -3 -9 -5 0 -9 -7 -9 -15 0 -11 4 -12 11 -5 19 19 29 10
11 -10 -10 -12 -25 -18 -32 -15 -8 2 -11 0 -8 -5 3 -5 -2 -29 -13 -53 -10 -23
-18 -50 -16 -59 2 -19 -21 -18 -39 2 -10 12 -9 12 6 1 12 -9 17 -10 17 -2 0 6
-7 14 -16 18 -20 7 -13 66 11 93 10 11 15 28 12 40 -3 11 -2 22 3 25 4 3 10
15 13 27 6 21 5 21 -7 5 -12 -15 -15 -16 -26 -2 -11 13 -10 14 2 10 8 -3 20 0
27 8 9 12 18 12 44 3 17 -6 37 -15 44 -19 6 -4 15 -2 19 4 4 8 3 9 -4 5 -7 -4
-14 3 -18 19 -3 14 -13 25 -21 25 -8 0 -11 5 -8 10 8 13 25 13 25 1z m-120
-24 c0 -7 -6 -21 -12 -30 -12 -15 -13 -14 -14 13 -1 19 4 30 12 30 8 0 14 -6
14 -13z m-6 -102 c8 23 26 18 26 -7 0 -16 -3 -19 -9 -10 -12 19 -27 -5 -26
-40 0 -16 0 -28 0 -28 -1 0 -14 13 -29 29 -24 25 -25 29 -11 35 13 4 16 2 11
-9 -3 -8 -1 -15 3 -15 15 0 19 23 9 45 -9 19 -8 19 5 2 13 -15 15 -16 21 -2z
m142 -26 c3 -6 1 -16 -5 -22 -9 -9 -11 -8 -6 6 4 10 2 17 -4 17 -6 0 -11 -4
-11 -10 0 -5 -5 -10 -11 -10 -8 0 -8 5 1 15 15 18 26 19 36 4z m-313 -49 c-5
-19 -23 -29 -23 -12 0 7 20 32 26 32 1 0 0 -9 -3 -20z m384 -34 c-4 -9 -18
-16 -32 -16 -15 0 -23 -4 -20 -10 7 -11 33 -9 53 3 16 11 15 -3 -3 -27 -9 -12
-15 -15 -15 -7 0 9 -8 11 -24 7 -14 -3 -28 -2 -31 4 -4 6 1 7 12 3 15 -6 16
-4 6 9 -16 18 -7 28 25 28 20 0 23 4 19 21 -4 16 -3 19 5 11 6 -6 8 -18 5 -26z
m-107 -6 c0 -5 -6 -8 -12 -6 -7 1 -10 1 -5 -1 12 -8 8 -20 -7 -20 -8 0 -16 8
-19 17 -3 11 3 16 19 18 13 1 24 -3 24 -8z m10 -22 c-11 -12 -17 -25 -13 -31
3 -5 0 -8 -7 -5 -8 2 -16 10 -18 18 -3 7 0 10 7 6 6 -4 16 3 22 18 7 14 16 23
20 20 5 -3 0 -14 -11 -26z m-134 -13 c9 -9 10 -16 4 -20 -6 -3 -13 0 -16 8 -3
8 -14 17 -25 20 -10 3 -17 1 -13 -4 3 -5 0 -9 -5 -9 -6 0 -11 7 -11 16 0 12 6
15 26 10 15 -4 33 -13 40 -21z m-147 -34 c-1 -14 -2 -14 -6 1 -2 10 -10 15
-19 11 -10 -4 -12 0 -8 11 5 13 9 14 20 5 8 -6 13 -19 13 -28z m463 7 c-10
-10 -44 0 -37 12 3 5 14 6 26 3 12 -3 17 -9 11 -15z m-482 -18 c0 -5 -5 -10
-11 -10 -5 0 -7 5 -4 10 3 6 8 10 11 10 2 0 4 -4 4 -10z"/>
<path d="M2983 3753 c-7 -2 -10 -12 -7 -21 5 -15 4 -15 -9 1 -18 22 -23 22
-30 -4 -4 -15 -2 -19 9 -15 9 3 12 1 9 -4 -6 -10 8 -14 35 -10 8 1 13 0 10 -2
-3 -2 -14 -10 -24 -18 -11 -8 -17 -10 -13 -4 4 7 -2 14 -15 17 l-21 6 21 -21
c21 -22 21 -22 43 -2 11 10 23 18 26 16 3 -2 5 -2 6 0 1 2 0 2 -2 1 -2 -1 -9
4 -16 10 -10 10 -9 14 8 23 20 11 20 12 1 21 -10 6 -24 8 -31 6z"/>
<path d="M1260 3233 c-42 -12 -43 -14 -32 -25 8 -8 16 -8 28 3 12 9 15 10 10
2 -4 -7 -3 -13 3 -13 5 0 13 5 17 11 4 8 35 10 90 7 80 -4 105 2 67 16 -18 7
-157 6 -183 -1z"/>
<path d="M1239 3099 c-11 -7 -11 -9 4 -9 11 0 15 -4 11 -12 -5 -7 -3 -8 6 -3
7 4 52 7 101 6 49 -1 89 1 89 6 0 4 -35 7 -79 5 -43 -2 -87 1 -98 6 -12 7 -25
7 -34 1z"/>
<path d="M1500 3090 c0 -5 7 -7 15 -4 8 4 15 8 15 10 0 2 -7 4 -15 4 -8 0 -15
-4 -15 -10z"/>
<path d="M2320 2558 l0 -392 73 72 72 72 343 0 c188 0 342 2 342 4 0 2 -9 23
-20 47 -11 24 -20 50 -20 57 0 18 30 15 53 -5 19 -17 20 -17 34 5 9 12 22 22
30 22 12 0 14 -9 9 -43 -7 -43 -6 -45 33 -70 l41 -27 46 35 c25 20 73 43 105
52 l59 16 0 274 0 273 -600 0 -600 0 0 -392z m975 242 c-49 -50 -93 -90 -98
-90 -5 0 33 42 85 94 51 51 95 91 97 89 3 -2 -35 -44 -84 -93z m-235 80 c0 -6
-122 -10 -345 -10 -223 0 -345 4 -345 10 0 6 122 10 345 10 223 0 345 -4 345
-10z m-5 -80 c-4 -6 -128 -10 -340 -10 -212 0 -336 4 -340 10 -4 7 112 10 340
10 228 0 344 -3 340 -10z m-315 -70 c0 -6 -66 -10 -179 -10 -109 0 -182 4
-186 10 -4 7 58 10 179 10 117 0 186 -4 186 -10z m320 0 c0 -6 -52 -10 -135
-10 -83 0 -135 4 -135 10 0 6 52 10 135 10 83 0 135 -4 135 -10z m-10 -150 c0
-7 -113 -10 -335 -10 -204 1 -335 5 -335 11 0 5 130 9 335 9 222 0 335 -3 335
-10z m-408 -77 c-51 -2 -132 -2 -180 0 -48 1 -6 3 93 3 99 0 138 -2 87 -3z
m98 -73 c0 -6 -66 -10 -179 -10 -109 0 -182 4 -186 10 -4 7 58 10 179 10 117
0 186 -4 186 -10z"/>
<path d="M3704 2898 c-10 -15 7 -27 34 -23 15 2 31 4 37 4 5 1 3 7 -3 14 -15
14 -61 17 -68 5z"/>
<path d="M4488 2887 c3 -13 7 -15 12 -7 6 9 9 9 13 -1 4 -10 6 -9 6 4 1 9 6
17 12 17 5 0 7 -5 3 -12 -5 -7 -3 -8 5 -4 18 11 4 21 -28 21 -22 0 -27 -4 -23
-18z"/>
<path d="M3793 2888 c-2 -5 152 -7 344 -6 191 1 321 3 288 5 -144 7 -627 7
-632 1z"/>
<path d="M1821 2153 c-37 -29 -61 -77 -61 -122 0 -28 2 -29 41 -26 22 1 42 5
44 7 3 2 6 29 9 59 2 30 7 66 11 82 9 34 -1 34 -44 0z"/>
<path d="M3120 2105 c-11 -12 -17 -25 -13 -28 3 -4 1 -7 -6 -7 -7 0 -9 -5 -5
-12 4 -6 3 -8 -3 -5 -14 9 -93 -126 -93 -159 0 -31 60 -94 90 -94 25 0 84 71
117 140 23 50 25 59 14 98 -12 47 -35 77 -51 67 -5 -3 -7 0 -4 8 8 22 -23 16
-46 -8z m-40 -109 c0 -3 -4 -8 -10 -11 -5 -3 -10 -1 -10 4 0 6 5 11 10 11 6 0
10 -2 10 -4z m-39 -153 c13 -16 12 -17 -3 -4 -17 13 -22 21 -14 21 2 0 10 -8
17 -17z m44 -13 c-3 -5 -12 -10 -18 -10 -7 0 -6 4 3 10 19 12 23 12 15 0z"/>
<path d="M4166 1840 c-23 -175 -72 -288 -202 -465 -62 -85 -87 -132 -78 -147
4 -6 3 -8 -3 -5 -9 6 -41 -79 -49 -128 -2 -11 -8 -38 -13 -60 -6 -22 -11 -85
-11 -139 l0 -100 31 50 c17 27 53 74 79 104 39 46 133 189 142 217 2 4 -1 8
-7 8 -5 0 -9 -4 -7 -8 1 -5 -2 -5 -8 -2 -8 5 -6 13 6 26 18 20 29 25 19 9 -3
-5 -2 -10 3 -10 4 0 16 16 26 36 14 30 14 35 2 31 -15 -6 -16 17 -1 30 4 4 5
2 1 -4 -4 -8 -1 -13 8 -13 9 0 17 6 18 13 0 6 2 17 2 23 1 6 6 18 13 25 15 19
34 90 26 102 -3 6 -2 7 4 4 16 -10 36 99 39 208 2 82 -1 101 -14 113 -10 7
-11 10 -3 6 11 -6 12 2 7 41 -13 86 -23 96 -30 35z m29 -239 c3 -5 2 -12 -3
-15 -5 -3 -9 1 -9 9 0 17 3 19 12 6z m-8 -56 c0 -8 -4 -12 -9 -9 -5 3 -6 10
-3 15 9 13 12 11 12 -6z m-123 -83 c3 -5 -1 -9 -9 -9 -8 0 -12 4 -9 9 3 4 7 8
9 8 2 0 6 -4 9 -8z m-69 -81 c3 -5 2 -12 -3 -15 -5 -3 -9 1 -9 9 0 17 3 19 12
6z m-44 -78 c13 -16 12 -17 -3 -4 -17 13 -22 21 -14 21 2 0 10 -8 17 -17z m60
-126 c-10 -9 -11 -8 -5 6 3 10 9 15 12 12 3 -3 0 -11 -7 -18z"/>
<path d="M952 1741 c6 -22 14 -41 19 -41 5 0 5 -7 2 -17 -4 -10 -2 -14 4 -10
6 4 11 1 10 -6 -1 -32 4 -48 13 -42 5 3 7 0 4 -8 -3 -8 2 -22 11 -31 9 -9 14
-16 12 -16 -3 0 8 -13 23 -30 28 -30 48 -41 34 -18 -4 7 -3 8 5 4 6 -4 9 -11
7 -15 -7 -11 50 -52 74 -54 10 -1 17 -4 14 -8 -2 -4 3 -12 11 -19 8 -7 15 -9
15 -4 0 5 5 1 11 -8 5 -9 16 -15 24 -12 15 6 6 26 -40 86 -11 14 -31 41 -45
60 -14 18 -69 78 -122 132 l-97 99 11 -42z m68 -85 c0 -3 -4 -8 -10 -11 -5 -3
-10 -1 -10 4 0 6 5 11 10 11 6 0 10 -2 10 -4z m74 -52 c3 -8 2 -12 -4 -9 -6 3
-10 10 -10 16 0 14 7 11 14 -7z m53 -59 c0 -8 -4 -12 -9 -9 -5 3 -6 10 -3 15
9 13 12 11 12 -6z"/>
<path d="M1408 1759 c-23 -13 -23 -36 1 -48 16 -9 170 -13 418 -11 l71 0 0 35
0 35 -236 0 c-142 0 -244 -5 -254 -11z"/>
<path d="M1906 1745 c-5 -13 13 -15 117 -16 67 0 147 -4 178 -8 42 -5 56 -4
56 6 0 10 -38 13 -169 13 -110 0 -167 3 -163 10 3 6 2 10 -3 10 -6 0 -12 -7
-16 -15z"/>
<path d="M2269 1752 c7 -6 11 -15 7 -21 -5 -7 -1 -9 9 -5 21 8 14 28 -11 32
-15 2 -16 1 -5 -6z"/>
<path d="M2320 1750 c-8 -5 -11 -10 -6 -10 6 0 2 -6 -8 -13 -17 -13 -18 -14
-2 -20 11 -5 15 -3 10 5 -4 7 -3 8 5 4 6 -4 9 -12 5 -17 -3 -5 40 -66 96 -136
67 -83 97 -128 90 -133 -9 -5 -9 -9 -1 -14 6 -4 11 -1 11 6 0 8 5 7 17 -4 15
-16 14 -19 -17 -54 l-33 -38 6 -100 c4 -56 9 -110 12 -121 4 -13 -12 -47 -47
-104 -54 -85 -61 -97 -142 -239 l-48 -83 -104 7 c-84 5 -104 4 -104 -7 0 -29
231 -232 259 -227 9 2 32 35 51 74 38 76 135 200 156 198 7 -1 10 4 8 11 -3 7
6 25 20 41 19 23 26 26 30 14 22 -58 56 -166 56 -177 0 -8 -4 -12 -9 -9 -5 4
-7 -3 -4 -13 4 -17 -11 -28 -93 -68 -54 -26 -100 -54 -102 -60 -3 -10 42 -13
202 -13 l206 0 -1 33 c0 17 -4 61 -9 97 -4 36 -18 148 -29 248 l-21 184 22 19
c13 10 25 18 28 18 3 0 76 -89 163 -197 194 -243 194 -242 201 -242 18 0 -10
40 -160 228 -92 114 -171 212 -176 218 -5 8 16 31 64 70 l71 59 -108 5 -108 5
70 47 70 46 138 11 c105 7 141 13 147 25 17 31 38 44 83 50 52 8 65 28 65 96
0 51 -17 66 -85 75 -31 3 -88 18 -128 31 l-71 24 -96 -31 c-118 -39 -275 -101
-342 -135 -48 -25 -51 -25 -71 -7 -12 10 -24 19 -26 20 -2 1 2 9 9 18 11 13
10 15 -2 10 -10 -4 -44 32 -107 110 -85 107 -104 145 -71 145 6 0 9 -3 7 -7
-3 -5 41 -7 97 -6 145 3 186 7 186 16 0 5 -63 7 -140 6 -99 -2 -144 1 -152 9
-14 14 -19 15 -38 2z m30 -10 c0 -5 -4 -10 -10 -10 -5 0 -10 5 -10 10 0 6 5
10 10 10 6 0 10 -4 10 -10z"/>
<path d="M2377 1750 c4 -3 40 -3 78 0 l70 7 -78 0 c-43 0 -75 -3 -70 -7z"/>
<path d="M2598 1753 c7 -3 16 -2 19 1 4 3 -2 6 -13 5 -11 0 -14 -3 -6 -6z"/>
<path d="M2750 1747 c0 -5 -7 -7 -15 -3 -8 3 -15 0 -15 -7 0 -9 -2 -9 -8 0
-11 17 -52 4 -52 -16 0 -11 3 -12 8 -4 7 12 69 15 87 5 19 -11 46 -9 41 3 -2
7 -1 16 4 21 5 5 -4 9 -21 10 -16 1 -29 -3 -29 -9z m17 -19 c-3 -8 -6 -5 -6 6
-1 11 2 17 5 13 3 -3 4 -12 1 -19z"/>
<path d="M2850 1751 c12 -8 8 -11 -19 -11 -24 0 -32 -3 -25 -10 13 -13 152
-21 160 -9 3 5 -1 6 -9 3 -8 -3 -17 2 -20 10 -4 9 -17 15 -34 14 -15 -1 -37 2
-48 6 -16 6 -17 6 -5 -3z m77 -17 c-3 -3 -12 -4 -19 -1 -8 3 -5 6 6 6 11 1 17
-2 13 -5z"/>
<path d="M3080 1752 c0 -6 -10 -14 -22 -18 -22 -7 -22 -7 -3 -14 15 -5 22 -2
28 13 4 11 5 22 2 25 -3 3 -5 0 -5 -6z"/>
<path d="M2730 1699 c0 -5 5 -7 10 -4 6 3 10 8 10 11 0 2 -4 4 -10 4 -5 0 -10
-5 -10 -11z"/>
<path d="M1790 1645 c13 -14 26 -25 28 -25 3 0 -5 11 -18 25 -13 14 -26 25
-28 25 -3 0 5 -11 18 -25z"/>
<path d="M2659 1603 c-13 -16 -12 -17 4 -4 16 13 21 21 13 21 -2 0 -10 -8 -17
-17z"/>
<path d="M1845 1581 c-3 -5 -2 -12 3 -15 5 -3 9 1 9 9 0 17 -3 19 -12 6z"/>
<path d="M2590 1535 c-7 -9 -10 -18 -7 -21 3 -3 10 4 17 15 13 25 8 27 -10 6z"/>
<path d="M1250 1396 c0 -2 7 -9 15 -16 13 -11 14 -10 9 4 -5 14 -24 23 -24 12z"/>
<path d="M2465 1381 c-3 -5 -2 -12 3 -15 5 -3 9 1 9 9 0 17 -3 19 -12 6z"/>
<path d="M2030 1356 c0 -2 8 -10 18 -17 15 -13 16 -12 3 4 -13 16 -21 21 -21
13z"/>
<path d="M2439 1343 c-13 -16 -12 -17 4 -4 9 7 17 15 17 17 0 8 -8 3 -21 -13z"/>
<path d="M2070 1306 c0 -2 8 -10 18 -17 15 -13 16 -12 3 4 -13 16 -21 21 -21
13z"/>
<path d="M2368 1248 c-10 -10 -14 -18 -9 -18 10 0 36 29 30 34 -2 1 -12 -6
-21 -16z"/>
<path d="M2326 1192 l-19 -27 24 22 c12 12 21 24 18 27 -2 2 -13 -8 -23 -22z"/>
<path d="M2285 1150 c-3 -6 1 -7 9 -4 18 7 21 14 7 14 -6 0 -13 -4 -16 -10z"/>
<path d="M2237 1123 c-25 -4 -28 -8 -26 -41 3 -36 4 -37 42 -38 22 0 36 1 30
3 -6 2 -9 22 -7 43 2 22 0 39 -4 39 -4 -1 -20 -4 -35 -6z"/>
<path d="M2175 1020 c-3 -6 1 -7 9 -4 18 7 21 14 7 14 -6 0 -13 -4 -16 -10z"/>
<path d="M2323 985 c0 -8 4 -12 9 -9 5 3 6 10 3 15 -9 13 -12 11 -12 -6z"/>
<path d="M2140 975 c-7 -8 -9 -15 -5 -15 4 0 1 -8 -6 -17 -13 -16 -12 -17 4
-4 9 8 15 16 12 19 -3 3 0 11 6 19 6 7 9 13 6 13 -2 0 -10 -7 -17 -15z"/>
<path d="M2341 957 c2 -1 13 -9 24 -17 19 -14 19 -14 6 3 -7 9 -18 17 -24 17
-6 0 -8 -1 -6 -3z"/>
<path d="M2039 833 c-13 -16 -12 -17 4 -4 16 13 21 21 13 21 -2 0 -10 -8 -17
-17z"/>
<path d="M1996 785 c-11 -8 -15 -15 -9 -15 6 0 16 7 23 15 16 19 11 19 -14 0z"/>
<path d="M1909 673 c-13 -16 -12 -17 4 -4 16 13 21 21 13 21 -2 0 -10 -8 -17
-17z"/>
<path d="M1801 543 c-10 -26 -10 -27 4 -9 8 11 15 23 15 28 0 15 -7 8 -19 -19z"/>
</g>
</svg>
